<?xml version="1.0" standalone="no"?>
<!DOCTYPE svg PUBLIC "-//W3C//DTD SVG 20010904//EN"
 "http://www.w3.org/TR/2001/REC-SVG-20010904/DTD/svg10.dtd">
<svg version="1.0" xmlns="http://www.w3.org/2000/svg"
 width="380.000000pt" height="380.000000pt" viewBox="0 0 380.000000 380.000000"
 preserveAspectRatio="xMidYMid meet">
<metadata>
Created by potrace 1.14, written by Peter Selinger 2001-2017
</metadata>
<g transform="translate(0.000000,380.000000) scale(0.100000,-0.100000)"
fill="#000000" stroke="none">
<path d="M815 3082 c-3 -3 -20 -7 -38 -9 -36 -3 -55 -7 -77 -16 -8 -3 -33 -11
-55 -18 -133 -40 -320 -169 -420 -290 -39 -48 -75 -98 -75 -106 0 -4 -9 -19
-20 -33 -11 -14 -20 -33 -20 -42 0 -10 -4 -18 -9 -18 -7 0 -44 -81 -46 -100 0
-3 -4 -11 -8 -17 -5 -7 -6 -13 -3 -13 3 0 1 -12 -5 -27 -26 -66 -34 -135 -33
-278 0 -129 5 -181 23 -242 5 -18 7 -33 4 -33 -3 0 -1 -6 4 -12 6 -7 16 -31
23 -53 21 -66 84 -185 135 -254 6 -7 42 -46 80 -85 76 -79 138 -129 194 -159
20 -11 54 -29 76 -41 41 -23 147 -60 200 -71 71 -15 119 -17 483 -20 210 -1
384 -4 385 -6 1 -2 15 -29 30 -59 56 -112 129 -229 173 -280 12 -14 36 -41 52
-60 28 -33 31 -34 38 -15 4 11 13 25 20 30 25 21 128 174 186 277 33 60 66
108 72 109 6 0 184 2 396 4 212 2 401 6 420 9 43 7 75 14 75 16 0 1 11 3 25 6
24 4 81 26 160 62 19 9 54 28 77 44 23 15 44 28 48 28 14 0 190 171 232 226
41 52 146 273 140 294 -3 11 -2 20 3 20 16 0 34 130 36 258 1 128 -18 275 -42
313 -4 8 -9 19 -10 24 -6 48 -94 215 -139 263 -14 15 -25 30 -25 33 0 15 -165
169 -181 169 -5 0 -9 3 -9 8 0 4 -8 12 -19 17 -10 6 -38 21 -62 34 -24 13 -44
22 -44 20 0 -2 -15 6 -32 19 -18 13 -33 21 -33 17 0 -3 -10 0 -22 6 -21 11
-60 23 -115 34 -13 3 -35 8 -50 12 -38 9 -290 9 -333 0 -213 -46 -363 -126
-505 -272 -70 -71 -95 -102 -95 -114 0 -5 -3 -11 -8 -13 -11 -5 -55 -77 -81
-133 -43 -92 -66 -163 -77 -240 -11 -74 -22 -60 -27 33 0 6 -4 12 -9 12 -4 0
-8 10 -8 23 0 58 -84 235 -165 346 -35 47 -171 174 -230 212 -63 42 -174 99
-200 103 -5 1 -16 5 -23 9 -7 5 -25 11 -40 13 -15 3 -43 9 -62 13 -50 13 -51
13 -197 16 -72 2 -134 0 -138 -3z m190 -502 c0 -1 11 -3 25 -6 45 -7 100 -27
100 -36 0 -5 5 -6 10 -3 6 3 10 2 10 -4 0 -5 9 -12 19 -16 30 -9 96 -82 127
-139 44 -81 61 -162 57 -279 -5 -128 -6 -137 -13 -137 -4 0 -7 -6 -7 -14 0
-35 -61 -135 -113 -186 -77 -74 -154 -105 -270 -106 -47 -1 -89 2 -95 6 -5 3
-29 12 -52 20 -24 7 -43 17 -43 22 0 4 -4 8 -10 8 -11 0 -50 31 -92 74 -31 32
-84 134 -93 181 -34 167 -15 322 53 429 54 88 177 176 244 176 13 0 28 4 35 8
9 6 108 8 108 2z m1997 -30 c24 -11 52 -25 63 -32 24 -16 105 -95 105 -104 0
-3 8 -18 19 -32 23 -33 53 -131 44 -145 -3 -6 -1 -7 5 -3 11 7 14 -18 15 -114
0 -48 -15 -155 -25 -174 -6 -11 -10 -22 -9 -24 2 -2 -9 -26 -23 -55 -44 -91
-129 -164 -234 -200 -50 -18 -164 -18 -219 -2 -24 7 -43 11 -43 9 0 -3 -6 0
-12 6 -7 6 -38 26 -68 45 -30 19 -51 35 -47 35 4 0 -7 15 -24 33 -46 48 -83
126 -96 207 -3 14 -5 72 -5 130 0 87 4 118 24 177 27 75 28 77 97 154 103 115
292 154 433 89z"/>
</g>
</svg>
