<svg height='100px' width='100px'  fill="#000000" xmlns="http://www.w3.org/2000/svg" viewBox="0 0 64 64" x="0px" y="0px"><title>cryptocurrency-bitcoin-money-coin-cash-currency</title><g><path d="M32,28a3,3,0,0,1,2.905,2.25l1.938-.5A4.981,4.981,0,0,0,34.991,27H35V24H33v2.112A4.942,4.942,0,0,0,32,26a5,5,0,0,0-1,.1V24H29v3h.031A4.982,4.982,0,0,0,27,31v2a4.982,4.982,0,0,0,2.031,4H29v3h2V37.9a5,5,0,0,0,1,.1,4.942,4.942,0,0,0,1-.112V40h2V37h-.009a4.981,4.981,0,0,0,1.852-2.75l-1.938-.5A3,3,0,0,1,29,33V31A3,3,0,0,1,32,28Z"></path><path d="M61,16H3a1,1,0,0,0-1,1V47a1,1,0,0,0,1,1H61a1,1,0,0,0,1-1V17A1,1,0,0,0,61,16ZM54.08,46H9.92A7,7,0,0,0,4,40.08V23.92A7,7,0,0,0,9.92,18H54.08A7,7,0,0,0,60,23.92V40.08A7,7,0,0,0,54.08,46ZM60,18v3.9A5.013,5.013,0,0,1,56.1,18ZM4,18H7.9A5.013,5.013,0,0,1,4,21.9ZM4,46V42.1A5.013,5.013,0,0,1,7.9,46Zm56,0H56.1A5.013,5.013,0,0,1,60,42.1Z"></path><rect x="2" y="50" width="60" height="2"></rect><path d="M55,25a3,3,0,0,0-3,3,2.951,2.951,0,0,0,.3,1.285L50.586,31H43.949A11.91,11.91,0,0,0,42.9,27H46a1,1,0,0,0,.707-.293L47.715,25.7A2.951,2.951,0,0,0,49,26a3,3,0,1,0-3-3,2.951,2.951,0,0,0,.3,1.285L45.586,25H41.727a11.935,11.935,0,0,0-15.864-3.293l-2.308-1.539A1.006,1.006,0,0,0,23,20H19v2h3.7l1.438.958A12.064,12.064,0,0,0,21.105,27h-3.57L16.21,25.012a3.2,3.2,0,1,0-1.775.944l1.733,2.6A1,1,0,0,0,17,29H20.4a11.89,11.89,0,0,0-.344,2H13a1,1,0,0,0-.707.293L10.285,33.3A2.951,2.951,0,0,0,9,33a3,3,0,1,0,3,3,2.951,2.951,0,0,0-.3-1.285L13.414,33h6.637a11.89,11.89,0,0,0,.344,2H17v2h4.105a12.037,12.037,0,0,0,1.976,3H17.816a3,3,0,1,0,0,2h7.565a11.948,11.948,0,0,0,13.217.012l1.7,1.7A1,1,0,0,0,41,44h4V42H41.414l-1.24-1.24a12.035,12.035,0,0,0,2.2-2.76h4.089l1.325,1.988a3.2,3.2,0,1,0,1.775-.944l-1.733-2.6A1,1,0,0,0,47,36H43.3a11.866,11.866,0,0,0,.649-3H51a1,1,0,0,0,.707-.293L53.715,30.7A2.951,2.951,0,0,0,55,31a3,3,0,0,0,0-6Zm-6-3a1,1,0,1,1-1,1A1,1,0,0,1,49,22ZM13,23a1,1,0,1,1,1,1A1,1,0,0,1,13,23ZM9,37a1,1,0,1,1,1-1A1,1,0,0,1,9,37Zm42,5a1,1,0,1,1-1-1A1,1,0,0,1,51,42ZM15,42a1,1,0,1,1,1-1A1,1,0,0,1,15,42Zm17,0A10,10,0,1,1,42,32,10.011,10.011,0,0,1,32,42ZM55,29a1,1,0,1,1,1-1A1,1,0,0,1,55,29Z"></path><rect x="51" y="36" width="4" height="2"></rect><rect x="9" y="28" width="4" height="2"></rect><path d="M6,12H8a4,4,0,0,1,4-4V6A4,4,0,0,1,8,2H6A4,4,0,0,1,2,6V8A4,4,0,0,1,6,12ZM7,5.3A6.043,6.043,0,0,0,8.687,7,6.043,6.043,0,0,0,7,8.7,6.043,6.043,0,0,0,5.313,7,6.043,6.043,0,0,0,7,5.3Z"></path></g></svg>