<svg height='100px' width='100px'  fill="#000000" xmlns="http://www.w3.org/2000/svg" xmlns:xlink="http://www.w3.org/1999/xlink" version="1.1" x="0px" y="0px" viewBox="0 0 100 100" enable-background="new 0 0 100 100" xml:space="preserve"><g><g><path d="M30,7.3L30,7.3c0.2,0,0.4,0,0.6,0.1c1.1,0.2,2,1.1,2.2,2.2c0.1,0.6,0,1.1-0.2,1.6c-0.4,1-0.3,2.1,0.3,3    c0.6,0.9,1.6,1.4,2.7,1.4H44v7.4c-0.5-0.1-1-0.2-1.5-0.2c-0.4,0-0.8,0-1.2,0.1c-2.7,0.5-4.9,2.6-5.4,5.4c-0.4,2,0.1,4.1,1.4,5.7    c1.3,1.6,3.2,2.5,5.3,2.5c0.5,0,1-0.1,1.5-0.2v7.4h-7.4c0.1-0.5,0.2-1,0.2-1.5c0-3.8-3.1-6.8-6.8-6.8c-0.4,0-0.9,0-1.3,0.1    c-2.7,0.5-4.9,2.7-5.4,5.4c-0.2,0.9-0.1,1.9,0.1,2.8h-7.4v-8.5c0-1.8-1.4-3.2-3.2-3.2c-0.4,0-0.8,0.1-1.2,0.3    c-0.3,0.1-0.7,0.2-1.1,0.2c-0.8,0-1.6-0.4-2.2-1c-0.5-0.7-0.8-1.5-0.6-2.4c0.2-1.1,1.1-2,2.2-2.2c0.2,0,0.4,0,0.5,0    c0.4,0,0.7,0.1,1.1,0.2c0.4,0.2,0.8,0.3,1.2,0.3c1.8,0,3.2-1.4,3.2-3.2v-8.5h8.5c1.1,0,2.1-0.5,2.7-1.4c0.6-0.9,0.7-2,0.3-3    c-0.1-0.3-0.2-0.7-0.2-1.1c0-0.8,0.3-1.5,0.8-2C28.5,7.6,29.2,7.3,30,7.3 M30,5.3c-2.7,0-4.8,2.2-4.8,4.8c0,0.7,0.1,1.3,0.4,1.9    c0.3,0.8-0.3,1.7-1.1,1.7h-9.3c-0.7,0-1.2,0.5-1.2,1.2v9.3c0,0.7-0.6,1.2-1.2,1.2c-0.2,0-0.3,0-0.5-0.1c-0.6-0.2-1.2-0.4-1.9-0.4    c-0.3,0-0.6,0-0.9,0.1c-1.9,0.3-3.5,1.9-3.8,3.8c-0.6,3.1,1.7,5.8,4.7,5.8c0.7,0,1.3-0.1,1.9-0.4c0.2-0.1,0.3-0.1,0.5-0.1    c0.6,0,1.2,0.5,1.2,1.2v9.3c0,0.7,0.5,1.2,1.2,1.2h9.3c0.9,0,1.5-0.9,1.1-1.7c-0.4-0.8-0.5-1.8-0.3-2.8c0.3-1.9,1.9-3.5,3.8-3.8    c0.3-0.1,0.6-0.1,1-0.1c2.7,0,4.8,2.2,4.8,4.8c0,0.7-0.1,1.3-0.4,1.9c-0.3,0.8,0.3,1.7,1.1,1.7h9.3c0.7,0,1.2-0.5,1.2-1.2v-9.3    c0-0.7-0.6-1.2-1.2-1.2c-0.2,0-0.3,0-0.5,0.1c-0.6,0.2-1.2,0.4-1.9,0.4c-3,0-5.3-2.7-4.7-5.8c0.4-1.9,1.9-3.4,3.8-3.8    c0.3-0.1,0.6-0.1,0.9-0.1c0.7,0,1.3,0.1,1.9,0.4c0.2,0.1,0.3,0.1,0.5,0.1c0.6,0,1.2-0.5,1.2-1.2v-9.3c0-0.7-0.5-1.2-1.2-1.2h-9.3    c-0.9,0-1.5-0.9-1.1-1.7c0.4-0.8,0.5-1.8,0.3-2.8c-0.3-1.9-1.9-3.5-3.8-3.8C30.6,5.4,30.3,5.3,30,5.3L30,5.3z"></path></g><g><path d="M29.7,47.8L29.7,47.8c0.2,0,0.4,0,0.6,0.1c1.1,0.2,2,1.1,2.2,2.2c0.1,0.6,0,1.1-0.2,1.6c-0.4,1-0.3,2.1,0.3,3    c0.6,0.9,1.6,1.4,2.7,1.4h8.5v8.5c0,1.8,1.4,3.2,3.2,3.2c0.4,0,0.8-0.1,1.2-0.3c0.3-0.1,0.7-0.2,1.1-0.2c0.8,0,1.6,0.4,2.2,1    c0.5,0.7,0.8,1.5,0.6,2.4c-0.2,1.1-1.1,2-2.2,2.2c-0.2,0-0.4,0-0.5,0c-0.4,0-0.7-0.1-1.1-0.2c-0.4-0.2-0.8-0.3-1.2-0.3    c-1.8,0-3.2,1.4-3.2,3.2v8.5h-7.4c0.2-0.9,0.2-1.8,0.1-2.8c-0.5-2.7-2.6-4.9-5.4-5.4c-0.4-0.1-0.9-0.1-1.3-0.1    c-3.8,0-6.8,3.1-6.8,6.8c0,0.5,0.1,1,0.2,1.5h-7.4v-7.4c0.5,0.1,1,0.2,1.5,0.2c2,0,4-0.9,5.3-2.5c1.3-1.6,1.8-3.6,1.4-5.7    c-0.5-2.7-2.7-4.9-5.4-5.4c-0.4-0.1-0.8-0.1-1.2-0.1c-0.5,0-1,0.1-1.5,0.2v-7.4h8.5c1.1,0,2.1-0.5,2.7-1.4c0.6-0.9,0.7-2,0.3-3    c-0.1-0.3-0.2-0.7-0.2-1.1c0-0.8,0.3-1.5,0.8-2C28.3,48.1,29,47.8,29.7,47.8 M29.7,45.8c-2.7,0-4.8,2.2-4.8,4.8    c0,0.7,0.1,1.3,0.4,1.9c0.3,0.8-0.3,1.7-1.1,1.7h-9.3c-0.7,0-1.2,0.5-1.2,1.2v9.3c0,0.7,0.6,1.2,1.2,1.2c0.2,0,0.3,0,0.5-0.1    c0.6-0.2,1.2-0.4,1.9-0.4c0.3,0,0.6,0,0.9,0.1c1.9,0.3,3.5,1.9,3.8,3.8c0.6,3.1-1.7,5.8-4.7,5.8c-0.7,0-1.3-0.1-1.9-0.4    c-0.2-0.1-0.3-0.1-0.5-0.1c-0.6,0-1.2,0.5-1.2,1.2V85c0,0.7,0.5,1.2,1.2,1.2h9.3c0.9,0,1.5-0.9,1.1-1.7c-0.2-0.6-0.4-1.2-0.4-1.9    c0-2.7,2.2-4.8,4.8-4.8c0.3,0,0.6,0,1,0.1c1.9,0.4,3.4,1.9,3.8,3.8c0.2,1,0.1,1.9-0.3,2.8c-0.3,0.8,0.3,1.7,1.1,1.7h9.3    c0.7,0,1.2-0.5,1.2-1.2v-9.3c0-0.7,0.6-1.2,1.2-1.2c0.2,0,0.3,0,0.5,0.1c0.6,0.2,1.2,0.4,1.9,0.4c0.3,0,0.6,0,0.9-0.1    c1.9-0.3,3.5-1.9,3.8-3.8c0.6-3.1-1.7-5.8-4.7-5.8c-0.7,0-1.3,0.1-1.9,0.4c-0.2,0.1-0.3,0.1-0.5,0.1c-0.6,0-1.2-0.5-1.2-1.2v-9.3    c0-0.7-0.5-1.2-1.2-1.2h-9.3c-0.9,0-1.5-0.9-1.1-1.7c0.4-0.8,0.5-1.8,0.3-2.8c-0.3-1.9-1.9-3.5-3.8-3.8    C30.4,45.8,30,45.8,29.7,45.8L29.7,45.8z"></path></g><g><path d="M84.7,15.4v9.2c0,1.5,1.3,2.8,2.8,2.8c0.4,0,0.7-0.1,1-0.2c0.3-0.1,0.7-0.2,1.1-0.2c0,0,0,0,0,0c1.5,0,2.7,1.3,2.8,2.7    c0,0.8-0.3,1.5-0.8,2c-0.5,0.6-1.3,0.9-2,0.9c-0.4,0-0.7-0.1-1-0.2c-0.3-0.1-0.7-0.2-1-0.2c-1.5,0-2.8,1.3-2.8,2.8v8.5h-7.4    c0.1-0.5,0.2-1,0.2-1.5c0-3.8-3.1-6.8-6.8-6.8c-0.1,0-0.1,0-0.2,0c-3.7,0.1-6.6,3.2-6.6,6.9c0,0.5,0.1,1,0.2,1.5h-7.4v-9.2    c0-1.5-1.3-2.8-2.8-2.8c-0.5,0-1,0.1-1.4,0.4c-0.4,0.2-0.9,0.3-1.3,0.3c-0.8,0-1.5-0.3-2-0.9c-0.5-0.6-0.8-1.3-0.8-2.1    c0-1.5,1.3-2.7,2.8-2.7c0.5,0,0.9,0.1,1.3,0.3c0.4,0.2,0.9,0.4,1.4,0.4c1.5,0,2.8-1.3,2.8-2.8v-9.2H64c-0.1,0.5-0.2,1-0.2,1.5    c0,3.8,3.1,6.8,6.8,6.8c0.1,0,0.1,0,0.2,0c3.7-0.1,6.6-3.2,6.6-6.9c0-0.5-0.1-1-0.2-1.5H84.7 M85.9,13.4H75.5    c-0.6,0-1,0.7-0.7,1.2c0.4,0.7,0.6,1.5,0.6,2.3c0,2.6-2.1,4.8-4.7,4.9c0,0-0.1,0-0.1,0c-2.7,0-4.8-2.2-4.8-4.8    c0-0.8,0.2-1.6,0.6-2.3c0.3-0.5-0.1-1.2-0.7-1.2H55.4c-0.4,0-0.8,0.4-0.8,0.8v10.3c0,0.5-0.4,0.8-0.8,0.8c-0.1,0-0.3,0-0.4-0.1    c-0.7-0.4-1.5-0.6-2.3-0.6c0,0,0,0,0,0c-2.6,0-4.7,2.1-4.8,4.7c-0.1,2.7,2.1,5,4.8,5c0.8,0,1.6-0.2,2.3-0.6    c0.1-0.1,0.3-0.1,0.4-0.1c0.4,0,0.8,0.3,0.8,0.8v10.4c0,0.4,0.4,0.8,0.8,0.8h10.3c0.6,0,1-0.7,0.7-1.2c-0.4-0.7-0.6-1.5-0.6-2.3    c0-2.6,2.1-4.8,4.7-4.9c0,0,0.1,0,0.1,0c2.7,0,4.8,2.2,4.8,4.8c0,0.8-0.2,1.6-0.6,2.3c-0.3,0.5,0.1,1.2,0.7,1.2h10.4    c0.4,0,0.8-0.4,0.8-0.8V35c0-0.5,0.4-0.8,0.8-0.8c0.1,0,0.2,0,0.3,0.1c0.6,0.2,1.2,0.3,1.8,0.3c2.7,0,4.9-2.2,4.8-5    c-0.1-2.5-2.2-4.7-4.8-4.7c0,0,0,0-0.1,0c-0.6,0-1.2,0.1-1.8,0.4c-0.1,0-0.2,0.1-0.3,0.1c-0.4,0-0.8-0.3-0.8-0.8V14.2    C86.7,13.8,86.3,13.4,85.9,13.4L85.9,13.4z"></path></g><g><path d="M70.9,48.4c1.6,0,2.8,1.3,2.8,2.8c0,0.4-0.1,0.7-0.2,1c-0.3,0.9-0.2,1.8,0.3,2.6c0.5,0.8,1.4,1.2,2.3,1.2h8.5v7.4    c-0.5-0.1-1-0.2-1.5-0.2c-1.9,0-3.6,0.7-4.9,2.1c-1.3,1.3-2,3.1-1.9,5c0.1,3.7,3.2,6.6,6.9,6.6c0.5,0,1-0.1,1.5-0.2v7.4h-9.2    c-1,0-1.9,0.5-2.4,1.4c-0.5,0.9-0.5,1.9,0,2.8c0.2,0.4,0.3,0.9,0.3,1.3c0,1.6-1.3,2.8-2.8,2.8l-0.1,0c-1.5,0-2.7-1.3-2.7-2.8    c0-0.5,0.1-0.9,0.3-1.3c0.5-0.9,0.5-2,0-2.8c-0.5-0.9-1.4-1.4-2.4-1.4h-9.2v-7.4c0.5,0.1,1,0.2,1.5,0.2c1.9,0,3.6-0.7,4.9-2.1    c1.3-1.3,2-3.1,1.9-5c-0.1-3.7-3.2-6.6-6.9-6.6c-0.5,0-1,0.1-1.5,0.2v-7.4h9.2c0.9,0,1.8-0.5,2.3-1.2c0.5-0.8,0.6-1.7,0.3-2.6    c-0.1-0.3-0.2-0.7-0.2-1.1C68.1,49.7,69.4,48.5,70.9,48.4L70.9,48.4 M70.9,46.4c0,0-0.1,0-0.1,0c-2.5,0.1-4.7,2.2-4.7,4.8    c0,0.7,0.1,1.3,0.4,1.9c0.2,0.5-0.2,1.1-0.8,1.1H55.3c-0.4,0-0.8,0.4-0.8,0.8v10.3c0,0.5,0.4,0.8,0.8,0.8c0.1,0,0.3,0,0.4-0.1    c0.7-0.4,1.5-0.6,2.3-0.6c0,0,0,0,0,0c2.6,0,4.7,2.1,4.8,4.7c0.1,2.7-2.1,5-4.8,5c-0.8,0-1.6-0.2-2.3-0.6    c-0.1-0.1-0.3-0.1-0.4-0.1c-0.4,0-0.8,0.3-0.8,0.8v10.4c0,0.4,0.4,0.8,0.8,0.8h10.3c0.6,0,1,0.7,0.7,1.2c-0.4,0.7-0.6,1.5-0.6,2.3    c0,2.6,2.1,4.8,4.7,4.9c0,0,0.1,0,0.1,0c2.7,0,4.8-2.2,4.8-4.8c0-0.8-0.2-1.6-0.6-2.3c-0.3-0.5,0.1-1.2,0.7-1.2h10.4    c0.4,0,0.8-0.4,0.8-0.8V75.1c0-0.5-0.4-0.8-0.8-0.8c-0.1,0-0.3,0-0.4,0.1C84.8,74.8,84,75,83.2,75c0,0,0,0,0,0    c-2.6,0-4.7-2.1-4.8-4.7c-0.1-2.7,2.1-5,4.8-5c0.8,0,1.6,0.2,2.3,0.6c0.1,0.1,0.3,0.1,0.4,0.1c0.4,0,0.8-0.3,0.8-0.8V54.9    c0-0.4-0.4-0.8-0.8-0.8h-9.7c-0.6,0-1-0.6-0.7-1.1c0.2-0.6,0.3-1.2,0.3-1.8C75.7,48.6,73.6,46.4,70.9,46.4L70.9,46.4z"></path></g></g></svg>