<?xml version="1.0" encoding="UTF-8"?>
<svg width="2258px" height="1411px" viewBox="0 0 2258 1411" version="1.1" xmlns="http://www.w3.org/2000/svg" xmlns:xlink="http://www.w3.org/1999/xlink">
    <title>Group</title>
    <g id="Page-1" stroke="none" stroke-width="1" fill="none" fill-rule="evenodd">
        <g id="Group" fill="#FFFFFF">
            <path d="M565.891149,1154 C644.554032,1154 717.999479,1139.17431 786.22749,1109.52292 C854.455501,1079.87153 914.255346,1039.00069 965.627025,986.910417 C1016.9987,934.820139 1057.53417,873.914583 1087.23342,804.19375 C1116.93267,734.472917 1131.7823,658.741667 1131.7823,577 C1131.7823,495.258333 1116.93267,419.527083 1087.23342,349.80625 C1057.53417,280.085417 1016.9987,219.179861 965.627025,167.089583 C914.255346,114.999306 854.455501,74.1284722 786.22749,44.4770833 C717.999479,14.8256944 644.554032,0 565.891149,0 C487.228266,0 413.782819,14.8256944 345.554808,44.4770833 C277.326797,74.1284722 217.526952,114.999306 166.155274,167.089583 C114.783595,219.179861 74.2481295,280.085417 44.5488777,349.80625 C14.8496259,419.527083 0,495.258333 0,577 C0,658.741667 14.8496259,734.472917 44.5488777,804.19375 C74.2481295,873.914583 114.783595,934.820139 166.155274,986.910417 C217.526952,1039.00069 277.326797,1079.87153 345.554808,1109.52292 C413.782819,1139.17431 487.228266,1154 565.891149,1154 Z M565.891149,853.479167 C498.465821,853.479167 441.475365,828.636111 394.919781,778.95 C348.364197,729.263889 325.086405,661.947222 325.086405,577 C325.086405,492.052778 348.364197,424.736111 394.919781,375.05 C441.475365,325.363889 498.465821,300.520833 565.891149,300.520833 C633.316477,300.520833 690.306934,325.363889 736.862518,375.05 C783.418101,424.736111 806.695893,492.052778 806.695893,577 C806.695893,661.947222 783.418101,729.263889 736.862518,778.95 C690.306934,828.636111 633.316477,853.479167 565.891149,853.479167 Z M1692.10885,1154 C1770.77173,1154 1844.21718,1139.17431 1912.44519,1109.52292 C1980.6732,1079.87153 2040.47305,1039.00069 2091.84473,986.910417 C2143.21641,934.820139 2183.75187,873.914583 2213.45112,804.19375 C2243.15037,734.472917 2258,658.741667 2258,577 C2258,495.258333 2243.15037,419.527083 2213.45112,349.80625 C2183.75187,280.085417 2143.21641,219.179861 2091.84473,167.089583 C2040.47305,114.999306 1980.6732,74.1284722 1912.44519,44.4770833 C1844.21718,14.8256944 1770.77173,0 1692.10885,0 C1613.44597,0 1540.00052,14.8256944 1471.77251,44.4770833 C1403.5445,74.1284722 1343.74465,114.999306 1292.37298,167.089583 C1241.0013,219.179861 1200.46583,280.085417 1170.76658,349.80625 C1141.06733,419.527083 1126.2177,495.258333 1126.2177,577 C1126.2177,658.741667 1141.06733,734.472917 1170.76658,804.19375 C1200.46583,873.914583 1241.0013,934.820139 1292.37298,986.910417 C1343.74465,1039.00069 1403.5445,1079.87153 1471.77251,1109.52292 C1540.00052,1139.17431 1613.44597,1154 1692.10885,1154 Z M1692.10885,853.479167 C1624.68352,853.479167 1567.69307,828.636111 1521.13748,778.95 C1474.5819,729.263889 1451.30411,661.947222 1451.30411,577 C1451.30411,492.052778 1474.5819,424.736111 1521.13748,375.05 C1567.69307,325.363889 1624.68352,300.520833 1692.10885,300.520833 C1759.53418,300.520833 1816.52464,325.363889 1863.08022,375.05 C1909.6358,424.736111 1932.9136,492.052778 1932.9136,577 C1932.9136,661.947222 1909.6358,729.263889 1863.08022,778.95 C1816.52464,828.636111 1759.53418,853.479167 1692.10885,853.479167 Z" id="oo" fill-rule="nonzero"></path>
            <path d="M945,1131 C980.500209,1202.34039 1009.48936,1255.61681 1031.96744,1290.82925 C1054.44552,1326.04168 1085.0363,1366.0986 1123.73978,1411 C1162.30575,1364.21507 1192.96802,1323.04844 1215.7266,1287.5001 C1238.48519,1251.95176 1267.57632,1199.78506 1303,1131 L945,1131 Z" id="Path-2"></path>
            <polygon id="Path-3" points="537 1154 1120.0981 552 1714 1154"></polygon>
        </g>
    </g>
</svg>