<svg id="Layer_1" data-name="Layer 1" xmlns="http://www.w3.org/2000/svg" viewBox="0 0 770.92 951.42"><defs><style>.cls-1{fill:#662113;stroke:#662113;stroke-miterlimit:10;}</style></defs><title>Owlfred</title><path d="M1560.45,1626.13V1612s247.2,25.4,170.75-335.93c0,0-82.83,53.64-116,39.52,0,0,26.76,166.55-186,280.88,0,0-187.31-93.15-192.41-272.41,0,0-66.26-1.41-96.84-48,0,0-126.15,311.93,159.28,338.75v19.76H1060.05a16.93,16.93,0,0,0-16.94,16.94h0a16.93,16.93,0,0,0,16.94,16.93H1271.2V1732s20.39,76.22,158,118.56c0,0,73.91-5.65,161.83-105.86v-79h203.23a19.76,19.76,0,0,0,19.76-19.76h0a19.76,19.76,0,0,0-19.76-19.76Zm-221.94,55.55-12.75-4.06v-59.46h12.75Zm24.71,12.53-12.74-4V1630.7h12.74Zm24.85,9.2-12.74-4.06v-59.46h12.74Zm93.22-4.06-12.74,4.06v-63.52h12.74Zm24.85-9.19-12.75,4V1630.7h12.75Zm24.71-12.54-12.74,4.06v-63.52h12.74Z" transform="translate(-1043.11 -899.13)"/><path d="M1200.71,1015.28c-72.32-14.79-99.73-68-95.51-116.09,2.74,3.82,5.17,7.35,7.74,10.79,17.9,23.95,42.27,35.56,71.68,37.85,22.85,1.77,45.38-1.39,68-3.83,17.81-1.92,35.6-4,53.57-3,24.76,1.35,47,10,67.3,23.86a134.53,134.53,0,0,1,40.62,43.07c6.88,11.65,11.46,24.14,14.68,37.48,1-3.79,2-7.59,3.11-11.36,8.49-28.63,26-50.62,50-67.83,18.67-13.42,39.3-22.61,62.25-24.43,15-1.18,30.16-.22,45.19.8,20.82,1.41,41.54,4.26,62.37,5.59,18.27,1.16,36.34-.75,53.6-7.68,18.33-7.37,32.16-20,43.08-36.19,1.07-1.58,2.13-3.17,3.45-5.14,4.56,43.93-19.79,100.78-95.93,116.37,27.89,28.2,41.47,62.12,40.22,101.25s-17,72.08-46.23,98.21c-45.54,40.67-119.56,49.29-177.09,4.09-12.77,24.88-26.42,49.16-44.16,71.62-17.69-22.37-32-46.38-44.27-71.65-62.42,49.23-142.65,33.15-186-12.35C1154.61,1160.77,1142.29,1075.17,1200.71,1015.28Zm358.28-.1c-53.59.12-97.42,44.09-97.13,97.41.29,53.55,44.14,97.16,97.57,97.06s97-43.79,97-97.12A97.22,97.22,0,0,0,1559,1015.18Zm-163.69,97.59c.26-53.28-43.2-97.24-96.5-97.64a97.3,97.3,0,0,0-98.11,97.23c-.19,53.15,43.53,97.07,96.87,97.3S1395.05,1166.17,1395.3,1112.77Z" transform="translate(-1043.11 -899.13)"/><path d="M1428.58,1027.78c-19-64.76-64.48-98-132.63-104.12,4.21-2,8.25-4.28,12.53-5.92,25.72-9.85,52.18-12.94,79.37-8a130.44,130.44,0,0,1,36.81,12.1c2.87,1.48,5.06,1.11,7.84-.16,40.64-18.57,81.5-19.11,122.49-1.16,2.17,1,4.19,2.22,6.1,3.25C1493.33,929.51,1447.8,962.82,1428.58,1027.78Z" transform="translate(-1043.11 -899.13)"/><path class="cls-1" d="M1513.91,1099.44c14.34,15.21,29.11,16.9,39.87,4.81,10.21-11.47,7.54-26.21-6.77-37.47,15.32-5.45,38.24-.76,51.56,17.69,12.64,17.51,11.59,43.21-2.52,58.84-16.07,17.83-40.1,22-60.32,10.39C1517.21,1143.1,1507.73,1119.87,1513.91,1099.44Z" transform="translate(-1043.11 -899.13)"/><path class="cls-1" d="M1285.67,1066.74c18.12-6.65,42.15,2.36,53.1,19.67a47.94,47.94,0,0,1-6.92,60.18c-15.4,15.05-40.65,17.7-58.21,6.59-20.15-12.75-26.55-36.51-20.73-53.31,14.53,14.85,28.84,16.39,39.69,4.28C1302.47,1093.15,1299.69,1077.56,1285.67,1066.74Z" transform="translate(-1043.11 -899.13)"/><path class="cls-1" d="M1451.23,1351.4c-8.25,7.78-9.46,7.84-19.47,3.29a8.55,8.55,0,0,0-6.44.12c-9.38,4.43-11.58,4.2-19.1-3.54-10.27,11-23.15,17.92-37,23.17a121.79,121.79,0,0,1-18.56,5.55c-9.29,1.89-14.08-2.1-14.72-11.52-.22-3.22-.06-6.47-.06-9.71v-47.41c0-1.44-.11-2.88-.12-4.32-.1-16,5.06-20,20.69-15.71,18.41,5,32.54,12.55,48.79,26.1,1.32-1.58,2.54-3.28,4-4.73,4.22-4.16,8.81-4.69,14.18-1.45,3.1,1.88,5.78,2.89,9.4.71,7.85-4.71,12.16-3.58,17.86,3.88.41.54.87,1,1.46,1.74,14.75-14,32.44-22,51.7-26.84,12.57-3.14,17.61.85,17.67,13.9,0,7.18-1,14.37-1,21.54.1,12.23.84,24.44,1,36.66.28,16.35-5.1,20.43-20.92,15.8C1482.16,1373.22,1464.88,1365.51,1451.23,1351.4Z" transform="translate(-1043.11 -899.13)"/><path d="M1428.92,1559.75a12.48,12.48,0,1,1,12.37-12.87A12.5,12.5,0,0,1,1428.92,1559.75Z" transform="translate(-1043.11 -899.13)"/><path d="M1428.79,1485a12.62,12.62,0,1,1,12.51-12.87A12.75,12.75,0,0,1,1428.79,1485Z" transform="translate(-1043.11 -899.13)"/><path d="M1428.69,1384.92a12.54,12.54,0,1,1-12.65,12.66A12.62,12.62,0,0,1,1428.69,1384.92Z" transform="translate(-1043.11 -899.13)"/></svg>