<svg xmlns="http://www.w3.org/2000/svg" xmlns:xlink="http://www.w3.org/1999/xlink" viewBox="0 0 402.25 531"><defs><clipPath id="clip-path" transform="translate(5 5)"><path d="M25.18,214.17a171,171,0,1,1,342,0v98.46c0,94.45-61.22,142.24-171,142.24s-171-47.79-171-142.24V214.17Z" style="fill:none;clip-rule:evenodd"/></clipPath><clipPath id="clip-path-2" transform="translate(5 5)"><path d="M25.1,482.64c50.21-25.37,87.8-62.44,87.8-113.75S69.22,276,25.1,276q-50.2,232,0,206.64Z" style="fill:none;clip-rule:evenodd"/></clipPath><clipPath id="clip-path-3" transform="translate(5 5)"><path d="M367.14,482.64c-50.2-25.37-87.79-62.44-87.79-113.75S323,276,367.14,276q50.21,232,0,206.64Z" style="fill:none;clip-rule:evenodd"/></clipPath><clipPath id="clip-path-4" transform="translate(5 5)"><path d="M196.31,300C116.68,300,55,276.63,55,204.68c0-43.82,23.94-82.47,58.73-107.78,9-6.52,3.72,12.81,9.84,9.83,6.58-3.21,14.25-23.49,28.31-28.1A142.48,142.48,0,0,1,196.31,72c79.63,0,141.31,60.72,141.31,132.68S275.94,300,196.31,300Z" style="fill:none;clip-rule:evenodd"/></clipPath><clipPath id="clip-path-5" transform="translate(5 5)"><path d="M136,195.16A21.85,21.85,0,1,0,114.18,217,21.85,21.85,0,0,0,136,195.16" style="fill:none;clip-rule:evenodd"/></clipPath><clipPath id="clip-path-6" transform="translate(5 5)"><path d="M296.89,195.16A21.85,21.85,0,1,0,275.05,217a21.84,21.84,0,0,0,21.84-21.85" style="fill:none;clip-rule:evenodd"/></clipPath><clipPath id="clip-path-7" transform="translate(5 5)"><path d="M128.26,197.33,90.67,175.62a9.44,9.44,0,0,1,9.44-16.35L137.7,181a9.44,9.44,0,0,1-9.44,16.35" style="fill:none;clip-rule:evenodd"/></clipPath><clipPath id="clip-path-8" transform="translate(5 5)"><path d="M298.56,175.62,261,197.33A9.44,9.44,0,0,1,251.53,181l37.6-21.71a9.44,9.44,0,0,1,9.43,16.35" style="fill:none;clip-rule:evenodd"/></clipPath><clipPath id="clip-path-9" transform="translate(5 5)"><path d="M229.8,234.6c0,21.61-26.11,49.15-36.47,49.15s-36.47-27.54-36.47-49.15c0-8.23,16.32-17.46,36.47-17.46s36.47,9.23,36.47,17.46" style="fill:none;clip-rule:evenodd"/></clipPath><clipPath id="clip-path-10" transform="translate(5 5)"><path d="M195.5,521c69.31,0,125.5-8.28,125.5-18.5S264.81,484,195.5,484,70,492.28,70,502.5,126.19,521,195.5,521Z" style="fill:none;clip-rule:evenodd"/></clipPath><clipPath id="clip-path-11" transform="translate(5 5)"><path d="M161,53Q194.08-1.73,210.26.06c16.2,1.8-18.42,34.78-12.4,40.46s30.36-21.24,40.47-14q10.09,7.24-18,26.47Z" style="fill:none;clip-rule:evenodd"/></clipPath><clipPath id="clip-path-12" transform="translate(5 5)"><path d="M127.5,477h46a12.5,12.5,0,0,1,0,25h-46a12.5,12.5,0,0,1,0-25Z" style="fill:none;clip-rule:evenodd"/></clipPath><clipPath id="clip-path-13" transform="translate(5 5)"><path d="M216.5,477h46a12.5,12.5,0,0,1,0,25h-46a12.5,12.5,0,0,1,0-25Z" style="fill:none;clip-rule:evenodd"/></clipPath><clipPath id="clip-path-14" transform="translate(5 5)"><path d="M161.5,323a6.5,6.5,0,0,1,6.5,6.5v25a6.5,6.5,0,0,1-13,0v-25a6.5,6.5,0,0,1,6.5-6.5Z" style="fill:none;clip-rule:evenodd"/></clipPath><clipPath id="clip-path-15" transform="translate(5 5)"><path d="M194.5,336a6.5,6.5,0,0,1,6.5,6.5v25a6.5,6.5,0,0,1-13,0v-25a6.5,6.5,0,0,1,6.5-6.5Z" style="fill:none;clip-rule:evenodd"/></clipPath><clipPath id="clip-path-16" transform="translate(5 5)"><path d="M228.5,323a6.5,6.5,0,0,1,6.5,6.5v25a6.5,6.5,0,0,1-13,0v-25a6.5,6.5,0,0,1,6.5-6.5Z" style="fill:none;clip-rule:evenodd"/></clipPath><clipPath id="clip-path-17" transform="translate(5 5)"><path d="M68,107.35q9.63-19.93,11.13-25.43c5.47-20.11,12.54-56,35.69-59.63,25.33-4-1.91,34.13-5.67,42.75q-1.75,4-4.64,12.17L68,107.35Z" style="fill:none;clip-rule:evenodd"/></clipPath><clipPath id="clip-path-18" transform="translate(5 5)"><path d="M288.14,71.7Q260.38,36.2,281,27.08c15.26-6.73,19.78,13.74,28.71,44.62Q312.66,81.81,322,102L288.14,71.7Z" style="fill:none;clip-rule:evenodd"/></clipPath></defs><title>angry</title><g id="Layer_2" data-name="Layer 2"><g id="Layer_1-2" data-name="Layer 1"><g style="clip-path:url(#clip-path)"><rect x="25.18" y="43.15" width="352.04" height="421.72" style="fill:#b079ec"/></g><g style="clip-path:url(#clip-path-2)"><rect y="276" width="122.9" height="219.14" style="fill:#8453b7"/></g><g style="clip-path:url(#clip-path-3)"><rect x="279.35" y="276" width="122.9" height="219.14" style="fill:#8453b7"/></g><g style="clip-path:url(#clip-path-4)"><rect x="55" y="72" width="292.62" height="237.96" style="fill:#ead9ff"/></g><g style="clip-path:url(#clip-path-5)"><rect x="92.34" y="173.31" width="53.69" height="53.7" style="fill:#2f2272"/></g><g style="clip-path:url(#clip-path-6)"><rect x="253.2" y="173.31" width="53.69" height="53.7" style="fill:#2f2272"/></g><g style="clip-path:url(#clip-path-7)"><rect x="85.95" y="158" width="66.47" height="50.6" style="fill:#2f2272"/></g><g style="clip-path:url(#clip-path-8)"><rect x="246.81" y="158" width="66.47" height="50.6" style="fill:#2f2272"/></g><g style="clip-path:url(#clip-path-9)"><rect x="156.86" y="217.14" width="82.94" height="76.61" style="fill:#f4911a"/></g><g style="clip-path:url(#clip-path-10)"><rect x="70" y="484" width="261" height="47" style="fill:#dcdcdc"/></g><g style="clip-path:url(#clip-path-11)"><rect x="161" width="90" height="63" style="fill:#b079ec"/></g><g style="clip-path:url(#clip-path-12)"><rect x="115" y="477" width="81" height="35" style="fill:#fab60a"/></g><g style="clip-path:url(#clip-path-13)"><rect x="204" y="477" width="81" height="35" style="fill:#fab60a"/></g><g style="clip-path:url(#clip-path-14)"><rect x="155" y="323" width="23" height="48" style="fill:#8453b7"/></g><g style="clip-path:url(#clip-path-15)"><rect x="188" y="336" width="23" height="48" style="fill:#8453b7"/></g><g style="clip-path:url(#clip-path-16)"><rect x="222" y="323" width="23" height="48" style="fill:#8453b7"/></g><g style="clip-path:url(#clip-path-17)"><rect x="68" y="22" width="67.49" height="95.35" style="fill:#b079ec"/></g><g style="clip-path:url(#clip-path-18)"><rect x="272.22" y="25.8" width="59.76" height="86.2" style="fill:#b079ec"/></g></g></g></svg>