<svg xmlns="http://www.w3.org/2000/svg" xmlns:xlink="http://www.w3.org/1999/xlink" viewBox="0 0 526.55 531"><defs><clipPath id="clip-path" transform="translate(14.63 5)"><path d="M481.47,214.31c-56.22,1.77-106,19.49-127.64,66s.33,102.65,40.31,121.29q143.55-189,87.33-187.28Z" style="fill:none;clip-rule:evenodd"/></clipPath><clipPath id="clip-path-2" transform="translate(14.63 5)"><path d="M15.82,214.31c56.23,1.77,106,19.49,127.64,66S143.13,383,103.15,401.59q-143.55-189-87.33-187.28Z" style="fill:none;clip-rule:evenodd"/></clipPath><clipPath id="clip-path-3" transform="translate(14.63 5)"><path d="M76.61,216.45a171,171,0,0,1,342,0v98.46c0,94.45-61.22,142.25-171,142.25s-171-47.8-171-142.25V216.45Z" style="fill:none;clip-rule:evenodd"/></clipPath><clipPath id="clip-path-4" transform="translate(14.63 5)"><path d="M247.63,303.1c-79.63,0-141.31-23.32-141.31-95.28,0-43.82,23.94-82.47,58.73-107.78,9-6.52,3.72,12.81,9.84,9.83,6.58-3.2,14.25-23.48,28.31-28.1a142.48,142.48,0,0,1,44.43-6.63c79.64,0,141.31,60.72,141.31,132.68S327.27,303.1,247.63,303.1Z" style="fill:none;clip-rule:evenodd"/></clipPath><clipPath id="clip-path-5" transform="translate(14.63 5)"><path d="M189.14,199.85a21.84,21.84,0,1,0-21.84,21.86,21.84,21.84,0,0,0,21.84-21.86" style="fill:none;clip-rule:evenodd"/></clipPath><clipPath id="clip-path-6" transform="translate(14.63 5)"><path d="M350,199.85a21.85,21.85,0,1,0-21.85,21.86A21.85,21.85,0,0,0,350,199.85" style="fill:none;clip-rule:evenodd"/></clipPath><clipPath id="clip-path-7" transform="translate(14.63 5)"><path d="M283.79,238.78c0,21.61-26.1,49.15-36.47,49.15s-36.46-27.54-36.46-49.15c0-8.24,16.32-17.46,36.46-17.46s36.47,9.22,36.47,17.46" style="fill:none;clip-rule:evenodd"/></clipPath><clipPath id="clip-path-8" transform="translate(14.63 5)"><path d="M247.32,268.08c-7.08,0-27-10.83-33.36-25.17,7.59,25.19,27.47,41.8,33.36,41.8s25.42-16.25,33.37-41.8c-6.32,14.34-26.28,25.17-33.37,25.17" style="fill:none;clip-rule:evenodd"/></clipPath><clipPath id="clip-path-9" transform="translate(14.63 5)"><path d="M245,521c69.31,0,125.5-8.28,125.5-18.5S314.26,484,245,484s-125.5,8.28-125.5,18.5S175.64,521,245,521Z" style="fill:none;clip-rule:evenodd"/></clipPath><clipPath id="clip-path-10" transform="translate(14.63 5)"><path d="M204.45,53Q237.53-1.73,253.72.06c16.19,1.8-18.43,34.78-12.41,40.46s30.37-21.24,40.47-14q10.11,7.24-18,26.47Z" style="fill:none;clip-rule:evenodd"/></clipPath><clipPath id="clip-path-11" transform="translate(14.63 5)"><path d="M177,477h46a12.5,12.5,0,1,1,0,25H177a12.5,12.5,0,0,1,0-25Z" style="fill:none;clip-rule:evenodd"/></clipPath><clipPath id="clip-path-12" transform="translate(14.63 5)"><path d="M266,477h46a12.5,12.5,0,1,1,0,25H266a12.5,12.5,0,0,1,0-25Z" style="fill:none;clip-rule:evenodd"/></clipPath><clipPath id="clip-path-13" transform="translate(14.63 5)"><path d="M211,323a6.5,6.5,0,0,1,6.5,6.5v25a6.5,6.5,0,0,1-13,0v-25A6.5,6.5,0,0,1,211,323Z" style="fill:none;clip-rule:evenodd"/></clipPath><clipPath id="clip-path-14" transform="translate(14.63 5)"><path d="M244,336a6.5,6.5,0,0,1,6.5,6.5v25a6.5,6.5,0,0,1-13,0v-25A6.5,6.5,0,0,1,244,336Z" style="fill:none;clip-rule:evenodd"/></clipPath><clipPath id="clip-path-15" transform="translate(14.63 5)"><path d="M278,323a6.5,6.5,0,0,1,6.5,6.5v25a6.5,6.5,0,0,1-13,0v-25A6.5,6.5,0,0,1,278,323Z" style="fill:none;clip-rule:evenodd"/></clipPath><clipPath id="clip-path-16" transform="translate(14.63 5)"><path d="M117.45,108.35q9.64-19.93,11.13-25.43c5.47-20.11,12.55-56,35.7-59.63,25.32-4-1.92,34.13-5.68,42.75q-1.74,4-4.64,12.17l-36.51,30.14Z" style="fill:none;clip-rule:evenodd"/></clipPath><clipPath id="clip-path-17" transform="translate(14.63 5)"><path d="M337.59,72.7q-27.76-35.51-7.1-44.62c15.25-6.72,19.78,13.74,28.71,44.62q2.93,10.11,12.23,30.3L337.59,72.7Z" style="fill:none;clip-rule:evenodd"/></clipPath></defs><title>happy_1</title><g id="Layer_2" data-name="Layer 2"><g id="Layer_1-2" data-name="Layer 1"><g style="clip-path:url(#clip-path)"><rect x="300.35" y="232.12" width="219.14" height="122.9" transform="translate(-14.75 546.02) rotate(-65)" style="fill:#8453b7"/></g><g style="clip-path:url(#clip-path-2)"><rect x="25.92" y="184" width="122.9" height="219.14" transform="matrix(0.91, -0.42, 0.42, 0.91, -101.25, 69.43)" style="fill:#8453b7"/></g><g style="clip-path:url(#clip-path-3)"><rect x="86.24" y="45.43" width="352.04" height="421.72" style="fill:#b079ec"/></g><g style="clip-path:url(#clip-path-4)"><rect x="115.95" y="75.14" width="292.62" height="237.96" style="fill:#ead9ff"/></g><g style="clip-path:url(#clip-path-5)"><rect x="155.09" y="178" width="53.69" height="53.71" style="fill:#2f2272"/></g><g style="clip-path:url(#clip-path-6)"><rect x="315.95" y="178" width="53.69" height="53.71" style="fill:#2f2272"/></g><g style="clip-path:url(#clip-path-7)"><rect x="220.49" y="221.32" width="82.94" height="76.61" style="fill:#f4911a"/></g><g style="clip-path:url(#clip-path-8)"><rect x="223.59" y="242.91" width="76.72" height="51.79" style="fill:#a06001"/></g><g style="clip-path:url(#clip-path-9)"><rect x="129.08" y="484" width="261" height="47" style="fill:#dcdcdc"/></g><g style="clip-path:url(#clip-path-10)"><rect x="214.08" width="90" height="63" style="fill:#b079ec"/></g><g style="clip-path:url(#clip-path-11)"><rect x="174.08" y="477" width="81" height="35" style="fill:#fab60a"/></g><g style="clip-path:url(#clip-path-12)"><rect x="263.08" y="477" width="81" height="35" style="fill:#fab60a"/></g><g style="clip-path:url(#clip-path-13)"><rect x="214.08" y="323" width="23" height="48" style="fill:#8453b7"/></g><g style="clip-path:url(#clip-path-14)"><rect x="247.08" y="336" width="23" height="48" style="fill:#8453b7"/></g><g style="clip-path:url(#clip-path-15)"><rect x="281.08" y="323" width="23" height="48" style="fill:#8453b7"/></g><g style="clip-path:url(#clip-path-16)"><rect x="127.08" y="23" width="67.49" height="95.35" style="fill:#b079ec"/></g><g style="clip-path:url(#clip-path-17)"><rect x="331.3" y="26.8" width="59.76" height="86.2" style="fill:#b079ec"/></g></g></g></svg>