<svg xmlns="http://www.w3.org/2000/svg" xmlns:xlink="http://www.w3.org/1999/xlink" viewBox="0 0 402.25 531"><defs><clipPath id="clip-path" transform="translate(5 4.4)"><path d="M24.83,214.77a171,171,0,0,1,342,0v98.46c0,94.45-61.22,142.25-171,142.25s-171-47.8-171-142.25V214.77Z" style="fill:none;clip-rule:evenodd"/></clipPath><clipPath id="clip-path-2" transform="translate(5 4.4)"><path d="M25.1,483.24c50.21-25.36,87.8-62.44,87.8-113.75S69.22,276.6,25.1,276.6q-50.2,232,0,206.64Z" style="fill:none;clip-rule:evenodd"/></clipPath><clipPath id="clip-path-3" transform="translate(5 4.4)"><path d="M367.14,483.24c-50.2-25.36-87.79-62.44-87.79-113.75S323,276.6,367.14,276.6q50.21,232,0,206.64Z" style="fill:none;clip-rule:evenodd"/></clipPath><clipPath id="clip-path-4" transform="translate(5 4.4)"><path d="M196.31,300.56C116.68,300.56,55,277.24,55,205.28c0-43.82,23.94-82.47,58.73-107.78,9-6.52,3.72,12.81,9.84,9.83,6.58-3.21,14.25-23.48,28.31-28.1a142.48,142.48,0,0,1,44.43-6.63c79.63,0,141.31,60.72,141.31,132.68s-61.68,95.28-141.31,95.28Z" style="fill:none;clip-rule:evenodd"/></clipPath><clipPath id="clip-path-5" transform="translate(5 4.4)"><path d="M136.11,197.45a21.85,21.85,0,1,0-21.85,21.85,21.85,21.85,0,0,0,21.85-21.85" style="fill:none;clip-rule:evenodd"/></clipPath><clipPath id="clip-path-6" transform="translate(5 4.4)"><path d="M297,197.45a21.85,21.85,0,1,0-21.85,21.85A21.85,21.85,0,0,0,297,197.45" style="fill:none;clip-rule:evenodd"/></clipPath><clipPath id="clip-path-7" transform="translate(5 4.4)"><path d="M158.22,248.59c0-13,26.11-33,36.47-33s36.47,20,36.47,33c0,8.23-16.32,1.3-36.47,1.3s-36.47,6.93-36.47-1.3" style="fill:none;clip-rule:evenodd"/></clipPath><clipPath id="clip-path-8" transform="translate(5 4.4)"><path d="M194.69,235.45c3.29,0,30.84,3.29,33.36,9-3.69-12.27-31.35-25.64-33.36-25.64s-29.43,13-33.36,25.64c2.52-5.72,30.08-9,33.36-9" style="fill:none;clip-rule:evenodd"/></clipPath><clipPath id="clip-path-9" transform="translate(5 4.4)"><path d="M197.5,521.6c69.31,0,125.5-8.28,125.5-18.5s-56.19-18.5-125.5-18.5S72,492.88,72,503.1s56.19,18.5,125.5,18.5Z" style="fill:none;clip-rule:evenodd"/></clipPath><clipPath id="clip-path-10" transform="translate(5 4.4)"><path d="M170,53.6Q203.08-1.13,219.26.66c16.2,1.8-18.42,34.78-12.4,40.46s30.36-21.24,40.47-14q10.09,7.25-18,26.47Z" style="fill:none;clip-rule:evenodd"/></clipPath><clipPath id="clip-path-11" transform="translate(5 4.4)"><path d="M129.5,477.6h46a12.5,12.5,0,0,1,0,25h-46a12.5,12.5,0,0,1,0-25Z" style="fill:none;clip-rule:evenodd"/></clipPath><clipPath id="clip-path-12" transform="translate(5 4.4)"><path d="M218.5,477.6h46a12.5,12.5,0,0,1,0,25h-46a12.5,12.5,0,0,1,0-25Z" style="fill:none;clip-rule:evenodd"/></clipPath><clipPath id="clip-path-13" transform="translate(5 4.4)"><path d="M163.5,323.6a6.5,6.5,0,0,1,6.5,6.5v25a6.5,6.5,0,0,1-13,0v-25a6.5,6.5,0,0,1,6.5-6.5Z" style="fill:none;clip-rule:evenodd"/></clipPath><clipPath id="clip-path-14" transform="translate(5 4.4)"><path d="M196.5,336.6a6.5,6.5,0,0,1,6.5,6.5v25a6.5,6.5,0,0,1-13,0v-25a6.5,6.5,0,0,1,6.5-6.5Z" style="fill:none;clip-rule:evenodd"/></clipPath><clipPath id="clip-path-15" transform="translate(5 4.4)"><path d="M230.5,323.6a6.5,6.5,0,0,1,6.5,6.5v25a6.5,6.5,0,0,1-13,0v-25a6.5,6.5,0,0,1,6.5-6.5Z" style="fill:none;clip-rule:evenodd"/></clipPath><clipPath id="clip-path-16" transform="translate(5 4.4)"><path d="M69,108Q78.63,88,80.13,82.52c5.47-20.11,12.54-56,35.69-59.63,25.33-4-1.91,34.13-5.67,42.75q-1.75,4-4.64,12.17L69,108Z" style="fill:none;clip-rule:evenodd"/></clipPath><clipPath id="clip-path-17" transform="translate(5 4.4)"><path d="M289.14,72.3Q261.38,36.8,282,27.68C297.29,21,301.81,41.42,310.74,72.3q2.92,10.11,12.24,30.3L289.14,72.3Z" style="fill:none;clip-rule:evenodd"/></clipPath></defs><title>question</title><g id="Layer_2" data-name="Layer 2"><g id="Layer_1-2" data-name="Layer 1"><g style="clip-path:url(#clip-path)"><rect x="24.83" y="43.15" width="352.04" height="421.72" style="fill:#b079ec"/></g><g style="clip-path:url(#clip-path-2)"><rect y="276" width="122.9" height="219.14" style="fill:#8453b7"/></g><g style="clip-path:url(#clip-path-3)"><rect x="279.35" y="276" width="122.9" height="219.14" style="fill:#8453b7"/></g><g style="clip-path:url(#clip-path-4)"><rect x="55" y="72" width="292.62" height="237.96" style="fill:#ead9ff"/></g><g style="clip-path:url(#clip-path-5)"><rect x="92.42" y="175" width="53.69" height="53.7" style="fill:#2f2272"/></g><g style="clip-path:url(#clip-path-6)"><rect x="253.28" y="175" width="53.69" height="53.7" style="fill:#2f2272"/></g><g style="clip-path:url(#clip-path-7)"><rect x="158.22" y="214.99" width="82.94" height="47.03" style="fill:#f4911a"/></g><g style="clip-path:url(#clip-path-8)"><rect x="161.33" y="218.21" width="76.72" height="35.64" style="fill:#a06001"/></g><g style="clip-path:url(#clip-path-9)"><rect x="72" y="484" width="261" height="47" style="fill:#dcdcdc"/></g><g style="clip-path:url(#clip-path-10)"><rect x="170" width="90" height="63" style="fill:#b079ec"/></g><g style="clip-path:url(#clip-path-11)"><rect x="117" y="477" width="81" height="35" style="fill:#fab60a"/></g><g style="clip-path:url(#clip-path-12)"><rect x="206" y="477" width="81" height="35" style="fill:#fab60a"/></g><g style="clip-path:url(#clip-path-13)"><rect x="157" y="323" width="23" height="48" style="fill:#8453b7"/></g><g style="clip-path:url(#clip-path-14)"><rect x="190" y="336" width="23" height="48" style="fill:#8453b7"/></g><g style="clip-path:url(#clip-path-15)"><rect x="224" y="323" width="23" height="48" style="fill:#8453b7"/></g><g style="clip-path:url(#clip-path-16)"><rect x="69" y="22" width="67.49" height="95.35" style="fill:#b079ec"/></g><g style="clip-path:url(#clip-path-17)"><rect x="273.22" y="25.8" width="59.76" height="86.2" style="fill:#b079ec"/></g><text transform="translate(157.33 173)" style="font-size:200px;fill:#00bcd4;font-family:LotaGrotesque-SemiBold, Lota Grotesque;font-weight:600">?</text></g></g></svg>