<svg xmlns="http://www.w3.org/2000/svg" xmlns:xlink="http://www.w3.org/1999/xlink" viewBox="0 0 402.25 531"><defs><clipPath id="clip-path" transform="translate(5 5)"><path d="M25.16,212.52a171,171,0,0,1,342,0V311c0,94.45-61.23,142.25-171,142.25s-171-47.8-171-142.25V212.52Z" style="fill:none;clip-rule:evenodd"/></clipPath><clipPath id="clip-path-2" transform="translate(5 5)"><path d="M25.1,476.64c50.21-25.37,87.8-62.44,87.8-113.75S69.22,270,25.1,270q-50.2,232,0,206.64Z" style="fill:none;clip-rule:evenodd"/></clipPath><clipPath id="clip-path-3" transform="translate(5 5)"><path d="M367.14,476.64c-50.2-25.37-87.79-62.44-87.79-113.75S323,270,367.14,270q50.21,232,0,206.64Z" style="fill:none;clip-rule:evenodd"/></clipPath><clipPath id="clip-path-4" transform="translate(5 5)"><path d="M196.18,294c-79.63,0-141.31-23.33-141.31-95.28,0-43.82,23.94-82.47,58.73-107.78,9-6.52,3.72,12.81,9.84,9.83,6.58-3.21,14.25-23.49,28.31-28.1A142.48,142.48,0,0,1,196.18,66c79.63,0,141.31,60.72,141.31,132.68S275.81,294,196.18,294Z" style="fill:none;clip-rule:evenodd"/></clipPath><clipPath id="clip-path-5" transform="translate(5 5)"><path d="M137.76,198.3a21.84,21.84,0,1,0-21.84,21.86,21.84,21.84,0,0,0,21.84-21.86" style="fill:none;clip-rule:evenodd"/></clipPath><clipPath id="clip-path-6" transform="translate(5 5)"><path d="M298.63,198.3a21.85,21.85,0,1,0-21.85,21.86,21.85,21.85,0,0,0,21.85-21.86" style="fill:none;clip-rule:evenodd"/></clipPath><clipPath id="clip-path-7" transform="translate(5 5)"><path d="M137.63,190.88H94.22a9.44,9.44,0,1,1,0-18.88h43.41a9.44,9.44,0,0,1,0,18.88" style="fill:none;clip-rule:evenodd"/></clipPath><clipPath id="clip-path-8" transform="translate(5 5)"><path d="M298.49,190.88H255.08a9.44,9.44,0,0,1,0-18.88h43.41a9.44,9.44,0,0,1,0,18.88" style="fill:none;clip-rule:evenodd"/></clipPath><clipPath id="clip-path-9" transform="translate(5 5)"><path d="M232.34,236.52c0,21.6-26.11,49.15-36.47,49.15s-36.46-27.55-36.46-49.15c0-8.24,16.32-17.46,36.46-17.46s36.47,9.22,36.47,17.46" style="fill:none;clip-rule:evenodd"/></clipPath><clipPath id="clip-path-10" transform="translate(5 5)"><path d="M195.87,265.81c-7.08,0-27-10.82-33.36-25.16,7.59,25.18,27.46,41.79,33.36,41.79s25.42-16.24,33.36-41.79C222.92,255,203,265.81,195.87,265.81" style="fill:none;clip-rule:evenodd"/></clipPath><clipPath id="clip-path-11" transform="translate(5 5)"><path d="M193.5,521c69.31,0,125.5-8.28,125.5-18.5S262.81,484,193.5,484,68,492.28,68,502.5,124.19,521,193.5,521Z" style="fill:none;clip-rule:evenodd"/></clipPath><clipPath id="clip-path-12" transform="translate(5 5)"><path d="M153,53Q186.08-1.73,202.26.06c16.2,1.8-18.42,34.78-12.4,40.46s30.36-21.24,40.47-14q10.09,7.24-18,26.47Z" style="fill:none;clip-rule:evenodd"/></clipPath><clipPath id="clip-path-13" transform="translate(5 5)"><path d="M125.5,477h46a12.5,12.5,0,0,1,0,25h-46a12.5,12.5,0,0,1,0-25Z" style="fill:none;clip-rule:evenodd"/></clipPath><clipPath id="clip-path-14" transform="translate(5 5)"><path d="M214.5,477h46a12.5,12.5,0,0,1,0,25h-46a12.5,12.5,0,0,1,0-25Z" style="fill:none;clip-rule:evenodd"/></clipPath><clipPath id="clip-path-15" transform="translate(5 5)"><path d="M159.5,323a6.5,6.5,0,0,1,6.5,6.5v25a6.5,6.5,0,0,1-13,0v-25a6.5,6.5,0,0,1,6.5-6.5Z" style="fill:none;clip-rule:evenodd"/></clipPath><clipPath id="clip-path-16" transform="translate(5 5)"><path d="M192.5,336a6.5,6.5,0,0,1,6.5,6.5v25a6.5,6.5,0,0,1-13,0v-25a6.5,6.5,0,0,1,6.5-6.5Z" style="fill:none;clip-rule:evenodd"/></clipPath><clipPath id="clip-path-17" transform="translate(5 5)"><path d="M226.5,323a6.5,6.5,0,0,1,6.5,6.5v25a6.5,6.5,0,0,1-13,0v-25a6.5,6.5,0,0,1,6.5-6.5Z" style="fill:none;clip-rule:evenodd"/></clipPath><clipPath id="clip-path-18" transform="translate(5 5)"><path d="M66,107.35q9.63-19.93,11.13-25.43c5.47-20.11,12.54-56,35.69-59.63,25.33-4-1.91,34.13-5.67,42.75q-1.75,4-4.64,12.17L66,107.35Z" style="fill:none;clip-rule:evenodd"/></clipPath><clipPath id="clip-path-19" transform="translate(5 5)"><path d="M286.14,71.7Q258.38,36.2,279,27.08c15.26-6.72,19.78,13.74,28.71,44.62Q310.66,81.81,320,102L286.14,71.7Z" style="fill:none;clip-rule:evenodd"/></clipPath></defs><title>skeptic</title><g id="Layer_2" data-name="Layer 2"><g id="Layer_1-2" data-name="Layer 1"><g style="clip-path:url(#clip-path)"><rect x="25.16" y="41.51" width="352.04" height="421.72" style="fill:#b079ec"/></g><g style="clip-path:url(#clip-path-2)"><rect y="270" width="122.9" height="219.14" style="fill:#8453b7"/></g><g style="clip-path:url(#clip-path-3)"><rect x="279.35" y="270" width="122.9" height="219.14" style="fill:#8453b7"/></g><g style="clip-path:url(#clip-path-4)"><rect x="54.87" y="66" width="292.62" height="237.96" style="fill:#ead9ff"/></g><g style="clip-path:url(#clip-path-5)"><rect x="94.08" y="176.45" width="53.69" height="53.71" style="fill:#2f2272"/></g><g style="clip-path:url(#clip-path-6)"><rect x="254.94" y="176.45" width="53.69" height="53.71" style="fill:#2f2272"/></g><g style="clip-path:url(#clip-path-7)"><rect x="84.78" y="172" width="72.28" height="28.88" style="fill:#2f2272"/></g><g style="clip-path:url(#clip-path-8)"><rect x="245.65" y="172" width="72.28" height="28.88" style="fill:#2f2272"/></g><g style="clip-path:url(#clip-path-9)"><rect x="159.41" y="219.06" width="82.94" height="76.61" style="fill:#f4911a"/></g><g style="clip-path:url(#clip-path-10)"><rect x="162.51" y="240.65" width="76.72" height="51.79" style="fill:#a06001"/></g><g style="clip-path:url(#clip-path-11)"><rect x="68" y="484" width="261" height="47" style="fill:#dcdcdc"/></g><g style="clip-path:url(#clip-path-12)"><rect x="153" width="90" height="63" style="fill:#b079ec"/></g><g style="clip-path:url(#clip-path-13)"><rect x="113" y="477" width="81" height="35" style="fill:#fab60a"/></g><g style="clip-path:url(#clip-path-14)"><rect x="202" y="477" width="81" height="35" style="fill:#fab60a"/></g><g style="clip-path:url(#clip-path-15)"><rect x="153" y="323" width="23" height="48" style="fill:#8453b7"/></g><g style="clip-path:url(#clip-path-16)"><rect x="186" y="336" width="23" height="48" style="fill:#8453b7"/></g><g style="clip-path:url(#clip-path-17)"><rect x="220" y="323" width="23" height="48" style="fill:#8453b7"/></g><g style="clip-path:url(#clip-path-18)"><rect x="66" y="22" width="67.49" height="95.35" style="fill:#b079ec"/></g><g style="clip-path:url(#clip-path-19)"><rect x="270.22" y="25.8" width="59.76" height="86.2" style="fill:#b079ec"/></g></g></g></svg>