<svg xmlns="http://www.w3.org/2000/svg" xmlns:xlink="http://www.w3.org/1999/xlink" viewBox="0 0 402.25 535.02"><defs><clipPath id="clip-path" transform="translate(5)"><path d="M25.5,221.54a171,171,0,0,1,342,0V320c0,94.45-61.22,142.24-171,142.24S25.5,414.45,25.5,320V221.54Z" style="fill:none;clip-rule:evenodd"/></clipPath><clipPath id="clip-path-2" transform="translate(5)"><path d="M25.1,485.66c50.21-25.37,87.8-62.44,87.8-113.75S69.22,279,25.1,279q-50.2,232,0,206.64Z" style="fill:none;clip-rule:evenodd"/></clipPath><clipPath id="clip-path-3" transform="translate(5)"><path d="M367.14,485.66c-50.2-25.37-87.79-62.44-87.79-113.75S323,279,367.14,279q50.21,232,0,206.64Z" style="fill:none;clip-rule:evenodd"/></clipPath><clipPath id="clip-path-4" transform="translate(5)"><path d="M196.31,303C116.68,303,55,279.65,55,207.7c0-43.82,23.94-82.47,58.73-107.78,9-6.53,3.72,12.81,9.84,9.83,6.58-3.21,14.25-23.49,28.31-28.11A142.77,142.77,0,0,1,196.31,75c79.63,0,141.31,60.72,141.31,132.68S275.94,303,196.31,303Z" style="fill:none;clip-rule:evenodd"/></clipPath><clipPath id="clip-path-5" transform="translate(5)"><path d="M133.85,211.9H96.42a9.44,9.44,0,0,1,0-18.88h37.43a9.44,9.44,0,0,1,0,18.88" style="fill:none;clip-rule:evenodd"/></clipPath><clipPath id="clip-path-6" transform="translate(5)"><path d="M294.73,211.9H257.3a9.44,9.44,0,0,1,0-18.88h37.43a9.44,9.44,0,0,1,0,18.88" style="fill:none;clip-rule:evenodd"/></clipPath><clipPath id="clip-path-7" transform="translate(5)"><path d="M232.74,245.53c0,21.61-26.1,49.16-36.47,49.16s-36.46-27.55-36.46-49.16c0-8.23,16.32-17.45,36.46-17.45s36.47,9.22,36.47,17.45" style="fill:none;clip-rule:evenodd"/></clipPath><clipPath id="clip-path-8" transform="translate(5)"><path d="M196.28,274.83c-7.09,0-27-10.82-33.37-25.16,7.59,25.18,27.47,41.79,33.37,41.79s25.41-16.25,33.36-41.79c-6.32,14.34-26.28,25.16-33.36,25.16" style="fill:none;clip-rule:evenodd"/></clipPath><clipPath id="clip-path-9" transform="translate(5)"><path d="M197.5,530c69.31,0,125.5-8.29,125.5-18.5S266.81,493,197.5,493,72,501.3,72,511.52,128.19,530,197.5,530Z" style="fill:none;clip-rule:evenodd"/></clipPath><clipPath id="clip-path-10" transform="translate(5)"><path d="M166,62Q199.08,7.27,215.26,9.07c16.2,1.8-18.42,34.79-12.4,40.47s30.36-21.24,40.47-14q10.09,7.25-18,26.47Z" style="fill:none;clip-rule:evenodd"/></clipPath><clipPath id="clip-path-11" transform="translate(5)"><path d="M129.5,486h46a12.5,12.5,0,0,1,0,25h-46a12.5,12.5,0,0,1,0-25Z" style="fill:none;clip-rule:evenodd"/></clipPath><clipPath id="clip-path-12" transform="translate(5)"><path d="M218.5,486h46a12.5,12.5,0,0,1,0,25h-46a12.5,12.5,0,0,1,0-25Z" style="fill:none;clip-rule:evenodd"/></clipPath><clipPath id="clip-path-13" transform="translate(5)"><path d="M163.5,332a6.5,6.5,0,0,1,6.5,6.5v25a6.5,6.5,0,0,1-13,0v-25a6.5,6.5,0,0,1,6.5-6.5Z" style="fill:none;clip-rule:evenodd"/></clipPath><clipPath id="clip-path-14" transform="translate(5)"><path d="M196.5,345a6.5,6.5,0,0,1,6.5,6.5v25a6.5,6.5,0,0,1-13,0v-25a6.5,6.5,0,0,1,6.5-6.5Z" style="fill:none;clip-rule:evenodd"/></clipPath><clipPath id="clip-path-15" transform="translate(5)"><path d="M230.5,332a6.5,6.5,0,0,1,6.5,6.5v25a6.5,6.5,0,0,1-13,0v-25a6.5,6.5,0,0,1,6.5-6.5Z" style="fill:none;clip-rule:evenodd"/></clipPath><clipPath id="clip-path-16" transform="translate(5)"><path d="M69,116.37q9.63-19.94,11.13-25.44c5.47-20.11,12.54-56,35.69-59.62,25.33-4-1.91,34.12-5.67,42.74q-1.75,4-4.64,12.18L69,116.37Z" style="fill:none;clip-rule:evenodd"/></clipPath><clipPath id="clip-path-17" transform="translate(5)"><path d="M289.14,80.72Q261.38,45.22,282,36.1c15.26-6.73,19.78,13.74,28.71,44.62Q313.66,90.83,323,111l-33.84-30.3Z" style="fill:none;clip-rule:evenodd"/></clipPath></defs><title>sleep</title><g id="Layer_2" data-name="Layer 2"><g id="Layer_1-2" data-name="Layer 1"><g style="clip-path:url(#clip-path)"><rect x="25.5" y="45.52" width="352.04" height="421.72" style="fill:#b079ec"/></g><g style="clip-path:url(#clip-path-2)"><rect y="274.02" width="122.9" height="219.14" style="fill:#8453b7"/></g><g style="clip-path:url(#clip-path-3)"><rect x="279.35" y="274.02" width="122.9" height="219.14" style="fill:#8453b7"/></g><g style="clip-path:url(#clip-path-4)"><rect x="55" y="70.02" width="292.62" height="237.96" style="fill:#ead9ff"/></g><g style="clip-path:url(#clip-path-5)"><rect x="86.98" y="188.02" width="66.31" height="28.88" style="fill:#2f2272"/></g><g style="clip-path:url(#clip-path-6)"><rect x="247.86" y="188.02" width="66.31" height="28.88" style="fill:#2f2272"/></g><g style="clip-path:url(#clip-path-7)"><rect x="159.81" y="223.08" width="82.94" height="76.61" style="fill:#f4911a"/></g><g style="clip-path:url(#clip-path-8)"><rect x="162.91" y="244.67" width="76.72" height="51.79" style="fill:#a06001"/></g><g style="clip-path:url(#clip-path-9)"><rect x="72" y="488.02" width="261" height="47" style="fill:#dcdcdc"/></g><g style="clip-path:url(#clip-path-10)"><rect x="166" y="4.02" width="90" height="63" style="fill:#b079ec"/></g><g style="clip-path:url(#clip-path-11)"><rect x="117" y="481.02" width="81" height="35" style="fill:#fab60a"/></g><g style="clip-path:url(#clip-path-12)"><rect x="206" y="481.02" width="81" height="35" style="fill:#fab60a"/></g><g style="clip-path:url(#clip-path-13)"><rect x="157" y="327.02" width="23" height="48" style="fill:#8453b7"/></g><g style="clip-path:url(#clip-path-14)"><rect x="190" y="340.02" width="23" height="48" style="fill:#8453b7"/></g><g style="clip-path:url(#clip-path-15)"><rect x="224" y="327.02" width="23" height="48" style="fill:#8453b7"/></g><text transform="translate(308.43 151.18) rotate(-21)" style="font-size:76.99998474121094px;fill:#00bcd4;font-family:LotaGrotesque-SemiBold, Lota Grotesque;font-weight:600">z</text><text transform="translate(339.56 92.78) rotate(-2)" style="font-size:108px;fill:#00bcd4;font-family:LotaGrotesque-SemiBold, Lota Grotesque;font-weight:600">z</text><g style="clip-path:url(#clip-path-16)"><rect x="69" y="26.02" width="67.49" height="95.35" style="fill:#b079ec"/></g><g style="clip-path:url(#clip-path-17)"><rect x="273.22" y="29.82" width="59.76" height="86.2" style="fill:#b079ec"/></g></g></g></svg>