<?xml version="1.0" encoding="utf-8"?>
<!-- Generator: Adobe Illustrator 24.0.0, SVG Export Plug-In . SVG Version: 6.00 Build 0)  -->
<svg version="1.1" id="Owl" xmlns="http://www.w3.org/2000/svg" xmlns:xlink="http://www.w3.org/1999/xlink" x="0px" y="0px"
	 viewBox="0 0 521.1 672.6" style="enable-background:new 0 0 521.1 672.6;" xml:space="preserve">
<style type="text/css">
	.st0{fill:#B079EC;}
	.st1{fill:#E6D7EB;}
	.st2{fill:#8453B7;}
	.st3{fill:#DCDCDC;}
	.st4{fill:#FAB60A;}
	.st5{fill:#2F2272;}
	.st6{fill:#F4911A;}
	.st7{fill:#FCD68B;}
	.st8{fill:#DEDFDC;stroke:#DEDFDC;stroke-miterlimit:10;}
	.st9{fill:#F3E600;}
	.st10{fill:#77549F;}
	.st11{fill:#5D4680;}
	.st12{clip-path:url(#SVGID_5_);}
	.st13{clip-path:url(#SVGID_10_);}
	.st14{clip-path:url(#SVGID_11_);}
	.st15{clip-path:url(#SVGID_12_);}
	.st16{fill:#313662;}
	.st17{clip-path:url(#SVGID_17_);}
	.st18{clip-path:url(#SVGID_18_);}
</style>
<title>Owl_Spork</title>
<path class="st0" d="M83.8,136.1c-36.5,65.7-44.7,143.3-22.7,215.2c6.3,33.4,17.7,65.6,33.8,95.4c16.2,29.8,33.1,60.1,68.1,76.2
	c6.3,2.8,12.9,5.2,19.6,6.9c13,3.7,44.9,11,99.6,0.8c54.3-10.2,98.6-31.6,128-48.8c10.2-9.3,46.3-44.6,53.5-102.9
	c5.9-47.4-10.6-83.7-17.7-97.2c7.6-72.3-23.2-143.4-81.3-187.2c-42.7-28-93.3-41.2-144.2-37.6C166.6,65.2,117.8,93.5,83.8,136.1z"/>
<path class="st1" d="M217.9,90.4c-14.5,2.3-55.3,10.9-90.7,46.2c-39.9,39.8-46.3,87.3-47.6,100.9c-4.6,33.7,5.2,55.4,10.3,64.7
	c25.2,45.6,88.8,63.7,162.9,51.8c0.8-0.1,1.6-0.3,2.4-0.4C341.1,344.2,402.6,295,409,241c1.3-11,1.5-32.4-14-59.8
	c-5.4-11.9-25.7-52.9-74-77.1C274.4,80.8,231,87.8,217.9,90.4z"/>
<g id="Capa_3">
	<path class="st2" d="M88.4,347.4c-8.8-4.3-19.4-0.7-23.7,8.1l0,0c-12.9,26.6-24.3,53.8-34.2,81.6C18.7,469.7,9,503,1.5,536.8
		c-0.1,0.4-0.3,2.6-0.4,3C-2.3,556.3,2.5,569,12.8,574c6.9,3.3,14.3,1.4,17.6,0.2c0.3-0.1,0.7-0.2,1-0.3c20.8-5.6,40.3-15,57.7-27.7
		c23.4-17.3,42.1-40.1,54.6-66.4c0.4-0.8,0.7-1.6,0.9-2.4c2.9-9.6,13.2-50.9-11.5-90.3C122.2,369.9,106.7,356.2,88.4,347.4z"/>
	<path class="st2" d="M517.1,276c-7.2,22.2-16,45.9-26.5,70.7c-11.5,27.2-24.5,53.7-38.9,79.5c-4.8,8.5-15.6,11.6-24.1,6.8h-0.1
		c-17.8-9.8-32.4-24.4-42.3-42.2c-22.5-40.8-9.7-81.4-6.3-90.8c0.3-0.8,0.6-1.6,1.1-2.4c13.9-25.6,34-47.3,58.3-63.2
		c14.8-9.6,31-16.9,48-21.6c-8.4,13.1-14.3,27.7-17.3,43c-1.3,6.7,0.2,13.7,4.3,19.2c7.2,9.5,20.2,9.3,22.1,9.2
		C503.4,283.5,510.8,280.7,517.1,276L517.1,276z"/>
	<path class="st2" d="M517.1,276c8.3-23.8,3.4-47-11-57.3c-3-2.2-9.4-5.8-19.6-6"/>
</g>
<ellipse class="st3" cx="273.5" cy="592.6" rx="145" ry="19.9"/>
<path class="st4" d="M193.6,563.6h58.6c7.3,0,13.2,5.9,13.2,13.2l0,0c0,7.3-5.9,13.2-13.2,13.2h-58.6c-7.3,0-13.2-5.9-13.2-13.2l0,0
	C180.4,569.5,186.3,563.6,193.6,563.6z"/>
<path class="st2" d="M232.1,387.7l4.6,28.3c0.7,4.4-2.3,8.5-6.7,9.3l0,0c-4.4,0.7-8.5-2.3-9.3-6.7l-4.6-28.3
	c-0.7-4.4,2.3-8.5,6.7-9.3l0,0C227.3,380.3,231.4,383.3,232.1,387.7z"/>
<path class="st2" d="M275.4,397l4.6,28.2c0.7,4.4-2.2,8.5-6.6,9.3l0,0c-4.4,0.7-8.5-2.2-9.3-6.6l-4.6-28.2c-0.7-4.4,2.2-8.5,6.6-9.3
	l0,0C270.5,389.6,274.6,392.6,275.4,397z"/>
<path class="st2" d="M312.8,376.7l4.6,28.2c0.7,4.4-2.2,8.5-6.6,9.3l0,0c-4.4,0.7-8.5-2.2-9.3-6.6l-4.6-28.2
	c-0.7-4.4,2.2-8.5,6.6-9.3l0,0C307.9,369.4,312.1,372.3,312.8,376.7z"/>
<circle class="st5" cx="334" cy="221.2" r="25.3"/>
<path class="st6" d="M205.2,288.3c-1.5-4-0.5-8.5,2.6-11.5c19.6-19.6,49.5-24.3,74.2-11.7c3.3,1.7,5.6,4.9,6,8.6
	c0.9,9.7-0.4,19.5-3.9,28.6c-4.6,11.7-12.4,21.8-22.6,29.1c-3.1,2.2-7.1,2.8-10.7,1.5c-11.5-4.1-21.9-10.9-30.3-19.8
	C213.8,305.9,208.6,297.5,205.2,288.3z"/>
<path class="st0" d="M129.9,127.7c4.5,1.9,7.7,6,8.5,10.8c0.1,1.3,0.8,2.4,1.9,3.1c1.7,0.9,4.3,0,5.6-2.4
	c5.8-12.5,13.1-24.2,21.6-35"/>
<path class="st5" d="M116.8,251.5c0.2-1.4,0.9-2.6,2-3.4c8.1-6.3,17.5-10.7,27.6-12.6l0.4-0.1c10-1.2,20,0.4,29.1,4.5
	c0.8,0.3,1.5,0.9,2,1.5c3.8,4.3,3.4,10.8-0.8,14.6c-0.2,0.2-0.4,0.3-0.5,0.5c-1.2,1-2.8,1.4-4.4,1.1c-7.7-1.4-15.5-1.6-23.3-0.7
	c-3.9,0.6-7.8,1.7-11.5,3.2c-2.8,1.1-5.4,2.4-8,3.9c-1.2,0.7-2.6,0.9-3.9,0.6c-6-1.1-9.9-6.9-8.8-12.9
	C116.8,251.6,116.8,251.5,116.8,251.5L116.8,251.5z"/>
<path class="st0" d="M85.7,136.2l9-55.7c2.5-14.3,10.9-26.8,23.2-34.5c4.2-3.2,10.2-2.4,13.4,1.9c1.8,2.4,2.4,5.6,1.6,8.5L123.6,85
	l-5.9,21.3"/>
<path class="st0" d="M184.9,74.4c9.2-26,23.3-50.1,41.4-70.9c3-3.7,7.6-4.4,10.3-2.5c0.8,0.6,1.4,1.4,1.8,2.3c0.6,1.4,0.7,3,0.4,4.5
	c-0.6,3-1.4,6-2.3,9.2c-2.5,8.7-5.9,17-10.1,25c-1.4,2.2-0.8,5.1,1.4,6.6c2,1.3,4.7,0.9,6.2-1c0.3-0.3,0.6-0.6,0.9-0.9l26.9-19.9
	c1.2-0.9,2.5-1.4,4-1.5c2.8-0.2,5.6,1,7.4,3.2c1.1,1.6,1.7,3.5,1.5,5.4c-0.1,1.1-0.4,2.2-0.9,3.2c-4.8,8.7-11.3,16.4-19,22.7"/>
<path class="st0" d="M339,87.7c-11.2-9.4-20.4-20.9-27.2-33.8c-2.6-4.9-4.8-10.1-6.6-15.3c-1.7-4.8-0.6-10.2,2.9-14
	c0.4-0.4,0.9-0.9,1.4-1.3c0.2-0.2,0.5-0.4,0.8-0.6c5.6-3.9,13.2-3.1,17.9,1.8c8.2,8.3,14.4,18.4,18.1,29.5c1.6,4.8,3.6,9.4,6,13.8
	c7.4,13.5,14.8,27,22.2,40.5"/>
<path class="st4" d="M336.3,530.1c7.8,6.9,14.7,15.1,23.5,20.7c0.9,0.7,1.9,1.2,2.9,1.7c3.9,1.7,9.6,2.3,16.5,0.8
	c6-1.3,11.4-4.3,15.8-8.6c0.4-0.4,0.7-0.8,1-1.2c6.6-8.6,12-17.9,17.9-26.9c0.3-0.4,0.4-1,0.8-1.4c3.3-4.1,2.9-11.7,0.6-15.4
	c-1.4-2.3-4.5-4.1-6.8-4c-3.7,0.1-7.2,2.1-9,5.4l-2.1,4.1c-0.9,2.1-2.9,3.6-5.2,3.8c-1.1,0.1-2.3-0.2-3.3-0.7
	c-1.2-0.7-2.3-1.7-3-2.9c-0.2-0.4-0.5-0.8-0.6-1.2l-8.3-18.5c-0.7-1.7-1.8-3.1-3.3-4.1c-2.2-1.6-4.8-2.3-7.5-2
	c-2.6,0.4-4.9,1.8-6.4,3.8c-1.1,1.6-1.7,3.4-1.7,5.4c-0.1,4.5-0.2,9-0.2,13.5c0,0.5,0,1,0.1,1.5c0.4,2.4-0.1,4.9-1.3,7
	c-1,1.7-2.7,2.9-4.6,3.3c-1.5,0.3-3,0.1-4.4-0.7l-5.7-2.9c-2.7-1.5-6.1-0.8-8.1,1.6c-1.7,2.2-2.6,4.9-2.5,7.7
	C331.6,523.8,333.4,527.4,336.3,530.1z"/>
<circle class="st7" cx="374.2" cy="523.8" r="11.9"/>
<path class="st8" d="M474.7,191.8l1.8,126.8c0.8,3.7,4.5,6,8.2,5.1c2.8-0.7,4.9-3,5.2-5.9L487.1,191c9-4.9,15.5-13.4,17.9-23.4
	c3.1-11.4,3.5-23.4,1.3-35.1c-0.9-4.9-2.4-9.6-4.6-14c-1.5-3-3.3-5.9-5.5-8.6c-0.2-0.2-0.6-0.2-0.8,0c-0.1,0.1-0.2,0.2-0.2,0.4
	c0,3.7-0.7,7.3-2,10.7c-0.1,0.3-0.5,0.5-0.8,0.4c-0.2-0.1-0.3-0.2-0.4-0.4l-5.2-16.5c0-0.2-0.2-0.3-0.4-0.2c-0.1,0-0.2,0.1-0.2,0.2
	l-4.4,17.1c-0.1,0.3-0.3,0.4-0.6,0.3c-0.2,0-0.3-0.2-0.3-0.3l-5-16.8c-0.1-0.4-0.5-0.6-0.8-0.5c-0.2,0.1-0.4,0.2-0.5,0.5l-5,16
	c-0.1,0.4-0.5,0.6-0.9,0.5c-0.2-0.1-0.4-0.2-0.4-0.4c-0.6-1.4-1.1-2.8-1.5-4.3c-0.5-1.9-0.8-3.9-0.9-5.9c0-0.3-0.3-0.5-0.6-0.5
	c-0.2,0-0.3,0.1-0.4,0.3c-3.5,5.4-6.4,11.2-8.5,17.2c-0.5,1.3-0.8,2.7-1,4.1c-1.6,11.1-1.2,22.4,1.2,33.4
	C458.9,176.2,465.4,185.7,474.7,191.8L474.7,191.8z"/>
<path class="st9" d="M102.2,245.1l-9.4,1.6c-1.1,0.2-2.1,0.9-2.6,2l-4.1,8.6c-0.8,1.8-2.9,2.5-4.7,1.7c-0.7-0.3-1.3-0.9-1.6-1.5
	l-4.3-8.4c-0.5-1-1.5-1.7-2.7-1.8l-9.4-1.1c-1.9-0.2-3.2-2-3-3.9c0.1-0.8,0.4-1.5,1-2l6.7-6.8c0.8-0.8,1.2-2,1-3.1l-1.8-9.3
	c-0.3-1.9,1-3.8,2.9-4.1c0.7-0.1,1.5,0,2.1,0.3l8.4,4.2c1,0.5,2.3,0.5,3.3-0.1l8.3-4.6c1.7-0.9,3.8-0.4,4.7,1.3
	c0.4,0.7,0.5,1.5,0.4,2.2l-1.5,9.4c-0.2,1.1,0.2,2.3,1.1,3.1l6.9,6.4c1.4,1.3,1.4,3.6,0.1,4.9C103.6,244.6,102.9,245,102.2,245.1z"
	/>
<path class="st10" d="M471.2,261c3.2,0,3.2-5,0-5S467.9,261,471.2,261z"/>
<path class="st10" d="M488.1,217.8c3.2,0,3.2-5,0-5S484.9,217.8,488.1,217.8z"/>
<path class="st2" d="M516.5,268.1c-1.2-4.2-2.8-8.3-4.7-12.2c-1.6-3.5-3.2-6.9-4.7-10.4c-2.2-4.9-3.8-10.1-4.7-15.4
	c-0.3-2.5-3-4.6-5.2-5.2h-0.1c0.1-1.5-0.3-3-1-4.3c-2.1-3.6-6.6-4.8-10.1-2.7c-1.4,0.8-2.5,2.1-3.1,3.5l0.2-0.4
	c-1.1,2.5-2.6,4.7-3.8,7.1c-1.5,3.1-2.8,6.2-4.1,9.4c-2.3,5.3-4.1,10.8-5.6,16.4c-1.7,6.9-1.2,14.2,3.8,19.7c2.4,2.6,5.8,4,9.1,4.9
	c3.3,0.8,6.6,1.4,10,1.8c3.3,0.4,6.6,0.6,9.9,0.5c2.4,0,4.8-0.6,7-1.7c0.8-0.5,1.6-1,2.4-1.7l0.3-0.2
	C515.5,275.7,517.4,271.8,516.5,268.1z"/>
<path class="st11" d="M512.5,274c-1.6,2.3-4.5,3.3-7.2,3.9c-3.4,0.8-7,1.2-10.5,1.3c-6.5,0.2-14.1-0.7-19.4-5s-5.2-10.9-4.6-16.9
	c0.8-7.2,2.6-14.2,5.4-20.9c1.5-3.6,3.2-7.1,5.2-10.5c1.9-3.1,4.1-6.1,7.2-8c2.8-1.6,0.2-6-2.5-4.3c-6.6,4-10.5,11.6-13.5,18.5
	c-3.3,7.6-5.6,15.5-6.7,23.7c-1,7.3-0.8,15.5,4.9,21.1s14.4,7.3,22,7.4c4.6,0,9.2-0.5,13.7-1.5c4-0.9,7.8-2.7,10.2-6.2
	C518.7,273.9,514.3,271.4,512.5,274L512.5,274z"/>
<g>
	<g>
		<defs>
			<rect id="SVGID_1_" x="162.2" y="623.3" width="212.2" height="48.9"/>
		</defs>
		<clipPath id="SVGID_2_">
			<use xlink:href="#SVGID_1_"  style="overflow:visible;"/>
		</clipPath>
	</g>
	<g>
		<defs>
			<rect id="SVGID_3_" x="162.2" y="623.3" width="212.2" height="48.9"/>
		</defs>
		<defs>
			<path id="SVGID_4_" d="M179.8,672.2c2.1,0,4.1-0.3,6.1-0.9c1.7-0.6,3.3-1.4,4.7-2.5c1.3-1,2.5-2.2,3.5-3.5c0.9-1.2,1.6-2.6,2-4.1
				l0,0l-10.7-0.7c-0.3,0.5-0.7,0.9-1.2,1.1c-0.5,0.4-1,0.7-1.6,0.9c-0.8,0.3-1.6,0.4-2.5,0.4c-1.7,0.1-3.4-0.5-4.7-1.6
				c-1.1-1-2-2.2-2.5-3.6H197c0-0.4,0.1-0.7,0.1-1.1s0.1-0.8,0.1-1.1s0.1-0.8,0.1-1.2c0-2.6-0.4-5.1-1.4-7.5
				c-0.9-2.1-2.1-4.1-3.6-5.9c-1.5-1.6-3.4-2.9-5.5-3.8c-4.4-1.8-9.3-1.7-13.7,0.1c-4.3,1.8-7.8,5.3-9.6,9.6
				c-1.9,4.6-1.9,9.8,0,14.5c0.9,2.2,2.2,4.2,3.9,5.9c1.6,1.6,3.5,3,5.6,3.9C175.1,671.8,177.4,672.3,179.8,672.2L179.8,672.2z
				 M187.4,650.8h-14.5c0.4-1.6,1.3-3,2.5-4c2.8-2.2,6.8-2.2,9.6,0C186.1,647.9,187,649.2,187.4,650.8z M208.6,671.5v-18.7
				c-0.1-1.9,0.5-3.9,1.7-5.4c2.6-2.5,6.7-2.5,9.4,0c1.3,1.5,1.9,3.4,1.7,5.4l0,0v18.7h10.4v-20.6c0-2.1-0.3-4.2-1-6.2
				c-0.6-1.8-1.6-3.4-2.9-4.7c-1.3-1.3-2.8-2.3-4.5-3c-1.8-0.7-3.8-1-5.7-1c-1.4,0-2.9,0.2-4.2,0.6c-1.1,0.3-2.2,0.8-3.2,1.2
				c-1,0.5-2,1.1-2.9,1.9l0,0l-1.5-3.5h-7.6v35.2L208.6,671.5z M250.7,672.2c2.4,0,4.8-0.5,7-1.4c2.1-0.9,4.1-2.2,5.7-3.9
				c1.7-1.7,3-3.7,3.9-5.9c1.9-4.6,1.9-9.8,0-14.5c-0.9-2.1-2.2-4.1-3.9-5.7c-7-7-18.4-7-25.4,0c-1.6,1.6-3,3.6-3.9,5.7
				c-1.9,4.6-1.9,9.8,0,14.5c0.9,2.2,2.2,4.2,3.9,5.9c1.6,1.6,3.6,3,5.7,3.9C246,671.7,248.4,672.2,250.7,672.2z M250.7,662.6
				c-2.1,0-4.1-0.9-5.5-2.4c-3-3.8-3-9.1,0-12.8c2.8-3,7.5-3.1,10.5-0.4l0.4,0.4c3,3.8,3,9.1,0,12.8
				C254.7,661.8,252.8,662.6,250.7,662.6z M286.4,672.2c2.4,0,4.8-0.5,7-1.4c2.1-0.9,4.1-2.2,5.7-3.9c1.7-1.7,3-3.7,3.9-5.9
				c1.9-4.6,1.9-9.8,0-14.5c-3.9-9.2-14.4-13.5-23.6-9.6c-2.2,0.9-4.1,2.2-5.8,3.9c-1.7,1.6-3,3.6-3.9,5.7c-1.9,4.6-1.9,9.8,0,14.5
				c0.9,2.2,2.2,4.2,3.9,5.9c1.6,1.6,3.6,3,5.7,3.9C281.6,671.7,284,672.2,286.4,672.2L286.4,672.2z M286.4,662.6
				c-2,0-4-0.9-5.4-2.4c-3-3.8-3-9.1,0-12.8c2.8-3,7.5-3.1,10.5-0.4l0.4,0.4c3,3.8,3,9.1,0,12.8
				C290.5,661.8,288.5,662.6,286.4,662.6L286.4,662.6z M322.6,671.3l6.1-19.5l6.1,19.5h8.7l11.9-35.2h-10.7l-6.1,20.6l-6.5-20.6
				h-6.9l-6.5,20.6l-6-20.6H302l11.9,35.2H322.6z M366.9,671.3v-48h-10.4v48.2L366.9,671.3z"/>
		</defs>
		<clipPath id="SVGID_5_">
			<use xlink:href="#SVGID_3_"  style="overflow:visible;"/>
		</clipPath>
		<clipPath id="SVGID_6_" class="st12">
			<use xlink:href="#SVGID_4_"  style="overflow:visible;"/>
		</clipPath>
	</g>
	<g>
		<defs>
			<rect id="SVGID_7_" x="162.2" y="623.3" width="212.2" height="48.9"/>
		</defs>
		<defs>
			<path id="SVGID_8_" d="M179.8,672.2c2.1,0,4.1-0.3,6.1-0.9c1.7-0.6,3.3-1.4,4.7-2.5c1.3-1,2.5-2.2,3.5-3.5c0.9-1.2,1.6-2.6,2-4.1
				l0,0l-10.7-0.7c-0.3,0.5-0.7,0.9-1.2,1.1c-0.5,0.4-1,0.7-1.6,0.9c-0.8,0.3-1.6,0.4-2.5,0.4c-1.7,0.1-3.4-0.5-4.7-1.6
				c-1.1-1-2-2.2-2.5-3.6H197c0-0.4,0.1-0.7,0.1-1.1s0.1-0.8,0.1-1.1s0.1-0.8,0.1-1.2c0-2.6-0.4-5.1-1.4-7.5
				c-0.9-2.1-2.1-4.1-3.6-5.9c-1.5-1.6-3.4-2.9-5.5-3.8c-4.4-1.8-9.3-1.7-13.7,0.1c-4.3,1.8-7.8,5.3-9.6,9.6
				c-1.9,4.6-1.9,9.8,0,14.5c0.9,2.2,2.2,4.2,3.9,5.9c1.6,1.6,3.5,3,5.6,3.9C175.1,671.8,177.4,672.3,179.8,672.2L179.8,672.2z
				 M187.4,650.8h-14.5c0.4-1.6,1.3-3,2.5-4c2.8-2.2,6.8-2.2,9.6,0C186.1,647.9,187,649.2,187.4,650.8z M208.6,671.5v-18.7
				c-0.1-1.9,0.5-3.9,1.7-5.4c2.6-2.5,6.7-2.5,9.4,0c1.3,1.5,1.9,3.4,1.7,5.4l0,0v18.7h10.4v-20.6c0-2.1-0.3-4.2-1-6.2
				c-0.6-1.8-1.6-3.4-2.9-4.7c-1.3-1.3-2.8-2.3-4.5-3c-1.8-0.7-3.8-1-5.7-1c-1.4,0-2.9,0.2-4.2,0.6c-1.1,0.3-2.2,0.8-3.2,1.2
				c-1,0.5-2,1.1-2.9,1.9l0,0l-1.5-3.5h-7.6v35.2L208.6,671.5z M250.7,672.2c2.4,0,4.8-0.5,7-1.4c2.1-0.9,4.1-2.2,5.7-3.9
				c1.7-1.7,3-3.7,3.9-5.9c1.9-4.6,1.9-9.8,0-14.5c-0.9-2.1-2.2-4.1-3.9-5.7c-7-7-18.4-7-25.4,0c-1.6,1.6-3,3.6-3.9,5.7
				c-1.9,4.6-1.9,9.8,0,14.5c0.9,2.2,2.2,4.2,3.9,5.9c1.6,1.6,3.6,3,5.7,3.9C246,671.7,248.4,672.2,250.7,672.2z M250.7,662.6
				c-2.1,0-4.1-0.9-5.5-2.4c-3-3.8-3-9.1,0-12.8c2.8-3,7.5-3.1,10.5-0.4l0.4,0.4c3,3.8,3,9.1,0,12.8
				C254.7,661.8,252.8,662.6,250.7,662.6z M286.4,672.2c2.4,0,4.8-0.5,7-1.4c2.1-0.9,4.1-2.2,5.7-3.9c1.7-1.7,3-3.7,3.9-5.9
				c1.9-4.6,1.9-9.8,0-14.5c-3.9-9.2-14.4-13.5-23.6-9.6c-2.2,0.9-4.1,2.2-5.8,3.9c-1.7,1.6-3,3.6-3.9,5.7c-1.9,4.6-1.9,9.8,0,14.5
				c0.9,2.2,2.2,4.2,3.9,5.9c1.6,1.6,3.6,3,5.7,3.9C281.6,671.7,284,672.2,286.4,672.2L286.4,672.2z M286.4,662.6
				c-2,0-4-0.9-5.4-2.4c-3-3.8-3-9.1,0-12.8c2.8-3,7.5-3.1,10.5-0.4l0.4,0.4c3,3.8,3,9.1,0,12.8
				C290.5,661.8,288.5,662.6,286.4,662.6L286.4,662.6z M322.6,671.3l6.1-19.5l6.1,19.5h8.7l11.9-35.2h-10.7l-6.1,20.6l-6.5-20.6
				h-6.9l-6.5,20.6l-6-20.6H302l11.9,35.2H322.6z M366.9,671.3v-48h-10.4v48.2L366.9,671.3z"/>
		</defs>
		<defs>
			<rect id="SVGID_9_" x="162.2" y="611.5" width="212.2" height="60.7"/>
		</defs>
		<clipPath id="SVGID_10_">
			<use xlink:href="#SVGID_7_"  style="overflow:visible;"/>
		</clipPath>
		<clipPath id="SVGID_11_" class="st13">
			<use xlink:href="#SVGID_8_"  style="overflow:visible;"/>
		</clipPath>
		<clipPath id="SVGID_12_" class="st14">
			<use xlink:href="#SVGID_9_"  style="overflow:visible;"/>
		</clipPath>
		<g class="st15">
			<rect x="161.8" y="623" class="st16" width="205.4" height="49.6"/>
		</g>
	</g>
</g>
<g>
	<g>
		<defs>
			<rect id="SVGID_13_" x="162.2" y="623.3" width="212.2" height="48.9"/>
		</defs>
		<clipPath id="SVGID_14_">
			<use xlink:href="#SVGID_13_"  style="overflow:visible;"/>
		</clipPath>
	</g>
	<g>
		<defs>
			<rect id="SVGID_15_" x="162.2" y="623.3" width="212.2" height="48.9"/>
		</defs>
		<defs>
			<path id="SVGID_16_" d="M258.2,623.3h10.2v30.9c-1.1-2.5-2.6-4.9-4.5-6.9c-1.7-1.5-3.6-2.8-5.7-3.8V623.3L258.2,623.3z"/>
		</defs>
		<clipPath id="SVGID_17_">
			<use xlink:href="#SVGID_15_"  style="overflow:visible;"/>
		</clipPath>
		<clipPath id="SVGID_18_" class="st17">
			<use xlink:href="#SVGID_16_"  style="overflow:visible;"/>
		</clipPath>
		<g class="st18">
			<rect x="257.8" y="623" class="st16" width="11.1" height="31.7"/>
		</g>
	</g>
</g>
</svg>
