<svg xmlns="http://www.w3.org/2000/svg" xmlns:xlink="http://www.w3.org/1999/xlink" viewBox="0 0 464.72 531"><defs><clipPath id="clip-path" transform="translate(5 5)"><path d="M25.1,216.45a171,171,0,0,1,342,0v98.46c0,94.45-61.22,142.25-171,142.25s-171-47.8-171-142.25V216.45Z" style="fill:none;clip-rule:evenodd"/></clipPath><clipPath id="clip-path-2" transform="translate(5 5)"><path d="M25.1,484.54c50.21-25.37,87.8-62.44,87.8-113.75S69.22,277.9,25.1,277.9q-50.2,232,0,206.64Z" style="fill:none;clip-rule:evenodd"/></clipPath><clipPath id="clip-path-3" transform="translate(5 5)"><path d="M196.58,303.1c-79.63,0-141.31-23.32-141.31-95.28C55.27,164,79.21,125.35,114,100c9-6.52,3.72,12.81,9.84,9.83,6.58-3.2,14.25-23.48,28.31-28.1a142.48,142.48,0,0,1,44.43-6.63c79.64,0,141.31,60.72,141.31,132.68S276.22,303.1,196.58,303.1Z" style="fill:none;clip-rule:evenodd"/></clipPath><clipPath id="clip-path-4" transform="translate(5 5)"><path d="M429.26,214.31c-56.22,1.77-105.95,19.49-127.63,66S302,383,341.93,401.59q143.57-189,87.33-187.28Z" style="fill:none;clip-rule:evenodd"/></clipPath><clipPath id="clip-path-5" transform="translate(5 5)"><path d="M297.24,199.85a21.85,21.85,0,1,0-21.85,21.86,21.85,21.85,0,0,0,21.85-21.86" style="fill:none;clip-rule:evenodd"/></clipPath><clipPath id="clip-path-6" transform="translate(5 5)"><path d="M231.43,238.78c0,21.61-26.11,49.15-36.47,49.15s-36.46-27.54-36.46-49.15c0-8.24,16.32-17.46,36.46-17.46s36.47,9.22,36.47,17.46" style="fill:none;clip-rule:evenodd"/></clipPath><clipPath id="clip-path-7" transform="translate(5 5)"><path d="M95.81,212a9.45,9.45,0,0,1-9.44-9.45c0-5.21,3.84-7,9.44-9.43q10.56-4.12,19-4.12a48.23,48.23,0,0,1,18.4,4.12c4.64,2.14,9.44,4.22,9.44,9.43a9.45,9.45,0,0,1-9.44,9.45q-12.65-4.12-18.72-4.12T95.81,212Z" style="fill:none;clip-rule:evenodd"/></clipPath><clipPath id="clip-path-8" transform="translate(5 5)"><path d="M197.77,521c69.31,0,125.5-8.28,125.5-18.5S267.08,484,197.77,484s-125.5,8.28-125.5,18.5S128.46,521,197.77,521Z" style="fill:none;clip-rule:evenodd"/></clipPath><clipPath id="clip-path-9" transform="translate(5 5)"><path d="M170.27,53Q203.34-1.73,219.54.06c16.19,1.8-18.43,34.78-12.41,40.46s30.37-21.24,40.47-14q10.11,7.24-18,26.47Z" style="fill:none;clip-rule:evenodd"/></clipPath><clipPath id="clip-path-10" transform="translate(5 5)"><path d="M129.77,477h46a12.5,12.5,0,0,1,0,25h-46a12.5,12.5,0,0,1,0-25Z" style="fill:none;clip-rule:evenodd"/></clipPath><clipPath id="clip-path-11" transform="translate(5 5)"><path d="M218.77,477h46a12.5,12.5,0,0,1,0,25h-46a12.5,12.5,0,1,1,0-25Z" style="fill:none;clip-rule:evenodd"/></clipPath><clipPath id="clip-path-12" transform="translate(5 5)"><path d="M163.77,323a6.5,6.5,0,0,1,6.5,6.5v25a6.5,6.5,0,0,1-13,0v-25a6.5,6.5,0,0,1,6.5-6.5Z" style="fill:none;clip-rule:evenodd"/></clipPath><clipPath id="clip-path-13" transform="translate(5 5)"><path d="M196.77,336a6.5,6.5,0,0,1,6.5,6.5v25a6.5,6.5,0,0,1-13,0v-25a6.5,6.5,0,0,1,6.5-6.5Z" style="fill:none;clip-rule:evenodd"/></clipPath><clipPath id="clip-path-14" transform="translate(5 5)"><path d="M230.77,323a6.5,6.5,0,0,1,6.5,6.5v25a6.5,6.5,0,0,1-13,0v-25a6.5,6.5,0,0,1,6.5-6.5Z" style="fill:none;clip-rule:evenodd"/></clipPath><clipPath id="clip-path-15" transform="translate(5 5)"><path d="M69.27,108.35Q78.9,88.42,80.4,82.92c5.47-20.11,12.54-56,35.7-59.63,25.32-4-1.92,34.13-5.68,42.75q-1.74,4-4.64,12.17L69.27,108.35Z" style="fill:none;clip-rule:evenodd"/></clipPath><clipPath id="clip-path-16" transform="translate(5 5)"><path d="M289.41,72.7Q261.65,37.2,282.3,28.08C297.56,21.36,302.09,41.82,311,72.7q2.93,10.11,12.23,30.3L289.41,72.7Z" style="fill:none;clip-rule:evenodd"/></clipPath></defs><title>wink</title><g id="Layer_2" data-name="Layer 2"><g id="Layer_1-2" data-name="Layer 1"><g style="clip-path:url(#clip-path)"><rect x="25.1" y="45.43" width="352.04" height="421.72" style="fill:#b079ec"/></g><g style="clip-path:url(#clip-path-2)"><rect y="277.9" width="122.9" height="219.14" style="fill:#8453b7"/></g><g style="clip-path:url(#clip-path-3)"><rect x="55.27" y="75.14" width="292.62" height="237.96" style="fill:#ead9ff"/></g><g style="clip-path:url(#clip-path-4)"><rect x="248.15" y="232.12" width="219.14" height="122.9" transform="translate(-54.53 498.71) rotate(-65)" style="fill:#8453b7"/></g><g style="clip-path:url(#clip-path-5)"><rect x="253.55" y="178" width="53.69" height="53.71" style="fill:#2f2272"/></g><g style="clip-path:url(#clip-path-6)"><rect x="158.5" y="221.32" width="82.94" height="76.61" style="fill:#f4911a"/></g><g style="clip-path:url(#clip-path-7)"><rect x="86.37" y="188.97" width="66.3" height="33" style="fill:#2f2272"/></g><g style="clip-path:url(#clip-path-8)"><rect x="72.27" y="484" width="261" height="47" style="fill:#dcdcdc"/></g><g style="clip-path:url(#clip-path-9)"><rect x="170.27" width="90" height="63" style="fill:#b079ec"/></g><g style="clip-path:url(#clip-path-10)"><rect x="117.27" y="477" width="81" height="35" style="fill:#fab60a"/></g><g style="clip-path:url(#clip-path-11)"><rect x="206.27" y="477" width="81" height="35" style="fill:#fab60a"/></g><g style="clip-path:url(#clip-path-12)"><rect x="157.27" y="323" width="23" height="48" style="fill:#8453b7"/></g><g style="clip-path:url(#clip-path-13)"><rect x="190.27" y="336" width="23" height="48" style="fill:#8453b7"/></g><g style="clip-path:url(#clip-path-14)"><rect x="224.27" y="323" width="23" height="48" style="fill:#8453b7"/></g><g style="clip-path:url(#clip-path-15)"><rect x="69.27" y="23" width="67.49" height="95.35" style="fill:#b079ec"/></g><g style="clip-path:url(#clip-path-16)"><rect x="273.49" y="26.8" width="59.76" height="86.2" style="fill:#b079ec"/></g></g></g></svg>