<svg height='100px' width='100px'  fill="#000000" xmlns="http://www.w3.org/2000/svg" xmlns:xlink="http://www.w3.org/1999/xlink" version="1.1" x="0px" y="0px" viewBox="0 0 100 100" style="enable-background:new 0 0 100 100;" xml:space="preserve"><path d="M84.2,87.7h2v-2v-47v-2h-2H15.8h-2v2v47v2h2H84.2z M84.2,38.7V65C69.7,51.6,55.5,59.1,45,65.9c-14.5,9.5-27.4,5.9-29.2-1  V38.7H84.2z M90,29.2H71.9l0.2-0.2L49.9,6.7l-21,22.5H10H6v4v58v4h4h80h4v-4v-58v-4H90z M49.9,11l18.2,18.2H32.9L49.9,11z M90,91.2  H10v-58h80V91.2z M54,19c0,2.2-1.8,4-4,4s-4-1.8-4-4c0-2.2,1.8-4,4-4S54,16.8,54,19z"></path></svg>