<svg height='100px' width='100px'  fill="#000000" xmlns="http://www.w3.org/2000/svg" xmlns:xlink="http://www.w3.org/1999/xlink" version="1.1" x="0px" y="0px" viewBox="0 0 100 100" enable-background="new 0 0 100 100" xml:space="preserve"><path d="M62.425,73.19h-3.45c-0.677,0-1.225-0.548-1.225-1.225L57.744,57.44L56.492,70.4c-0.144,1.321-1.655,2.244-3.506,2.063  c-1.039-0.102-1.982-0.56-2.523-1.226c-0.46-0.564-0.512-1.107-0.473-1.464l1.052-9.766c-0.066-0.068-0.125-0.145-0.174-0.227  l-1.218-2.037l-1.186,2.091c-0.045,0.08-0.099,0.153-0.159,0.221l0.996,9.728c0.072,0.708-0.285,1.416-0.981,1.941  c-0.548,0.412-1.269,0.683-2.029,0.76c-0.148,0.017-0.307,0.023-0.463,0.023c-1.635,0-2.909-0.866-3.03-2.06L41.603,57.44H41.55  v14.525c0,0.677-0.548,1.225-1.225,1.225h-3.45c-0.677,0-1.225-0.548-1.225-1.225V57.44h-1.575c-0.677,0-1.225-0.548-1.225-1.225  v-3.8c0-0.677,0.548-1.225,1.225-1.225h3.556c-0.152-0.326-0.236-0.684-0.236-1.059c0-1.258,0.168-2.483,0.484-3.65  c-0.271,0.511-0.662,0.974-1.158,1.339c-0.194,0.142-0.399,0.268-0.618,0.376c-0.146,0.071-0.294,0.147-0.447,0.228  c-1.555,0.805-4.266,2.204-7.923,1.978c0.003,0.658,0.003,1.234-0.02,1.807c3.642,0.244,5.486,2.935,5.486,8.006l0.002,9.494  c0.01,0.53,0.027,1.518-0.739,2.298c-0.621,0.632-1.568,0.938-2.897,0.938c-3.635,0-3.635-2.37-3.635-3.383  c0-0.993-0.173-9.312-0.175-9.396c0-0.009,0-0.017,0-0.025c0-0.033-0.004-0.048-0.004-0.048c-0.011-0.003-0.054-0.02-0.126-0.04  c-0.142,0.089-0.303,0.149-0.476,0.175v11.479c0,0.677-0.548,1.225-1.225,1.225S22.7,72.385,22.7,71.708V60.24H13.6v11.468  c0,0.677-0.548,1.225-1.225,1.225s-1.225-0.548-1.225-1.225V60.24H9.225c-0.428,0-0.804-0.219-1.023-0.551  c-0.332-0.22-0.551-0.596-0.551-1.023v-16.8c0-0.677,0.548-1.225,1.225-1.225s1.225,0.548,1.225,1.225v15.925h3.369  c-0.09-0.416-0.14-0.909-0.14-1.493c0-1.291,0.201-2.233,0.629-2.905c-0.471-0.764-0.708-1.532-0.708-2.288V41.26  c0-2.03,1.449-3.808,3.603-4.764c-1.152-1.016-1.881-2.501-1.881-4.154c0-3.051,2.481-5.532,5.532-5.532s5.533,2.481,5.533,5.532  c0,1.831-0.894,3.457-2.268,4.465c2.197,1.438,3.786,4.065,4.008,6.092c0.222,0.153,0.419,0.248,0.576,0.269  c1.726,0.219,2.85-0.362,4.151-1.035c0.224-0.116,0.438-0.227,0.645-0.327c0.945-0.468,2.029-0.537,2.97-0.198  c0.867,0.313,1.547,0.94,1.916,1.767l0,0c0.26,0.583,0.338,1.219,0.255,1.84c1.328-3.517,4.036-6.343,7.46-7.6  c-0.536-0.777-0.851-1.719-0.851-2.732c0-2.658,2.162-4.82,4.82-4.82s4.821,2.162,4.821,4.82c0,1.014-0.313,1.955-0.85,2.731  c4.927,1.799,8.356,6.812,8.356,12.521c0,0.375-0.084,0.732-0.236,1.059h3.764c0.677,0,1.225,0.548,1.225,1.225v3.8  c0,0.677-0.548,1.225-1.225,1.225h-1.926v14.525C63.649,72.643,63.102,73.19,62.425,73.19z M60.199,70.741H61.2v-13.51  c0-1.173,1.043-2.24,2.188-2.24h0.962v-1.351H35.3v1.351h0.584c1.16,0,2.216,1.067,2.216,2.24v13.51h1.001v-13.51  c0-1.298,0.797-2.24,1.895-2.24h17.283c1.113,0,1.921,0.942,1.921,2.24V70.741z M28.204,60.127c0.011,0.479,0.175,8.426,0.175,9.436  c0,0.194,0,0.649,0.067,0.741c0.001,0.002,0.208,0.192,1.118,0.192c0.932,0,1.148-0.205,1.15-0.207  c0.045-0.073,0.04-0.387,0.037-0.537l-0.002-0.189v-9.348c0-4.898-1.729-5.574-3.596-5.574H16.535  c-0.159,0.003-0.416-0.002-0.485,0.031l0,0c0.001,0-0.271,0.283-0.271,1.626c0,1.026,0.181,1.282,0.183,1.285  c-0.026-0.04,0.144-0.031,0.255-0.026l0.162,0.009c1.058,0.013,8.535-0.039,8.61-0.039C26.94,57.526,28.197,58.547,28.204,60.127z   M45.212,69.945c0.14,0.064,0.447,0.146,0.819,0.103c0.413-0.042,0.678-0.181,0.807-0.274l-0.987-9.64  c-0.063-0.626,0.149-1.231,0.577-1.672l0.578-1.021h-2.942L45.212,69.945z M52.455,69.77c0.139,0.098,0.403,0.22,0.771,0.256  c0.396,0.038,0.712-0.047,0.853-0.115l1.204-12.47h-2.959l0.547,0.915c0.461,0.446,0.697,1.087,0.627,1.735L52.455,69.77z   M20.489,38.198c-2.552,0-4.79,1.431-4.79,3.062v9.845c0,0.32,0.136,0.688,0.401,1.093c0.167-0.009,0.319-0.007,0.453-0.007  l0.11,0.001h8.597c0.027-0.605,0.024-1.229,0.021-1.968l-0.001-0.292c-3.885-1.402-6.281-5.651-6.769-6.586  c-0.89-1.702-0.143-3.906,1.665-4.912c0.157-0.088,0.32-0.164,0.485-0.229C20.604,38.2,20.547,38.198,20.489,38.198z M55.118,51.191  h0.566c-0.196-0.315-0.311-0.67-0.311-1.059c0-0.744-0.088-1.479-0.256-2.182V51.191z M46.85,51.191h5.818v-6.409  c0-0.861,0.688-1.535,1.37-1.755c0.668-0.216,1.348-0.009,1.733,0.527c1.292,1.798,2.018,4.065,2.051,6.406  c0.214,0.187,0.807,0.438,1.238,0.438c0.353,0,0.538-0.197,0.538-0.266c0-5.155-3.369-9.605-8.01-10.579  c-0.11-0.023-0.214-0.061-0.31-0.11c-1.003,0.345-2.197,0.335-3.194-0.026c-0.12,0.079-0.256,0.139-0.403,0.173  c-4.542,1.047-7.838,5.48-7.838,10.543c0,0.066,0.191,0.266,0.54,0.266c0.434,0,1.029-0.252,1.244-0.438  c0.034-2.332,0.763-4.6,2.059-6.403l0.079-0.115c0.556-0.837,1.23-0.771,1.586-0.659c0.884,0.284,1.498,1.106,1.498,2V51.191z   M43.766,51.191H44.4v-3.492c-0.213,0.781-0.324,1.602-0.324,2.434C44.076,50.521,43.962,50.876,43.766,51.191z M22.093,40.379  c-0.241,0-0.492,0.066-0.725,0.195c-0.646,0.36-0.96,1.11-0.685,1.638c0.277,0.532,2.817,5.209,6.519,5.681  c3.335,0.424,5.701-0.803,7.27-1.614c0.229-0.119,0.394-0.203,0.552-0.28c0.085-0.042,0.169-0.094,0.247-0.151  c0.507-0.374,0.734-1.009,0.526-1.476l0,0c-0.121-0.271-0.344-0.4-0.51-0.46c-0.318-0.116-0.704-0.083-1.055,0.091  c-0.191,0.095-0.393,0.197-0.602,0.306c-1.456,0.753-3.108,1.61-5.586,1.289c-2.255-0.286-4.419-3.516-5.063-4.736  c-0.14-0.266-0.373-0.382-0.545-0.433C22.327,40.395,22.211,40.379,22.093,40.379z M49.72,32.51c-1.308,0-2.371,1.063-2.371,2.371  s1.063,2.372,2.371,2.372s2.372-1.064,2.372-2.372S51.027,32.51,49.72,32.51z M20.504,29.259c-1.7,0-3.083,1.383-3.083,3.083  s1.383,3.084,3.083,3.084s3.084-1.384,3.084-3.084S22.204,29.259,20.504,29.259z M70.68,72.945c-2.574,0-3.879-1.138-3.879-3.383  v-9.348c0-4.866,2.168-7.752,5.974-8.006c-0.022-0.572-0.022-1.149-0.02-1.807c-3.665,0.226-6.363-1.171-7.864-1.948l-0.503-0.256  c-0.222-0.108-0.428-0.235-0.619-0.377l0,0c-1.439-1.059-1.993-2.929-1.316-4.448c0.369-0.826,1.05-1.453,1.916-1.767  c0.942-0.34,2.025-0.269,2.971,0.198c0.204,0.101,0.419,0.21,0.644,0.326c1.303,0.674,2.425,1.254,4.151,1.036  c0.143-0.019,0.318-0.099,0.515-0.228c0.232-2.117,1.793-4.784,3.979-6.2c-1.322-1.013-2.177-2.607-2.177-4.397  c0-3.051,2.481-5.532,5.532-5.532s5.533,2.481,5.533,5.532c0,1.706-0.775,3.234-1.993,4.25c1.954,0.967,3.227,2.679,3.227,4.668  v9.845c0,0.679-0.051,1.392-0.368,2.078c0.528,0.681,0.776,1.683,0.776,3.115c0,0.567-0.045,1.063-0.138,1.493h2.88V41.866  c0-0.677,0.548-1.225,1.225-1.225s1.225,0.548,1.225,1.225v16.8c0,0.06-0.004,0.118-0.012,0.175  c0.008,0.057,0.012,0.115,0.012,0.175c0,0.677-0.548,1.225-1.225,1.225H88.85v11.468c0,0.677-0.548,1.225-1.225,1.225  S86.4,72.385,86.4,71.708V60.24H78.3v11.468c0,0.677-0.548,1.225-1.225,1.225s-1.225-0.548-1.225-1.225V60.24h-0.825  c-0.12,0-0.236-0.017-0.347-0.049c-0.004,0.743-0.199,8.422-0.199,9.371C74.479,71.808,73.201,72.945,70.68,72.945z M73.333,54.641  c-1.01,0-4.083,0-4.083,5.574v9.348c0,0.621,0,0.934,1.43,0.934c1.351,0,1.351-0.217,1.351-0.934c0-1.021,0.206-9.108,0.215-9.452  c0-1.547,1.304-2.606,3.244-2.606c0.002,0,0.004,0,0.006,0c0.075,0,7.562,0.034,8.667,0.017l0.147-0.008  c0.077-0.003,0.181-0.007,0.254-0.015c0.049-0.12,0.146-0.451,0.146-1.2c0-1.347-0.274-1.627-0.277-1.63  c-0.064-0.031-0.323-0.031-0.479-0.027H73.333z M75.227,52.191l8.708-0.001c0.063,0,0.13-0.003,0.205,0  c0.133-0.261,0.161-0.605,0.161-1.086V41.26c0-1.646-2.05-3.039-4.489-3.061c0.171,0.065,0.338,0.144,0.499,0.234  c1.808,1.005,2.555,3.209,1.666,4.912c-0.488,0.935-2.888,5.184-6.77,6.585l-0.001,0.293C75.202,50.962,75.199,51.586,75.227,52.191  z M65.601,43.844c-0.14,0-0.274,0.021-0.4,0.067c-0.166,0.06-0.389,0.188-0.51,0.46c-0.208,0.467,0.02,1.102,0.529,1.478  c0.001,0,0.001,0,0.001,0c0.076,0.057,0.158,0.107,0.246,0.15c0.155,0.076,0.316,0.159,0.484,0.245  c1.634,0.846,3.999,2.073,7.335,1.648c3.695-0.472,6.241-5.149,6.519-5.681c0.275-0.527-0.038-1.278-0.685-1.638  c-0.346-0.192-0.736-0.248-1.07-0.146c-0.172,0.051-0.405,0.167-0.543,0.431c-0.646,1.223-2.81,4.452-5.064,4.738  c-2.481,0.318-4.131-0.537-5.584-1.289c-0.21-0.107-0.411-0.211-0.603-0.306C66.042,43.896,65.816,43.844,65.601,43.844z   M79.983,29.259c-1.7,0-3.083,1.383-3.083,3.083s1.383,3.084,3.083,3.084s3.084-1.384,3.084-3.084S81.684,29.259,79.983,29.259z"></path></svg>