<svg height='100px' width='100px'  fill="#000000" xmlns="http://www.w3.org/2000/svg" viewBox="0 0 32 32" x="0px" y="0px"><title>camera</title><g data-name="Layer 25"><path d="M16,12a6,6,0,1,0,6,6A6.0066,6.0066,0,0,0,16,12Zm0,10a4,4,0,1,1,4-4A4.0045,4.0045,0,0,1,16,22Z"></path><path d="M27,7H21l0-1a3.0033,3.0033,0,0,0-3-3H14a3.0032,3.0032,0,0,0-3,3L11,7H5a3.0033,3.0033,0,0,0-3,3V25a3.0033,3.0033,0,0,0,3,3H27a3.0033,3.0033,0,0,0,3-3V10A3.0033,3.0033,0,0,0,27,7ZM13,6a1.0013,1.0013,0,0,1,1-1h4a1.0012,1.0012,0,0,1,1,1l0,1H13ZM28,25a1.0013,1.0013,0,0,1-1,1H5a1.0013,1.0013,0,0,1-1-1V10A1.0013,1.0013,0,0,1,5,9H27a1.0013,1.0013,0,0,1,1,1Z"></path></g></svg>