<svg height='100px' width='100px'  fill="#000000" xmlns="http://www.w3.org/2000/svg" data-name="Layer 1" viewBox="0 0 512 512" x="0px" y="0px"><title>Cello</title><g data-name="Group"><path data-name="Compound Path" d="M319.454,349.181a7.938,7.938,0,0,0-7.533-.667,23.936,23.936,0,0,1-9.26,1.777,25.247,25.247,0,0,1-24.9-29.263,25.436,25.436,0,0,1,24.749-21.25c.652-.008,1.178.019,2.143.076a7.847,7.847,0,0,0,5.9-2.16,7.938,7.938,0,0,0,2.45-5.825V244.311A62.283,62.283,0,0,0,250.714,182H239.648l-5.435-99.046A8.053,8.053,0,0,0,241,75V14a8,8,0,0,0-8-8H192a8,8,0,0,0-8,8V75a8.052,8.052,0,0,0,7.275,8.019L185.845,182h-11.32A62.487,62.487,0,0,0,112,244.311v47.558a8.084,8.084,0,0,0,8.56,7.985c.965-.057,1.506-.083,2.156-.076a25.263,25.263,0,0,1,18.944,41.741,25.174,25.174,0,0,1-19.106,8.772,23.976,23.976,0,0,1-9.265-1.777A8.1,8.1,0,0,0,102,355.862v38.595a82.042,82.042,0,0,0,77.706,81.775l1.2,22.222a8,8,0,0,0,8.02,7.546h.033l47.392-.159a7.986,7.986,0,0,0,7.956-7.563l1.1-22.056A81.959,81.959,0,0,0,323,394.43V355.862A7.946,7.946,0,0,0,319.454,349.181Zm-91.008-79.464c.006.111.014.222.025.334L231.279,299H194.215l2.8-28.754c.011-.112.02-.224.026-.336L207.3,83h10.9ZM200,22h25V67H200Zm28.728,468.156-32.211.256L193.7,437h37.835ZM307,394.43a65.938,65.938,0,0,1-60.739,65.694l1.669-31.2a7.43,7.43,0,0,0-2.172-5.676,7.743,7.743,0,0,0-5.79-2.244h-54.7a7.6,7.6,0,0,0-7.989,8.045l1.578,31.143A66.071,66.071,0,0,1,118,394.457v-28.4c2,.153,3,.23,4.492.23A41.243,41.243,0,0,0,128,284.178V244.311A46.468,46.468,0,0,1,174.525,198h10.441l-3.9,70.919-3.633,37.334A7.978,7.978,0,0,0,185.4,315h54.692a8,8,0,0,0,7.963-8.772l-3.642-37.5L240.526,198h10.188A46.265,46.265,0,0,1,297,244.311v39.867a41.252,41.252,0,0,0,5.6,82.113,35.2,35.2,0,0,0,4.4-.238Z"></path><path data-name="Path" d="M239.968,346h-54.7a8,8,0,1,0,0,16h54.7a8,8,0,0,0,0-16Z"></path><path data-name="Compound Path" d="M402,17H377a8,8,0,0,0-8,8V404a8,8,0,0,0,8,8h17v76a8,8,0,0,0,16,0V25A8,8,0,0,0,402,17Zm-8,379h-9V33h9Z"></path></g></svg>