<svg height='100px' width='100px'  fill="#000000" xmlns="http://www.w3.org/2000/svg" xmlns:xlink="http://www.w3.org/1999/xlink" xml:space="preserve" version="1.1" style="shape-rendering:geometricPrecision;text-rendering:geometricPrecision;image-rendering:optimizeQuality;" viewBox="0 0 280 280" x="0px" y="0px" fill-rule="evenodd" clip-rule="evenodd"><defs><style type="text/css">
   
    .fil0 {fill:#000000;fill-rule:nonzero}
   
  </style></defs><g><path class="fil0" d="M71.265 87.42c-1.783,2.747 -4.666,7.718 -5.399,12.126 -0.133,0.815 -0.902,1.369 -1.717,1.236 -0.815,-0.132 -1.369,-0.901 -1.236,-1.716 0.683,-4.108 2.978,-8.563 4.833,-11.646l-9.436 0c-44.989,70.259 -24.888,162.648 -22.152,174.107 3.169,1.708 6.496,1.436 9.369,0.264 3.117,-1.271 5.679,-3.525 7.035,-5.546 0.114,-0.171 0.222,-0.345 0.322,-0.522l2.395 -4.209 2.691 4.022c0.982,1.468 2.361,2.764 4.033,3.882 5.06,3.387 12.625,5.08 20.264,5.08l0 0.012c7.627,0 15.191,-1.698 20.263,-5.092 1.672,-1.118 3.05,-2.414 4.033,-3.882l2.691 -4.022 2.394 4.209c0.101,0.177 0.209,0.351 0.323,0.522 1.355,2.021 3.918,4.275 7.035,5.546 2.873,1.172 6.2,1.444 9.368,-0.264 2.735,-11.459 22.838,-103.848 -22.151,-174.107l-9.436 0c1.855,3.083 4.15,7.538 4.833,11.646 0.132,0.815 -0.421,1.584 -1.237,1.716 -0.815,0.133 -1.584,-0.421 -1.716,-1.236 -0.733,-4.409 -3.617,-9.379 -5.4,-12.126l-22.002 0zm111.56 151.502c2.344,-1.248 6.577,-2.126 12.408,-0.15 3.746,1.269 8.225,3.736 13.371,8.104l23.485 -16.159c-1.086,-4.904 -0.97,-9.953 0.78,-14.951 1.705,-4.868 4.953,-9.65 10.143,-14.147 0.832,-0.72 2.092,-0.629 2.812,0.203 0.063,0.073 0.12,0.149 0.171,0.228l0.455 0.705c5.204,8.046 15.202,23.578 7.175,32.454l-3.544 32.5c-0.115,1.076 -1.066,1.862 -2.139,1.778l-7.027 -0.182c-1.1,-0.026 -1.971,-0.939 -1.945,-2.039l0.317 -25.315 -31.16 21.62c-0.064,0.113 -0.131,0.224 -0.201,0.333 -3.559,5.576 -14.813,6.292 -26.572,4.899 -11.28,-1.337 -23.213,-4.563 -28.747,-7.165 -0.766,-0.36 -1.428,-0.716 -1.968,-1.061 -0.783,-0.499 -1.445,-1.151 -1.931,-1.874 -0.516,-0.769 -0.846,-1.638 -0.932,-2.523 -0.094,-0.972 0.106,-1.947 0.668,-2.827 0.338,-0.53 0.799,-1.009 1.396,-1.41 3.654,-2.453 30.73,-12.21 32.985,-13.021zm22.369 10.301c-4.354,-3.566 -8.107,-5.608 -11.242,-6.67 -3.468,-1.175 -6.077,-1.128 -7.839,-0.657 1.045,2.532 3.023,4.553 5.337,6.059 3.524,2.293 7.748,3.39 10.759,3.322l2.985 -2.054zm-22.816 -5.904c-6.533,2.365 -27.447,10.008 -30.319,11.937 -0.124,0.083 -0.208,0.163 -0.256,0.238 -0.052,0.083 -0.07,0.192 -0.058,0.312 0.02,0.208 0.118,0.443 0.276,0.678 0.188,0.28 0.448,0.536 0.759,0.733 0.394,0.252 0.904,0.525 1.515,0.812 5.217,2.453 16.627,5.513 27.528,6.805 10.423,1.235 20.193,0.924 22.743,-3.071 0.071,-0.111 0.135,-0.224 0.193,-0.341 0.142,-0.333 0.378,-0.631 0.698,-0.852l34.737 -24.102c0.329,-0.226 0.728,-0.357 1.156,-0.352 1.101,0.013 1.982,0.916 1.969,2.016l-0.34 27.24 3.333 0.086 3.418 -31.344c0.048,-0.444 0.243,-0.874 0.586,-1.211 6.272,-6.147 -1.538,-19.151 -6.394,-26.711 -3.647,3.535 -5.996,7.2 -7.287,10.887 -1.628,4.648 -1.583,9.386 -0.351,13.983l-0.003 0.001c0.211,0.791 -0.081,1.664 -0.794,2.155l-31.393 21.602c-0.303,0.237 -0.676,0.389 -1.088,0.418 -3.747,0.268 -9.256,-1.03 -13.728,-3.94 -2.977,-1.937 -5.532,-4.589 -6.9,-7.979zm-126.766 18.628c-1.998,2.111 -4.729,4.132 -7.835,5.399 -4.449,1.815 -9.688,2.164 -14.785,-0.734 -0.364,-0.207 -0.736,-0.437 -1.112,-0.689l-1.242 -1.758c-0.076,-0.301 -27.095,-104.094 23.512,-181.372l-16.572 -60.131c-0.455,-1.65 -0.342,-3.323 0.254,-4.807 0.595,-1.485 1.67,-2.773 3.138,-3.65l6.053 -3.616c1.063,-0.635 2.196,-0.992 3.353,-1.071 1.157,-0.077 2.327,0.124 3.459,0.608 1.137,0.486 2.093,1.192 2.837,2.083 0.742,0.888 1.267,1.955 1.543,3.16l4.743 20.747 38.616 0 4.741 -20.747c0.278,-1.205 0.803,-2.272 1.545,-3.16 0.744,-0.891 1.7,-1.597 2.837,-2.083 1.132,-0.484 2.302,-0.685 3.459,-0.608 1.157,0.079 2.29,0.436 3.353,1.071l6.053 3.616c1.467,0.877 2.542,2.166 3.138,3.65 0.595,1.483 0.709,3.157 0.254,4.807l-16.572 60.131c50.607,77.277 23.589,181.071 23.513,181.372l-1.242 1.758c-0.377,0.252 -0.748,0.482 -1.112,0.689 -5.097,2.899 -10.336,2.549 -14.785,0.734 -3.106,-1.267 -5.838,-3.288 -7.836,-5.399 -0.925,0.883 -1.951,1.696 -3.062,2.44 -6.076,4.066 -14.866,6.099 -23.591,6.099l0 0.012c-8.715,0 -17.505,-2.037 -23.592,-6.111 -1.112,-0.744 -2.138,-1.557 -3.063,-2.44zm2.296 -180.526l48.715 0 16.487 -59.821c0.215,-0.782 0.164,-1.569 -0.113,-2.261 -0.278,-0.691 -0.785,-1.295 -1.482,-1.712l-6.053 -3.616c-0.506,-0.302 -1.038,-0.472 -1.572,-0.508 -0.534,-0.036 -1.085,0.062 -1.631,0.295 -0.543,0.232 -0.993,0.562 -1.336,0.973 -0.343,0.411 -0.587,0.91 -0.717,1.481 0,2.986 -4.411,19.304 -5.452,23.864l-44.976 0c-1.041,-4.557 -5.452,-20.88 -5.452,-23.864 -0.13,-0.571 -0.374,-1.07 -0.717,-1.481 -0.343,-0.411 -0.794,-0.741 -1.336,-0.973 -0.546,-0.233 -1.097,-0.331 -1.631,-0.295 -0.535,0.036 -1.066,0.206 -1.572,0.508l-6.053 3.616c-0.697,0.417 -1.205,1.021 -1.482,1.712 -0.278,0.692 -0.329,1.479 -0.113,2.261l16.486 59.821z"></path></g></svg>