<svg height='100px' width='100px'  fill="#000000" xmlns:dc="http://purl.org/dc/elements/1.1/" xmlns:cc="http://creativecommons.org/ns#" xmlns:rdf="http://www.w3.org/1999/02/22-rdf-syntax-ns#" xmlns:svg="http://www.w3.org/2000/svg" xmlns="http://www.w3.org/2000/svg" xmlns:sodipodi="http://sodipodi.sourceforge.net/DTD/sodipodi-0.dtd" xmlns:inkscape="http://www.inkscape.org/namespaces/inkscape" viewBox="0 0 16.933333 16.933334" version="1.1" x="0px" y="0px"><g transform="translate(0,-280.06665)"><path style="color:#000000;font-style:normal;font-variant:normal;font-weight:normal;font-stretch:normal;font-size:medium;line-height:normal;font-family:sans-serif;font-variant-ligatures:normal;font-variant-position:normal;font-variant-caps:normal;font-variant-numeric:normal;font-variant-alternates:normal;font-feature-settings:normal;text-indent:0;text-align:start;text-decoration:none;text-decoration-line:none;text-decoration-style:solid;text-decoration-color:#000000;letter-spacing:normal;word-spacing:normal;text-transform:none;writing-mode:lr-tb;direction:ltr;text-orientation:mixed;dominant-baseline:auto;baseline-shift:baseline;text-anchor:start;white-space:normal;shape-padding:0;clip-rule:nonzero;display:inline;overflow:visible;visibility:visible;opacity:1;isolation:auto;mix-blend-mode:normal;color-interpolation:sRGB;color-interpolation-filters:linearRGB;solid-color:#000000;solid-opacity:1;vector-effect:none;fill:#000000;fill-opacity:1;fill-rule:nonzero;stroke:none;stroke-width:0.5291667;stroke-linecap:round;stroke-linejoin:round;stroke-miterlimit:4;stroke-dasharray:none;stroke-dashoffset:0;stroke-opacity:1;color-rendering:auto;image-rendering:auto;shape-rendering:auto;text-rendering:auto;enable-background:accumulate" d="m 2.9109317,280.59479 c -0.4351603,0 -0.7947819,0.36014 -0.7947819,0.7953 v 2.38073 c 0,0.35287 0.5291666,0.35287 0.5291666,0 v -2.38073 c 0,-0.15114 0.1144615,-0.26562 0.2656153,-0.26562 H 14.0224 c 0.151156,0 0.265615,0.11448 0.265615,0.26562 v 7.40782 c 0,0.15116 -0.114459,0.26406 -0.265615,0.26406 H 2.9109317 c -0.1511538,0 -0.2656153,-0.1129 -0.2656153,-0.26406 v -2.64635 c 0,-0.35287 -0.5291666,-0.35287 -0.5291666,0 v 2.64635 c 0,0.43517 0.3596216,0.79323 0.7947819,0.79323 h 4.2116296 c -0.093702,0.63471 -0.4786392,0.96801 -0.5984134,1.05885 H 6.0848998 c -0.3528615,0 -0.3528615,0.52917 0,0.52917 h 4.7635322 c 0.352861,0 0.352861,-0.52917 0,-0.52917 h -0.439248 c -0.119774,-0.0908 -0.5047115,-0.42414 -0.5984137,-1.05885 H 14.0224 c 0.43516,0 0.794782,-0.35806 0.794782,-0.79323 v -7.40782 c 0,-0.43516 -0.359622,-0.7953 -0.794782,-0.7953 z m 0.5291667,1.05885 c -0.1469364,-5.3e-4 -0.2661841,0.11868 -0.2656153,0.26562 v 5.29115 c -5.291e-4,0.14693 0.1186789,0.26618 0.2656153,0.26562 H 13.492715 c 0.146936,5.2e-4 0.266702,-0.11869 0.266134,-0.26562 v -5.29115 c 5.29e-4,-0.14694 -0.119198,-0.26618 -0.266134,-0.26562 z m 0.2635514,0.52917 h 9.5255162 v 4.76405 H 3.7036498 Z m 1.0454138,0.7953 c -0.1483096,0.0145 -0.2504097,0.12814 -0.2501133,0.26355 v 2.64635 c 5.291e-4,0.14541 0.1181417,0.26304 0.2635488,0.26355 h 2.6463493 c 0.1454097,-5.3e-4 0.2630355,-0.11814 0.2635515,-0.26355 v -2.64635 c -5.292e-4,-0.14541 -0.1181418,-0.26304 -0.2635515,-0.26355 z m 3.7046826,0 c -0.3662045,0.0185 -0.338582,0.54769 0.013943,0.52917 h 2.1151158 c 0.352867,0 0.352867,-0.52917 0,-0.52917 z m 3.1749998,0 c -0.365519,0.017 -0.340423,0.54613 0.01241,0.52917 h 0.529678 c 0.352866,0 0.352866,-0.52917 0,-0.52917 z m -6.6026981,0.52917 h 2.1171853 v 2.11511 H 5.0260479 Z m 3.4276983,0.79271 c -0.3662072,0.0185 -0.3385847,0.54768 0.013943,0.52917 h 3.7031428 c 0.352859,0 0.352859,-0.52917 0,-0.52917 z m -6.076114,0.25993 c -0.1469496,0.002 -0.2642235,0.12231 -0.2614824,0.26924 v 0.26406 c 0,0.35287 0.5291666,0.35287 0.5291666,0 v -0.26406 c 0.00278,-0.14923 -0.118438,-0.27094 -0.2676842,-0.26924 z m 6.0900681,1.06247 c -0.3528668,0 -0.3528668,0.52917 0,0.52917 h 0.5270976 c 0.3528669,0 0.3528669,-0.52917 0,-0.52917 z m 1.5859497,0 c -0.352867,0 -0.352867,0.52917 0,0.52917 h 2.117183 c 0.352866,0 0.352866,-0.52917 0,-0.52917 z m -2.1151164,2.38073 c -0.3528668,0 -0.3528668,0.52917 0,0.52917 h 1.0562643 c 0.3528669,0 0.3528669,-0.52917 0,-0.52917 z m -0.2826702,1.58802 h 1.6216048 c 0.053104,0.45128 0.2345214,0.80425 0.4211638,1.05885 H 7.2346996 c 0.1866424,-0.2546 0.3680593,-0.60757 0.4211638,-1.05885 z m -6.3334636,2.11822 c -0.43516288,0 -0.79323408,0.35755 -0.79323408,0.79271 v 3.17604 c 0,0.43516 0.3580712,0.79271 0.79323408,0.79271 H 11.377083 c 0.435162,0 0.792715,-0.35755 0.792715,-0.79271 v -3.17604 c 0,-0.43516 -0.357553,-0.79271 -0.792715,-0.79271 z m 12.7010322,0 c -0.728316,0 -1.324467,0.59407 -1.324467,1.3224 v 1.58802 c 0,1.02147 0.832157,1.85104 1.853634,1.85104 1.021479,0 1.851567,-0.82957 1.851567,-1.85104 v -1.58802 c 0,-0.72833 -0.593566,-1.3224 -1.321882,-1.3224 z M 1.3223998,292.23853 H 11.377083 c 0.151153,0 0.265617,0.11239 0.265617,0.26354 v 3.17604 c 0,0.15116 -0.114464,0.26355 -0.265617,0.26355 H 1.3223998 c -0.1511565,0 -0.2635515,-0.11239 -0.2635515,-0.26355 v -3.17604 c 0,-0.15115 0.112395,-0.26354 0.2635515,-0.26354 z m 12.7010322,0 h 0.263551 v 1.32239 c 0,0.35288 0.529167,0.35288 0.529167,0 v -1.32239 h 0.266134 c 0.444312,0 0.792715,0.34891 0.792715,0.79323 v 1.58802 c 0,0.73746 -0.584925,1.32188 -1.3224,1.32188 -0.737474,0 -1.323949,-0.58442 -1.323949,-1.32188 v -1.58802 c 0,-0.44432 0.35047,-0.79323 0.794782,-0.79323 z m -11.9072822,0.52916 c -0.3535574,0 -0.3522716,0.52968 0.00106,0.52968 h 0.5291667 c 0.3528669,0 0.3528669,-0.52968 0,-0.52968 z m 1.5875,0 c -0.3535574,0 -0.3522715,0.52968 0.00106,0.52968 h 0.5291667 c 0.3528669,0 0.3528669,-0.52968 0,-0.52968 z m 1.5875,0 c -0.3535574,0 -0.3522715,0.52968 0.00106,0.52968 h 0.5291666 c 0.3528669,0 0.3528669,-0.52968 0,-0.52968 z m 1.5875,0 c -0.3535574,0 -0.3522715,0.52968 0.00106,0.52968 h 0.5291651 c 0.3528668,0 0.3528668,-0.52968 0,-0.52968 z m 1.5875001,0 c -0.3535575,0 -0.3522716,0.52968 0.00106,0.52968 h 0.529165 c 0.3528668,0 0.3528668,-0.52968 0,-0.52968 z m 1.5875001,0 c -0.3535549,0 -0.3523008,0.52968 0.0011,0.52968 h 0.529167 c 0.352867,0 0.352867,-0.52968 0,-0.52968 z m -7.1442688,1.05834 c -0.3535548,0 -0.351835,0.52916 0.00159,0.52916 h 0.5291667 c 0.3528669,0 0.3528669,-0.52916 0,-0.52916 z m 1.5875,0 c -0.3535547,0 -0.3518349,0.52916 0.00159,0.52916 h 0.5291667 c 0.3528669,0 0.3528669,-0.52916 0,-0.52916 z m 1.5875001,0 c -0.3535548,0 -0.351835,0.52916 0.00159,0.52916 h 0.5291666 c 0.3528669,0 0.3528669,-0.52916 0,-0.52916 z m 1.5875,0 c -0.3535548,0 -0.351835,0.52916 0.00159,0.52916 h 0.5291666 c 0.3528669,0 0.3528669,-0.52916 0,-0.52916 z m 1.5875,0 c -0.3535548,0 -0.351835,0.52916 0.00159,0.52916 H 9.790138 c 0.352867,0 0.352867,-0.52916 0,-0.52916 z m -7.1432315,1.05884 c -0.3535574,0 -0.3522716,0.52917 0.00106,0.52917 h 0.5291667 c 0.3528669,0 0.3528669,-0.52917 0,-0.52917 z m 7.9375002,0 c -0.3535549,0 -0.3523008,0.52917 0.0011,0.52917 h 0.529167 c 0.352867,0 0.352867,-0.52917 0,-0.52917 z m -6.3624039,5.3e-4 c -0.3665378,0.0182 -0.33891,0.5474 0.013944,0.52917 h 5.2911481 c 0.3528669,0 0.3528669,-0.52917 0,-0.52917 z"></path></g></svg>