<svg height='100px' width='100px'  fill="#000000" xmlns="http://www.w3.org/2000/svg" xmlns:xlink="http://www.w3.org/1999/xlink" version="1.1" x="0px" y="0px" viewBox="0 0 32 32" enable-background="new 0 0 32 32" xml:space="preserve"><g><ellipse cx="5.676" cy="3.341" rx="3.286" ry="3.341"></ellipse><path d="M5.676,7.51C2.541,7.51,0,10.093,0,13.28h11.352C11.352,10.093,8.81,7.51,5.676,7.51z"></path><ellipse cx="26.324" cy="22.061" rx="3.286" ry="3.341"></ellipse><path d="M26.324,26.23c-3.135,0-5.676,2.583-5.676,5.77H32C32,28.813,29.459,26.23,26.324,26.23z"></path><polygon points="5.16,15.738 5.16,23.031 20.588,23.031 20.588,21.031 7.16,21.031 7.16,15.738  "></polygon></g><g display="none"><circle display="inline" fill="#000000" cx="11.917" cy="21.583" r="16"></circle><g display="inline"><ellipse fill="#000000" cx="5.464" cy="12.442" rx="2.054" ry="2.088"></ellipse><path fill="#000000" d="M9.011,18.654c0-1.992-1.588-3.606-3.547-3.606s-3.547,1.615-3.547,3.606H9.011z"></path><ellipse fill="#000000" cx="18.369" cy="24.142" rx="2.054" ry="2.088"></ellipse><path fill="#000000" d="M21.917,30.354c0-1.992-1.588-3.606-3.547-3.606s-3.547,1.615-3.547,3.606H21.917z"></path><polygon fill="#000000" points="14.784,24.748 5.141,24.748 5.141,20.19 6.391,20.19 6.391,23.498 14.784,23.498   "></polygon></g></g><g display="none"><g display="inline"><path fill="#000000" d="M13.25,5.917c8.271,0,15,6.729,15,15s-6.729,15-15,15s-15-6.729-15-15S4.979,5.917,13.25,5.917     M13.25,4.917c-8.837,0-16,7.163-16,16s7.163,16,16,16s16-7.163,16-16S22.087,4.917,13.25,4.917L13.25,4.917z"></path></g><g display="inline"><ellipse fill="#000000" cx="6.797" cy="11.776" rx="2.054" ry="2.088"></ellipse><path fill="#000000" d="M10.345,17.988c0-1.992-1.588-3.606-3.547-3.606S3.25,15.996,3.25,17.988H10.345z"></path><ellipse fill="#000000" cx="19.703" cy="23.476" rx="2.054" ry="2.088"></ellipse><path fill="#000000" d="M23.25,29.688c0-1.992-1.588-3.606-3.547-3.606s-3.547,1.615-3.547,3.606H23.25z"></path><polygon fill="#000000" points="16.117,24.082 6.475,24.082 6.475,19.524 7.725,19.524 7.725,22.832 16.117,22.832   "></polygon></g></g><g display="none"><g display="inline"><circle fill="#000000" cx="12.917" cy="17.417" r="16"></circle></g><g display="inline"><ellipse fill="#000000" cx="6.464" cy="8.276" rx="2.054" ry="2.088"></ellipse><path fill="#000000" d="M10.011,14.488c0-1.992-1.588-3.606-3.547-3.606s-3.547,1.615-3.547,3.606H10.011z"></path><ellipse fill="#000000" cx="19.369" cy="19.976" rx="2.054" ry="2.088"></ellipse><path fill="#000000" d="M22.917,26.188c0-1.992-1.588-3.606-3.547-3.606s-3.547,1.615-3.547,3.606H22.917z"></path><polygon fill="#000000" points="15.784,20.582 6.141,20.582 6.141,16.024 7.391,16.024 7.391,19.332 15.784,19.332   "></polygon></g></g><g display="none"><ellipse display="inline" fill="#000000" cx="5.676" cy="3.341" rx="3.286" ry="3.341"></ellipse><path display="inline" fill="#000000" d="M11.352,13.28c0-3.187-2.541-5.77-5.676-5.77S0,10.093,0,13.28H11.352z"></path><ellipse display="inline" fill="#000000" cx="26.324" cy="22.061" rx="3.286" ry="3.341"></ellipse><path display="inline" fill="#000000" d="M32,32c0-3.187-2.541-5.77-5.676-5.77s-5.676,2.583-5.676,5.77H32z"></path><polygon display="inline" fill="#000000" points="20.588,23.031 5.16,23.031 5.16,15.738 7.16,15.738 7.16,21.031 20.588,21.031     "></polygon></g></svg>