<svg height='100px' width='100px'  fill="#000000" xmlns="http://www.w3.org/2000/svg" xmlns:xlink="http://www.w3.org/1999/xlink" version="1.1" x="0px" y="0px" viewBox="0 0 100 100" style="enable-background:new 0 0 100 100;" xml:space="preserve"><style type="text/css">
	.st0{fill:none;stroke:#000000;stroke-width:2;stroke-linecap:round;stroke-linejoin:round;stroke-miterlimit:10;}
	.st1{fill:none;stroke:#000000;stroke-width:2;stroke-linecap:round;stroke-linejoin:round;}
	.st2{fill:none;stroke:#000000;stroke-width:2;stroke-linecap:round;stroke-linejoin:round;stroke-dasharray:4.2934,4.2934;}
	.st3{fill:none;stroke:#000000;stroke-width:2;stroke-linecap:round;stroke-linejoin:round;stroke-dasharray:3.7696,3.7696;}
	.st4{fill:none;stroke:#000000;stroke-width:2;stroke-linecap:round;stroke-linejoin:round;stroke-dasharray:3.0341,5.0568;}
	.st5{fill:none;stroke:#000000;stroke-width:2;stroke-linecap:round;stroke-linejoin:round;stroke-dasharray:3.9789,3.9789;}
	.st6{fill:none;stroke:#000000;stroke-width:2;stroke-linecap:round;stroke-linejoin:round;stroke-dasharray:3.945,3.945;}
</style><path d="M89,81.994h-2.456c0.792-0.955,1.268-2.179,1.268-3.514v-0.198c0-1.177-0.664-2.192-1.63-2.722  c1.006-1,1.63-2.383,1.63-3.909v-0.198c0-1.719-1.398-3.116-3.117-3.116H55.054c-1.719,0-3.117,1.397-3.117,3.116v0.198  c0,1.527,0.624,2.91,1.63,3.909c-0.966,0.53-1.63,1.544-1.63,2.722v0.198c0,1.334,0.477,2.559,1.268,3.514h-6.076  c0.792-0.955,1.268-2.179,1.268-3.514v-0.198c0-1.177-0.664-2.192-1.63-2.722c1.006-1,1.63-2.383,1.63-3.909v-0.198  c0-1.719-1.398-3.116-3.117-3.116H15.639c-1.718,0-3.116,1.397-3.116,3.116v0.198c0,1.527,0.624,2.91,1.629,3.909  c-0.966,0.53-1.629,1.544-1.629,2.722v0.198c0,1.334,0.477,2.559,1.268,3.514H11c-0.552,0-1,0.447-1,1V89c0,0.553,0.448,1,1,1h78  c0.552,0,1-0.447,1-1v-6.006C90,82.441,89.552,81.994,89,81.994z M53.938,71.453c0-0.615,0.501-1.116,1.117-1.116h29.642  c0.616,0,1.117,0.501,1.117,1.116v0.198c0,1.938-1.576,3.515-3.514,3.515H57.451c-1.938,0-3.514-1.577-3.514-3.515V71.453z   M53.938,78.282c0-0.615,0.501-1.116,1.117-1.116h2.397h24.848h2.397c0.616,0,1.117,0.501,1.117,1.116v0.198  c0,1.938-1.576,3.514-3.514,3.514H57.451c-1.938,0-3.514-1.576-3.514-3.514V78.282z M14.523,71.453c0-0.615,0.5-1.116,1.116-1.116  h29.642c0.616,0,1.117,0.501,1.117,1.116v0.198c0,1.938-1.577,3.515-3.514,3.515H18.037c-1.938,0-3.514-1.577-3.514-3.515V71.453z   M14.523,78.282c0-0.615,0.5-1.116,1.116-1.116h2.397h24.847h2.397c0.616,0,1.117,0.501,1.117,1.116v0.198  c0,1.938-1.577,3.514-3.514,3.514H18.037c-1.938,0-3.514-1.576-3.514-3.514V78.282z M88,88H12v-4.006h6.037h24.847h14.567h24.848H88  V88z"></path><path d="M89,55.891h-2.456c0.792-0.955,1.268-2.179,1.268-3.514v-0.198c0-1.177-0.664-2.192-1.63-2.722  c1.006-0.999,1.63-2.382,1.63-3.908V45.35c0-1.719-1.398-3.117-3.117-3.117H55.054c-1.719,0-3.117,1.398-3.117,3.117v0.198  c0,1.526,0.624,2.909,1.63,3.908c-0.966,0.53-1.63,1.545-1.63,2.722v0.198c0,1.334,0.477,2.559,1.268,3.514h-6.076  c0.792-0.955,1.268-2.179,1.268-3.514v-0.198c0-1.177-0.664-2.192-1.63-2.722c1.006-0.999,1.63-2.382,1.63-3.908V45.35  c0-1.719-1.398-3.117-3.117-3.117H15.639c-1.718,0-3.116,1.398-3.116,3.117v0.198c0,1.526,0.624,2.909,1.63,3.908  c-0.966,0.53-1.63,1.545-1.63,2.722v0.198c0,1.334,0.477,2.559,1.268,3.514H11c-0.552,0-1,0.447-1,1v6.006c0,0.553,0.448,1,1,1h78  c0.552,0,1-0.447,1-1v-6.006C90,56.338,89.552,55.891,89,55.891z M53.938,45.35c0-0.616,0.501-1.117,1.117-1.117h29.642  c0.616,0,1.117,0.501,1.117,1.117v0.198c0,1.938-1.576,3.514-3.514,3.514H57.451c-1.938,0-3.514-1.576-3.514-3.514V45.35z   M53.938,52.179c0-0.616,0.501-1.117,1.117-1.117h2.397h24.848h2.397c0.616,0,1.117,0.501,1.117,1.117v0.198  c0,1.938-1.576,3.514-3.514,3.514H57.451c-1.938,0-3.514-1.576-3.514-3.514V52.179z M14.523,45.35c0-0.616,0.5-1.117,1.116-1.117  h29.642c0.616,0,1.117,0.501,1.117,1.117v0.198c0,1.938-1.577,3.514-3.514,3.514H18.037c-1.938,0-3.514-1.576-3.514-3.514V45.35z   M14.523,52.179c0-0.616,0.5-1.117,1.116-1.117h2.397h24.847h2.397c0.616,0,1.117,0.501,1.117,1.117v0.198  c0,1.938-1.577,3.514-3.514,3.514H18.037c-1.938,0-3.514-1.576-3.514-3.514V52.179z M88,61.897H12v-4.006h6.037h24.847h14.567  h24.848H88V61.897z"></path><path d="M89,29.789h-6.738c2.082-5.293,0.681-17.343,0.494-18.853c-0.062-0.501-0.487-0.877-0.992-0.877h-8.156  c-0.505,0-0.93,0.376-0.992,0.877c-0.187,1.51-1.589,13.559,0.493,18.853h-4.689c2.082-5.293,0.68-17.343,0.493-18.853  c-0.062-0.501-0.487-0.877-0.992-0.877h-8.156c-0.505,0-0.93,0.376-0.992,0.877c-0.187,1.51-1.588,13.559,0.494,18.853h-4.69  c2.082-5.293,0.68-17.343,0.493-18.853c-0.062-0.501-0.487-0.877-0.992-0.877h-8.155c-0.505,0-0.93,0.376-0.992,0.877  c-0.187,1.51-1.589,13.559,0.493,18.853h-4.69c2.082-5.293,0.681-17.343,0.494-18.853c-0.062-0.501-0.487-0.877-0.992-0.877H32.08  c-0.505,0-0.93,0.376-0.992,0.877c-0.187,1.51-1.588,13.559,0.493,18.853h-4.689c2.082-5.293,0.68-17.343,0.493-18.853  c-0.062-0.501-0.487-0.877-0.992-0.877h-8.156c-0.505,0-0.93,0.376-0.992,0.877c-0.187,1.51-1.588,13.559,0.494,18.853H11  c-0.552,0-1,0.447-1,1v6.006c0,0.553,0.448,1,1,1h78c0.552,0,1-0.447,1-1v-6.006C90,30.236,89.552,29.789,89,29.789z M74.497,12.059  h6.376c0.649,5.862,0.934,14.913-0.779,17.669h-4.819C73.564,26.972,73.849,17.921,74.497,12.059z M60.654,12.059h6.376  c0.649,5.861,0.933,14.912-0.778,17.669h-4.819C59.722,26.972,60.006,17.921,60.654,12.059z M46.812,12.059h6.376  c0.648,5.862,0.933,14.913-0.778,17.669H47.59C45.879,26.972,46.164,17.921,46.812,12.059z M32.969,12.059h6.376  c0.649,5.862,0.934,14.913-0.779,17.669h-4.819C32.037,26.972,32.321,17.921,32.969,12.059z M19.126,12.059h6.376  c0.648,5.862,0.933,14.913-0.778,17.669h-4.819C18.194,26.972,18.479,17.921,19.126,12.059z M88,35.794H12v-4.006h76V35.794z"></path></svg>