<svg height='100px' width='100px'  fill="#000000" xmlns="http://www.w3.org/2000/svg" xmlns:xlink="http://www.w3.org/1999/xlink" xml:space="preserve" style="shape-rendering:geometricPrecision;text-rendering:geometricPrecision;image-rendering:optimizeQuality;" viewBox="0 0 1.70666 1.70666" x="0px" y="0px" fill-rule="evenodd" clip-rule="evenodd"><defs><style type="text/css">
   
    .fil0 {fill:#000000;fill-rule:nonzero}
   
  </style></defs><g><path class="fil0" d="M0.213898 0.193965c0.0214173,0 0.0387913,-0.0173701 0.0387913,-0.0387874 0,-0.0214173 -0.017374,-0.0387874 -0.0387913,-0.0387874l-0.11635 0c-0.0214173,0 -0.0387913,0.0173701 -0.0387913,0.0387874l0 1.51269c0,0.0214173 0.017374,0.0387913 0.0387913,0.0387913l1.20241 0c0.0214173,0 0.0387874,-0.017374 0.0387874,-0.0387913l0 -0.11635c0,-0.0214173 -0.0173701,-0.0387874 -0.0387874,-0.0387874 -0.0214173,0 -0.0387874,0.0173701 -0.0387874,0.0387874l0 0.077563 -1.12484 0 0 -1.43512 0.077563 0z"></path><path class="fil0" d="M1.22238 0.0387835c0,-0.0214173 -0.017374,-0.0387874 -0.0387913,-0.0387874 -0.0214173,0 -0.0387874,0.0173701 -0.0387874,0.0387874l0 0.23274c0,0.0214134 0.0173701,0.0387874 0.0387874,0.0387874l0.232748 0c0.0214173,0 0.0387874,-0.017374 0.0387874,-0.0387874 0,-0.0214173 -0.0173701,-0.0387913 -0.0387874,-0.0387913l-0.193957 0 0 -0.193949z"></path><path class="fil0" d="M1.37754 0.63476c0,0.0214173 0.017374,0.0387874 0.0387913,0.0387874 0.0214173,0 0.0387874,-0.0173701 0.0387874,-0.0387874l0 -0.363232c0,-0.0107087 -0.00434646,-0.0204055 -0.0113661,-0.0274213l-0.232736 -0.23274 3.93701e-006 -7.87402e-006c-0.00842913,-0.00843307 -0.0197874,-0.0121614 -0.030811,-0.0112047l-0.966315 -7.87402e-006 0 -0.000149606c-0.0214173,0 -0.0387874,0.0173701 -0.0387874,0.0387874l0 1.51274c0,0.0214173 0.0173701,0.0387874 0.0387874,0.0387874l1.20244 0c0.0214173,0 0.0387874,-0.0173701 0.0387874,-0.0387874l0 -0.192146 0 -0.156961 0 -0.348295c0,-0.0214173 -0.0173701,-0.0387913 -0.0387874,-0.0387913 -0.0214173,0 -0.0387913,0.017374 -0.0387913,0.0387913l0 0.348295 0 0.156961 0 0.153358 -1.12485 0 0 -1.43531 0.914697 7.87402e-006 0.210157 0.210157 0 0.347173z"></path><path class="fil0" d="M1.61382 0.546945l7.87402e-006 7.87402e-006 7.87402e-006 -7.87402e-006c0.00088189,0.00088189 0.00170866,0.00179134 0.00248031,0.00272441 0.0210472,0.022374 0.0315866,0.0509961 0.0315866,0.0795591 0,0.0297756 -0.0113661,0.0595433 -0.0340748,0.082252l-7.87402e-006 7.87402e-006 -0.548543 0.548543 7.87402e-006 3.93701e-006c-0.00533071,0.00533071 -0.0118346,0.00879134 -0.018685,0.0103701l-0.161091 0.053685 5.51181e-005 0.00015748c-0.0203268,0.00677165 -0.0422953,-0.00420866 -0.0490669,-0.0245354 -0.00317323,-0.00951969 -0.00244882,-0.0193937 0.00129921,-0.0279016l0.0536693 -0.161043 0.0366732 0.012122 -0.0368031 -0.0122677c0.00209449,-0.00627165 0.00562598,-0.0116457 0.0101142,-0.0158937l0.547807 -0.547803 -7.87402e-006 -7.87402e-006c0.00088189,-0.00088189 0.00179134,-0.00170866 0.00272835,-0.00248031 0.022378,-0.0210551 0.051,-0.0315945 0.0795709,-0.0315945l0 0.000149606c0.0298504,7.87402e-006 0.0596575,0.0113386 0.0822717,0.0339528zm-0.0548425 0.0548543l-3.93701e-006 -7.87402e-006c-0.00767717,-0.00767323 -0.0176063,-0.0115197 -0.0274252,-0.0115197l0 0.000149606c-0.00935039,0 -0.018685,0.00329921 -0.0260433,0.00988976l-0.0013937 0.0014685 -7.87402e-006 -7.87402e-006 -0.542323 0.542323 -0.0274252 0.0822913 0.0822953 -0.0274213 0.542323 -0.542323 3.93701e-006 -7.87402e-006c0.00755512,-0.00755118 0.0113465,-0.0174803 0.0113465,-0.0274055 0,-0.00935433 -0.00329528,-0.0186693 -0.00988189,-0.0260276l-0.0014685 -0.0013937 3.93701e-006 -7.87402e-006z"></path><path class="fil0" d="M0.407843 0.310311c-0.0214173,0 -0.0387874,0.0173701 -0.0387874,0.0387874 0,0.0214173 0.0173701,0.0387874 0.0387874,0.0387874l0.426673 0c0.0214173,0 0.0387913,-0.0173701 0.0387913,-0.0387874 0,-0.0214173 -0.017374,-0.0387874 -0.0387913,-0.0387874l-0.426673 0z"></path><path class="fil0" d="M0.407843 0.426677c-0.0214173,0 -0.0387874,0.0173701 -0.0387874,0.0387874 0,0.0214173 0.0173701,0.0387874 0.0387874,0.0387874l0.426673 0c0.0214173,0 0.0387913,-0.0173701 0.0387913,-0.0387874 0,-0.0214173 -0.017374,-0.0387874 -0.0387913,-0.0387874l-0.426673 0z"></path><path class="fil0" d="M0.407843 0.543024c-0.0214173,0 -0.0387874,0.0173701 -0.0387874,0.0387874 0,0.0214173 0.0173701,0.0387874 0.0387874,0.0387874l0.659394 0c0.0214173,0 0.0387874,-0.0173701 0.0387874,-0.0387874 0,-0.0214173 -0.0173701,-0.0387874 -0.0387874,-0.0387874l-0.659394 0z"></path><path class="fil0" d="M0.407843 0.659394c-0.0214173,0 -0.0387874,0.017374 -0.0387874,0.0387874 0,0.0214173 0.0173701,0.0387913 0.0387874,0.0387913l0.659394 0c0.0214173,0 0.0387874,-0.017374 0.0387874,-0.0387913 0,-0.0214134 -0.0173701,-0.0387874 -0.0387874,-0.0387874l-0.659394 0z"></path><path class="fil0" d="M0.407843 0.775748c-0.0214173,0 -0.0387874,0.0173701 -0.0387874,0.0387874 0,0.0214173 0.0173701,0.0387874 0.0387874,0.0387874l0.659394 0c0.0214173,0 0.0387874,-0.0173701 0.0387874,-0.0387874 0,-0.0214173 -0.0173701,-0.0387874 -0.0387874,-0.0387874l-0.659394 0z"></path><path class="fil0" d="M0.407843 0.892114c-0.0214173,0 -0.0387874,0.0173701 -0.0387874,0.0387874 0,0.0214173 0.0173701,0.0387874 0.0387874,0.0387874l0.426673 0c0.0214173,0 0.0387913,-0.0173701 0.0387913,-0.0387874 0,-0.0214173 -0.017374,-0.0387874 -0.0387913,-0.0387874l-0.426673 0z"></path><path class="fil0" d="M0.873299 1.32626c0.0214173,0 0.0387874,-0.0173701 0.0387874,-0.0387874 0,-0.0214173 -0.0173701,-0.0387874 -0.0387874,-0.0387874l-0.183732 0 0.0183819 -0.0201614 5.51181e-005 4.72441e-005c0.0144331,-0.0158268 0.0133031,-0.0403661 -0.00252362,-0.0547992 -0.00980709,-0.00894488 -0.0229606,-0.0119134 -0.0349803,-0.00911024l-0.230217 0.038374c-0.0210827,0.00351181 -0.0353307,0.0234567 -0.0318189,0.0445394 0.00351181,0.0210827 0.0234606,0.0353307 0.0445433,0.0318189l0.122323 -0.0203858 -0.000688976 0.000759843c-0.00718898,0.00703937 -0.0116535,0.0168504 -0.0116535,0.0277047 0,0.0214173 0.017374,0.0387874 0.0387913,0.0387874l0.27152 0z"></path></g></svg>