<svg height='100px' width='100px'  fill="#000000" xmlns="http://www.w3.org/2000/svg" xmlns:xlink="http://www.w3.org/1999/xlink" version="1.1" x="0px" y="0px" viewBox="0 0 100 100" style="enable-background:new 0 0 100 100;" xml:space="preserve"><g><path d="M94.1,49.1c-0.4-0.4-0.9-0.6-1.4-0.7L81,46.7L80.2,45c0.5-1.1,0.3-2.4-0.6-3.3c-0.5-0.5-1.1-0.8-1.7-0.9l-17.3-2.5   l-7.8-15.7c-0.7-1.5-2.6-2.1-4-1.4c-0.6,0.3-1.1,0.8-1.4,1.4l-7.8,15.7l-17.3,2.5c-0.8,0.1-1.5,0.5-2,1.2s-0.7,1.4-0.6,2.2   c0,0.2,0.1,0.5,0.2,0.7L19,46.7L7.2,48.4c-0.5,0.1-1,0.3-1.4,0.7C5,50.1,5,51.6,5.9,52.5l8.5,8.3l-2,11.7c-0.1,0.5,0,1,0.2,1.5   c0.3,0.6,0.8,1,1.4,1.2c0.2,0.1,0.5,0.1,0.7,0.1c0.4,0,0.8-0.1,1.1-0.3l10.5-5.5l4.4,2.3l-0.6,3.8c-0.3,1.6,0.8,3.2,2.5,3.5   c0.6,0.1,1.3,0,1.9-0.3l15.6-8.1l15.5,8.1C66,78.9,66.5,79,67,79c1.1,0,2.1-0.6,2.7-1.6c0.3-0.6,0.4-1.2,0.3-1.9l-0.6-3.8l4.3-2.3   l10.5,5.5c0.4,0.2,0.7,0.3,1.1,0.3c0.9,0,1.7-0.5,2.1-1.3c0.2-0.5,0.3-1,0.2-1.5l-2-11.7l8.5-8.3C95,51.6,95.1,50.1,94.1,49.1z    M26.3,67.2l-11.4,6c-0.1,0.1-0.2,0-0.3,0c-0.1,0-0.2-0.1-0.2-0.2c0-0.1-0.1-0.2,0-0.2L16.6,60l-9.2-9c-0.2-0.1-0.2-0.4,0-0.5   c0.1-0.1,0.1-0.1,0.2-0.1l12.8-1.9l0.9-1.9l11.9,11.5l-2,11.4L26.3,67.2z M67.9,76.4c-0.3,0.5-0.9,0.7-1.4,0.4l-16.4-8.6l-16.5,8.6   C33.4,77,33.1,77,32.9,77c-0.3,0-0.5-0.2-0.7-0.4c-0.2-0.2-0.2-0.5-0.2-0.8l3.1-18.3L21.9,44.6c-0.2-0.2-0.3-0.4-0.3-0.6   c0-0.3,0-0.5,0.2-0.8c0.2-0.2,0.4-0.4,0.7-0.4l18.4-2.7l8.3-16.6c0.1-0.2,0.3-0.4,0.5-0.5c0.5-0.3,1.1,0,1.4,0.5l8.3,16.6l18.4,2.7   c0.2,0,0.4,0.1,0.6,0.3c0.2,0.2,0.3,0.5,0.3,0.7s-0.1,0.5-0.3,0.7L64.8,57.5L68,75.8C68,76,68,76.3,67.9,76.4z M92.7,51.1l-9.2,9   l2.2,12.7c0,0.1,0,0.2,0,0.2c-0.1,0.2-0.3,0.3-0.5,0.2l-11.4-6l-4.7,2.5l-2-11.4l11.8-11.5l0.9,1.8l12.8,1.9c0.1,0,0.2,0.1,0.2,0.1   C92.8,50.7,92.8,50.9,92.7,51.1z"></path></g></svg>