<svg height='100px' width='100px'  fill="#000000" xmlns="http://www.w3.org/2000/svg" xmlns:xlink="http://www.w3.org/1999/xlink" version="1.1" x="0px" y="0px" viewBox="0 0 100 100" enable-background="new 0 0 100 100" xml:space="preserve"><g><path d="M80.26,41.716c-0.214,0-0.425,0.014-0.633,0.037c-0.082-4.599-1.494-8.553-4.066-11.22c-1.84-1.908-4.177-3.002-6.41-3.002   h-38.3c-2.234,0-4.571,1.094-6.411,3.002c-2.572,2.667-3.985,6.621-4.066,11.221c-0.211-0.023-0.425-0.038-0.643-0.038   c-3.182,0-5.77,2.593-5.77,5.78v12.69c0,3.182,2.588,5.77,5.77,5.77h0.623v5.513c0,0.553,0.448,1,1,1s1-0.447,1-1v-5.513h55.295   v5.513c0,0.553,0.447,1,1,1s1-0.447,1-1v-5.513h0.612c3.188,0,5.78-2.588,5.78-5.77v-12.69   C86.04,44.309,83.447,41.716,80.26,41.716z M25.878,31.922c1.465-1.519,3.277-2.391,4.972-2.391h38.3   c1.693,0,3.505,0.871,4.971,2.39c2.32,2.406,3.547,6.099,3.51,10.436c-1.862,0.96-3.141,2.901-3.141,5.139v3.41   c0,0.552-0.448,1-1,1H26.51c-0.551,0-1-0.448-1-1v-3.41c0-2.236-1.279-4.175-3.141-5.136   C22.331,38.023,23.558,34.328,25.878,31.922z M84.04,60.187c0,2.078-1.696,3.77-3.78,3.77H19.73c-2.079,0-3.77-1.691-3.77-3.77   v-12.69c0-2.084,1.691-3.78,3.77-3.78c2.084,0,3.78,1.696,3.78,3.78v3.41c0,1.654,1.346,3,3,3h46.98c1.654,0,3-1.346,3-3v-3.41   c0-2.084,1.691-3.78,3.77-3.78c2.084,0,3.78,1.696,3.78,3.78V60.187z"></path></g></svg>