<svg height='100px' width='100px'  fill="#000000" xmlns="http://www.w3.org/2000/svg" xmlns:xlink="http://www.w3.org/1999/xlink" version="1.1" x="0px" y="0px" viewBox="0 0 100 100" enable-background="new 0 0 100 100" xml:space="preserve"><path d="M71.354,16.886h-5.722c-3.201,0-5.857,2.349-6.354,5.412l-5.133,20.915H50.74l4.193-29.059  c0.987,0.615,2.147,0.977,3.394,0.977h5.728c3.554,0,6.444-2.893,6.444-6.448c0-3.553-2.891-6.444-6.444-6.444h-5.728  c-3.554,0-6.445,2.891-6.445,6.444c0,0.022,0.003,0.043,0.003,0.064l-4.973,34.465h-1.887l-2.408-19.625  c0.003-0.086,0.013-0.17,0.013-0.257c0-3.554-2.889-6.445-6.439-6.445h-5.727c-3.554,0-6.445,2.891-6.445,6.445  s2.892,6.445,6.445,6.445h5.727c1.191,0,2.303-0.331,3.261-0.897l1.758,14.335h-7.975c-0.276,0-0.5,0.224-0.5,0.5v3.655  c-6.438,3.273-10.535,10.085-10.535,17.71c0,7.627,4.097,14.438,10.535,17.713v14.471c0,0.276,0.224,0.5,0.5,0.5h23.181  c0.249,0,0.46-0.183,0.495-0.43l4.342-30.357h2.61c0.276,0,0.5-0.224,0.5-0.5V43.713c0-0.276-0.224-0.5-0.5-0.5h-5.821l3.633-14.806  c1.094,0.854,2.465,1.368,3.957,1.368h5.722c3.554,0,6.444-2.891,6.444-6.445S74.908,16.886,71.354,16.886z M71.354,25.989h-5.722  c-1.465,0-2.657-1.192-2.657-2.658c0-0.127,0.021-0.249,0.038-0.372l0.127-0.52v0c0.368-1.026,1.342-1.766,2.492-1.766h5.722  c1.466,0,2.658,1.192,2.658,2.658S72.82,25.989,71.354,25.989z M60.576,47.656H36.522v-0.655h24.054V47.656z M32.736,53.604  c-3.396,2.275-5.538,6.636-5.538,11.474c0,4.839,2.143,9.2,5.538,11.477v1.844c-4.183-2.904-6.747-7.924-6.747-13.32  c0-5.395,2.564-10.412,6.747-13.316V53.604z M32.736,58.934v12.293c-1.111-1.7-1.75-3.905-1.75-6.148  C30.986,62.837,31.625,60.633,32.736,58.934z M36.522,83.699v-5.941V52.402v-0.959h24.054v11.744h-2.173  c-0.249,0-0.46,0.183-0.495,0.429l-4.343,30.356H36.522V83.699z M64.055,11.344h-5.728c-1.391,0-2.522-1.079-2.636-2.443l0.175-1.21  c0.395-0.974,1.348-1.665,2.461-1.665h5.728c1.465,0,2.657,1.192,2.657,2.657C66.712,10.151,65.52,11.344,64.055,11.344z   M30.465,20.673h5.727c1.117,0,2.071,0.698,2.461,1.68l0.159,1.298c-0.16,1.313-1.267,2.337-2.62,2.337h-5.727  c-1.465,0-2.657-1.192-2.657-2.658S29,20.673,30.465,20.673z"></path></svg>