<svg height='100px' width='100px'  fill="#000000" xmlns="http://www.w3.org/2000/svg" xmlns:xlink="http://www.w3.org/1999/xlink" version="1.1" x="0px" y="0px" viewBox="0 0 100 100" enable-background="new 0 0 100 100" xml:space="preserve"><g><rect x="-192" width="185" height="99"></rect><rect y="-36" width="100" height="30"></rect><text transform="matrix(1 0 0 1 66 -19.5)" fill="#000000" font-family="'Helvetica'" font-size="2.4">http://thenounproject.com</text><text transform="matrix(1 0 0 1 7.166 -24.5)"><tspan x="0" y="0" fill="#000000" font-family="'Helvetica-Bold'" font-size="6.1578">The Noun Project</tspan><tspan x="1.12" y="4.8" fill="#000000" font-family="'Helvetica-Bold'" font-size="4">Icon Template</tspan></text><text transform="matrix(1 0 0 1 -178.5 10.5)" fill="#000000" font-family="'Helvetica-Bold'" font-size="6.1578">Reminders</text><line fill="#000000" stroke="#000000" stroke-miterlimit="10" x1="8" y1="-14.5" x2="18" y2="-14.5"></line><line fill="#000000" stroke="#000000" stroke-miterlimit="10" x1="-179" y1="16.5" x2="-162" y2="16.5"></line><g><g><g><rect x="-170.802" y="31.318" fill="#000000" width="8.721" height="8.642"></rect><path fill="#000000" d="M-164.455,42.312h4.747v-4.703h-4.747V42.312z M-159.266,42.749h-5.63V37.17h5.63V42.749      L-159.266,42.749z M-166.221,44.062h8.279v-8.203h-8.279V44.062L-166.221,44.062z M-157.5,44.5h-9.163v-9.079h9.163V44.5      L-157.5,44.5z"></path><polygon fill="#000000" points="-166.149,44.133 -166.292,43.991 -158.013,35.787 -157.871,35.929     "></polygon></g></g></g><rect x="-179" y="58" fill="none" width="35" height="32.5"></rect><text transform="matrix(1 0 0 1 -179 60.1572)"><tspan x="0" y="0" fill="#000000" font-family="'Helvetica-Bold'" font-size="3">Strokes</tspan><tspan x="0" y="5" fill="#000000" font-family="'Helvetica'" font-size="2.4">Try to keep strokes at 4px</tspan><tspan x="0" y="10" fill="#000000" font-family="'Helvetica'" font-size="2.4">Minimum stroke weight is 2px</tspan><tspan x="0" y="14.5" fill="#000000" font-family="'Helvetica'" font-size="2.4">For thicker strokes use even </tspan><tspan x="0" y="17.5" fill="#000000" font-family="'Helvetica'" font-size="2.4">numbers: 6px, 8px etc.</tspan><tspan x="0" y="22" fill="#000000" font-family="'Helvetica-Bold'" font-size="2.4">Remember to expand strokes </tspan><tspan x="0" y="25" fill="#000000" font-family="'Helvetica-Bold'" font-size="2.4">before saving as an SVG </tspan></text><rect x="-136.5" y="58" fill="none" width="35" height="32.5"></rect><text transform="matrix(1 0 0 1 -136.5 60.1572)"><tspan x="0" y="0" fill="#000000" font-family="'Helvetica-Bold'" font-size="3">Size</tspan><tspan x="0" y="5" fill="#000000" font-family="'Helvetica'" font-size="2.4">Cannot be wider or taller than </tspan><tspan x="0" y="8.5" fill="#000000" font-family="'Helvetica'" font-size="2.4">100px (artboard size)</tspan><tspan x="0" y="13.5" fill="#000000" font-family="'Helvetica'" font-size="2.4">Scale your icon to fill as much of </tspan><tspan x="0" y="16.5" fill="#000000" font-family="'Helvetica'" font-size="2.4">the artboard as possible</tspan></text><rect x="-94" y="58" fill="none" width="35" height="32.5"></rect><text transform="matrix(1 0 0 1 -94 60.1572)"><tspan x="0" y="0" fill="#000000" font-family="'Helvetica-Bold'" font-size="3">Ungroup</tspan><tspan x="0" y="5" fill="#000000" font-family="'Helvetica'" font-size="2.4">If your design has more than one </tspan><tspan x="0" y="8" fill="#000000" font-family="'Helvetica'" font-size="2.4">shape, make sure to ungroup</tspan></text><rect x="-50" y="58" fill="none" width="35" height="32.5"></rect><text transform="matrix(1 0 0 1 -50 60.1572)"><tspan x="0" y="0" fill="#000000" font-family="'Helvetica-Bold'" font-size="3">Save as</tspan><tspan x="0" y="5" fill="#000000" font-family="'Helvetica'" font-size="2.4">Save as .SVG and make sure </tspan><tspan x="0" y="8" fill="#000000" font-family="'Helvetica'" font-size="2.4">“Use Artboards” is checked</tspan></text><text transform="matrix(1.0074 0 0 1 -125.542 30.5933)" fill="#000000" font-family="'Helvetica'" font-size="2.5731">100px</text><text transform="matrix(1.0074 0 0 1 -41 39)" fill="#000000" font-family="'Helvetica-Bold'" font-size="5.1462">.SVG</text><rect x="-126.514" y="34.815" fill="#000000" width="10.261" height="10.185"></rect><rect x="-126.477" y="31.766" fill="#000000" width="0.522" height="2.337"></rect><rect x="-116.812" y="31.766" fill="#000000" width="0.523" height="2.337"></rect><rect x="-127" y="32.337" fill="#000000" width="11.233" height="0.572"></rect><g><rect x="-83.805" y="33.844" fill="#000000" width="10.305" height="10.156"></rect><rect x="-76.809" y="28.707" fill="#000000" width="3.308" height="3.261"></rect></g><rect x="-178.5" y="22.5" fill="#000000" stroke="#000000" stroke-miterlimit="10" width="30" height="30"></rect><rect x="-136.5" y="22.5" fill="#000000" stroke="#000000" stroke-miterlimit="10" width="30" height="30"></rect><rect x="-93.5" y="22.5" fill="#000000" stroke="#000000" stroke-miterlimit="10" width="30" height="30"></rect><rect x="-49.5" y="22.5" fill="#000000" stroke="#000000" stroke-miterlimit="10" width="30" height="30"></rect></g><g><g><path d="M47.938,41.95l-0.111,0.111c-0.216,0.215-0.216,0.564,0,0.78l4.568,4.566c0.215,0.216,0.563,0.216,0.778,0l0.111-0.111    c0.216-0.215,0.216-0.564,0-0.779l-4.566-4.567C48.502,41.734,48.154,41.734,47.938,41.95z"></path><path d="M49.275,40.613l-0.112,0.111c-0.215,0.215-0.215,0.563,0,0.78l4.568,4.566c0.214,0.215,0.563,0.215,0.78,0l0.109-0.112    c0.217-0.214,0.217-0.564,0-0.779l-4.566-4.566C49.839,40.397,49.49,40.397,49.275,40.613z"></path><path d="M50.611,39.276L50.5,39.388c-0.215,0.214-0.215,0.564,0,0.779l4.567,4.567c0.215,0.215,0.564,0.215,0.78,0l0.11-0.111    c0.216-0.216,0.216-0.564,0-0.78l-4.567-4.567C51.176,39.061,50.826,39.061,50.611,39.276z"></path><path d="M51.948,37.939l-0.112,0.111c-0.215,0.216-0.215,0.565,0,0.78l4.567,4.567c0.215,0.215,0.564,0.215,0.779,0l0.112-0.111    c0.215-0.215,0.215-0.564,0-0.78l-4.566-4.567C52.512,37.725,52.162,37.725,51.948,37.939z"></path><path d="M53.284,36.603l-0.111,0.111c-0.215,0.216-0.215,0.565,0,0.78l4.566,4.567c0.217,0.215,0.565,0.215,0.78,0l0.111-0.111    c0.216-0.215,0.216-0.564,0-0.78l-4.566-4.566C53.849,36.388,53.5,36.388,53.284,36.603z"></path><path d="M54.62,35.266l-0.109,0.111c-0.217,0.215-0.217,0.565,0,0.78l4.566,4.567c0.215,0.215,0.563,0.215,0.778,0l0.112-0.111    c0.215-0.216,0.215-0.564,0-0.78l-4.568-4.567C55.185,35.051,54.837,35.051,54.62,35.266z"></path><path d="M55.957,33.93l-0.11,0.112c-0.216,0.215-0.216,0.564,0,0.779l4.565,4.567c0.216,0.214,0.565,0.214,0.78,0l0.11-0.112    c0.217-0.215,0.217-0.565,0-0.779l-4.565-4.567C56.522,33.714,56.173,33.714,55.957,33.93z"></path><path d="M57.295,32.593l-0.112,0.112c-0.215,0.215-0.215,0.564,0,0.779l4.567,4.566c0.215,0.216,0.564,0.216,0.779,0l0.111-0.111    c0.216-0.215,0.216-0.564,0-0.78l-4.567-4.566C57.857,32.378,57.51,32.378,57.295,32.593z"></path><path d="M58.631,31.256l-0.111,0.112c-0.215,0.215-0.215,0.563,0,0.779l4.567,4.566c0.215,0.216,0.564,0.216,0.779,0l0.111-0.111    c0.215-0.215,0.215-0.565,0-0.78l-4.566-4.566C59.195,31.042,58.847,31.042,58.631,31.256z"></path><path d="M60.412,30.365l-0.11,0.112c-0.215,0.215-0.215,0.564,0,0.779l3.676,3.675c0.215,0.215,0.564,0.215,0.778,0l0.112-0.111    c0.215-0.215,0.215-0.564,0-0.779l-3.676-3.676C60.978,30.15,60.628,30.15,60.412,30.365z"></path><path d="M88.429,5.023c-0.002,0.002-1.534,1.521-1.792,1.777l-0.13-0.13c-0.171-0.17-0.446-0.17-0.617,0l-0.272,0.273    c-0.171,0.17-0.172,0.448-0.001,0.618c-0.171-0.17-0.446-0.17-0.617,0l-0.273,0.273c-0.171,0.17-0.172,0.447-0.001,0.617    l0.137,0.138c-0.294,0.293-10.433,10.415-16.498,16.47c-0.879-0.878-4.056-4.055-4.058-4.057    c-0.879-0.879-2.522-1.352-2.521,0.919c0,0.005,0.771,5.208,0.771,5.212c0.069,0.695,0.271,1.182,0.544,1.517    c-0.108,0.06-0.209,0.127-0.294,0.212c-0.002,0.002-0.013,0.013-0.016,0.015c-0.088,0.088-0.15,0.171-0.204,0.25    c-0.585-0.475-0.719-0.217-1.31,0.373c0,0-0.016,0.017-0.028,0.028l4.455,4.456c0.017-0.017,0.035-0.035,0.035-0.035    c0.602-0.602,0.851-0.729,0.351-1.327c0.082-0.052,0.184-0.098,0.271-0.186c0.002-0.002,0.012-0.012,0.015-0.014    c0.457-0.458,0.505-1.378,0.193-1.954c3.878-3.868,19.899-19.846,20.114-20.06l0.1,0.099c0.171,0.171,0.447,0.17,0.617,0    l0.272-0.273c0.172-0.17,0.172-0.446,0.001-0.617c0.171,0.171,0.447,0.17,0.618,0l0.273-0.273c0.171-0.17,0.171-0.447,0-0.617    L88.427,8.59c0.272-0.272,1.709-1.709,1.709-1.709c0.74-0.738,0.844-1.086,0.103-1.826c-0.002-0.002-0.026-0.026-0.028-0.028    C89.47,4.287,89.167,4.284,88.429,5.023z M65.014,28.429c-0.288,0.129-0.363,0.006-0.757-0.134    c-0.36-0.128-0.819-0.565-0.878-1.336c-0.055-0.713-0.441-3.311-0.505-4.398l0.163-0.164c-0.001,0.001,0.171,0.186,0.18,0.192    c0,0,0.472,0.471,0.474,0.472c0.128,0.129,0.381,0.083,0.544-0.08c0-0.001,0.061-0.035,0.133-0.107l3.1,3.126    c0.002,0,0.005,0,0.008,0C66.478,26,65.63,27.814,65.014,28.429z M63.14,21.472c-0.147,0.146-0.385,0.146-0.531,0    c-0.146-0.146-0.146-0.383,0-0.529c0.146-0.146,0.384-0.146,0.531,0C63.284,21.089,63.284,21.326,63.14,21.472z M90.041,5.75    c0.092,0.093,0.092,0.242,0,0.334l-1.894,1.894c-0.092,0.092-0.241,0.092-0.334,0l-0.111-0.112c-0.092-0.092-0.092-0.242,0-0.333    l1.894-1.895c0.093-0.092,0.242-0.092,0.334,0L90.041,5.75z"></path><path d="M47.019,44.651c-0.205,0.204-0.41,0.41-0.552,0.551c-0.695-0.342-1.539-0.243-2.121,0.34    c-0.003,0.002-0.018,0.018-0.021,0.021c-0.675,0.676-0.898,0.899-0.898,0.899c-0.684-0.685-1.793-1.794-1.794-1.796    c-0.741-0.74-1.914-0.762-2.653-0.022c-0.003,0.003-15.163,12.489-15.167,12.494c-0.739,0.739-0.742,1.938-0.001,2.678    c0,0.001,0.195,0.195,0.477,0.478l-0.033-0.007l-0.445,0.446c0,0,0.568,0.829,0.884,1.22c0.315,0.389,0.702,1.035,0.368,1.63    c-0.334,0.593-0.8,0.796-0.8,0.796s-0.838,0.721-0.226,1.406c0.613,0.688,1.018,0.834,1.018,0.834l-1.23,1.229l0.445,0.445    l-0.915,0.915c-0.578-0.461-1.151-0.637-1.733-0.055c-0.002,0.003-3.999,4.002-6.464,6.466c-2.464,2.465-9.593,9.592-9.597,9.597    c-0.739,0.737-0.297,1.496,0.443,2.235c0.001,0.003,11.61,8.938,11.613,8.94c0.954,0.694,2.205-0.098,2.204-1.111    c0-0.463-0.632-3.536-0.576-8.018c0.455,0.462,0.913,0.882,1.091,1.044c0.779,0.704,1.15-0.521,1.15-0.521l0.854-5.976    c0.012-0.014,0.025-0.027,0.037-0.038c1.339-1.34,2.388-2.355,2.39-2.356c0.739-0.74,0.274-1.442-0.466-2.181l-0.03-0.031    c0.055-0.055,0.113-0.111,0.167-0.167c1.419-1.418,2.539-2.537,2.541-2.539c0.738-0.739,0.29-1.425-0.45-2.164    c0,0-0.195-0.195-0.476-0.476l0.446-0.445l0.445,0.445l0.891-0.892l1.323,1.323c0,0,0.217,0.156,0.495-0.123    c0.278-0.278,1.797-2.057,3.357-0.943c1.559,1.114,1.761,2.358,1.761,2.358l1.837,10.306c0,0,0.017,0.761,0.705,0.706    s5.105-2.654,5.105-2.654s0.965-0.742,0.428-1.133c-0.539-0.391-0.614-0.131-0.78-0.409c-0.167-0.278-1.226-4.306-1.226-4.306    s-0.147-0.409,0.335-0.854c0.482-0.445,0.667-0.742,0.5-0.909s-0.717,0.211-1.126-0.086c-0.408-0.298-0.866-2.648-0.866-2.648    l6.405-6.404l0.227-0.328c0.395,0.346,2.773,2.423,5.412,4.489c2.303,1.808,5.673,3.558,5.674,3.56    c1.195,0.712,1.706,0.396,2.383-0.661c0.001-0.002,2.554-4.707,2.556-4.709c0.68-1.349,0.791-1.793-0.045-2.212    c-0.002-0.002-3.643-1.738-6.028-3.452c-2.449-1.759-4.337-3.851-4.82-4.406l0.276-0.384c0,0,0.388-0.28,0.183-0.412    c-0.203-0.129-0.558,0.075-0.76-0.019c-0.205-0.092-2.619-2.618-2.619-2.618s-0.145-0.546-0.239-1.06    c-0.116-0.624,0.057-1.227,0.196-1.58c0.383,0.191,0.681,0.022,1.198-0.493c0.003-0.003,0.016-0.017,0.02-0.02    c0.592-0.591,0.699-1.432,0.342-2.125c0.14-0.139,0.339-0.339,0.541-0.539c0.595,0.465,1.2,0.631,1.787,0.056l-5.379-5.38    C46.416,43.474,46.569,44.065,47.019,44.651z M12.18,86.501c0.033,0.032-0.001,0.119-0.076,0.194l-1.512,1.511    c-0.075,0.075-0.162,0.109-0.194,0.077l-0.328-0.328c-0.033-0.033,0.002-0.119,0.077-0.195l1.511-1.511    c0.075-0.075,0.161-0.109,0.194-0.077L12.18,86.501z M11.289,85.608c0.033,0.033-0.001,0.12-0.076,0.195l-1.512,1.512    c-0.075,0.074-0.163,0.108-0.195,0.075l-0.327-0.327c-0.033-0.032,0.001-0.119,0.076-0.194l1.512-1.511    c0.075-0.075,0.161-0.108,0.195-0.077L11.289,85.608z M10.397,84.719c0.033,0.032-0.001,0.118-0.076,0.194L8.81,86.425    C8.735,86.5,8.648,86.532,8.615,86.5l-0.327-0.327c-0.033-0.032,0.001-0.119,0.076-0.195l1.511-1.511    c0.075-0.074,0.162-0.108,0.195-0.076L10.397,84.719z M14.854,83.827c0.033,0.032-0.002,0.119-0.078,0.194l-1.511,1.512    c-0.075,0.074-0.162,0.108-0.194,0.075l-0.329-0.328c-0.033-0.031,0.002-0.118,0.078-0.193l1.51-1.511    c0.075-0.075,0.163-0.109,0.195-0.077L14.854,83.827z M13.962,82.936c0.033,0.033-0.002,0.12-0.077,0.196l-1.511,1.51    c-0.075,0.075-0.162,0.109-0.194,0.077l-0.328-0.328c-0.033-0.032,0.001-0.119,0.077-0.195l1.51-1.511    c0.075-0.074,0.162-0.108,0.195-0.076L13.962,82.936z M13.071,82.044c0.032,0.033-0.002,0.121-0.077,0.195l-1.511,1.512    c-0.075,0.074-0.162,0.107-0.195,0.075L10.962,83.5c-0.034-0.032,0.001-0.121,0.076-0.195l1.511-1.51    c0.075-0.075,0.162-0.11,0.195-0.078L13.071,82.044z M17.527,81.154c0.033,0.033-0.002,0.118-0.076,0.194l-1.512,1.511    c-0.075,0.075-0.161,0.109-0.194,0.077l-0.328-0.328c-0.033-0.032,0.001-0.12,0.076-0.195l1.512-1.511    c0.075-0.074,0.161-0.109,0.194-0.076L17.527,81.154z M16.635,80.262c0.033,0.033-0.001,0.12-0.076,0.195l-1.512,1.511    c-0.075,0.075-0.162,0.109-0.194,0.076l-0.327-0.327c-0.033-0.032,0.001-0.119,0.076-0.193l1.512-1.512    c0.075-0.076,0.162-0.109,0.195-0.076L16.635,80.262z M15.745,79.371c0.032,0.034-0.001,0.119-0.076,0.195l-1.512,1.51    c-0.075,0.076-0.161,0.11-0.194,0.078l-0.328-0.327c-0.033-0.033,0.001-0.12,0.076-0.194l1.511-1.513    c0.075-0.074,0.162-0.107,0.195-0.076L15.745,79.371z M20.2,78.479c0.033,0.034-0.002,0.12-0.077,0.194l-1.51,1.512    c-0.075,0.075-0.162,0.109-0.194,0.076l-0.328-0.327c-0.033-0.032,0.001-0.12,0.077-0.194l1.511-1.51    c0.075-0.076,0.162-0.11,0.194-0.078L20.2,78.479z M19.308,77.589c0.033,0.033-0.001,0.12-0.077,0.194l-1.51,1.511    c-0.075,0.076-0.163,0.111-0.195,0.077l-0.327-0.327c-0.033-0.031,0.001-0.119,0.076-0.193l1.511-1.512    c0.075-0.075,0.163-0.109,0.195-0.076L19.308,77.589z M18.417,76.697c0.033,0.034-0.001,0.121-0.077,0.196l-1.511,1.51    c-0.075,0.075-0.162,0.11-0.194,0.076l-0.327-0.327c-0.033-0.031,0.001-0.118,0.075-0.194l1.511-1.51    c0.075-0.076,0.163-0.11,0.195-0.078L18.417,76.697z M22.873,75.808c0.033,0.033-0.001,0.119-0.076,0.193l-1.511,1.512    c-0.075,0.074-0.162,0.11-0.195,0.077l-0.328-0.328c-0.032-0.032,0.002-0.119,0.077-0.194l1.512-1.512    c0.075-0.074,0.161-0.108,0.194-0.076L22.873,75.808z M21.981,74.916c0.033,0.033-0.001,0.119-0.076,0.194l-1.511,1.512    c-0.075,0.074-0.162,0.109-0.195,0.075l-0.327-0.327c-0.032-0.032,0.001-0.118,0.077-0.194l1.511-1.511    c0.075-0.075,0.162-0.109,0.194-0.077L21.981,74.916z M21.09,74.025c0.033,0.032-0.001,0.119-0.076,0.194l-1.511,1.511    c-0.075,0.075-0.162,0.109-0.195,0.076l-0.327-0.327c-0.032-0.032,0.001-0.118,0.077-0.193l1.511-1.513    c0.075-0.074,0.162-0.108,0.194-0.075L21.09,74.025z M25.549,65.618c-0.261,0.262-0.685,0.262-0.947,0    c-0.262-0.26-0.262-0.685,0-0.946c0.262-0.261,0.686-0.261,0.947,0C25.811,64.934,25.811,65.358,25.549,65.618z M31.982,68.599    c-0.354,0.354-0.927,0.354-1.281,0s-0.354-0.928,0-1.28c0.354-0.354,0.927-0.354,1.281,0    C32.335,67.671,32.335,68.245,31.982,68.599z M25.876,58.971c-0.381,0.381-0.997,0.381-1.378,0c-0.38-0.381-0.38-0.998,0-1.379    c0.381-0.38,0.998-0.38,1.378,0C26.257,57.973,26.257,58.59,25.876,58.971z M44.192,66.189c-0.603,0.603-2.07,2.07-2.673,2.674    c-0.8,0.799-1.985,0.91-2.785,0.111c-0.8-0.8-0.688-1.984,0.111-2.785c0.033-0.032,0.07-0.07,0.108-0.108l0.065,0.103    c0,0,0.279,1.112,1.208,1.666c0.932,0.557,1.397,0.277,1.397,0.214c0-0.25-0.718-0.202-1.254-0.724    c-0.395-0.385-0.494-0.899-0.494-1.428c0-0.26-0.111-0.643-0.003-0.749c0.611-0.611,1.284-1.284,1.646-1.646    c0.799-0.8,1.985-0.911,2.785-0.11C45.104,64.205,44.992,65.39,44.192,66.189z M40.698,61.498c-0.169-0.169-0.169-0.444,0-0.613    c0.169-0.169,0.444-0.169,0.613,0c0.169,0.169,0.169,0.444,0,0.613C41.142,61.667,40.867,61.667,40.698,61.498z M58.738,70.755    c-0.117,0.15-0.335,0.177-0.483,0.059c0,0-3.339-1.887-5-3.04c-1.972-1.37-4.677-3.746-4.677-3.746    c-0.15-0.117-0.195-0.355-0.059-0.485c0.136-0.128,0.333-0.175,0.483-0.057c3.026,2.579,3.072,2.62,4.917,3.924    c1.608,1.138,4.761,2.862,4.761,2.862C58.829,70.39,58.855,70.605,58.738,70.755z M59.672,68.995    c-0.115,0.15-0.333,0.177-0.483,0.059c0,0-3.338-1.886-5-3.041c-1.972-1.369-4.676-3.745-4.676-3.745    c-0.149-0.117-0.196-0.354-0.06-0.484c0.136-0.129,0.333-0.176,0.484-0.059c3.025,2.579,3.07,2.62,4.917,3.925    c1.608,1.137,4.761,2.861,4.761,2.861C59.765,68.629,59.791,68.846,59.672,68.995z M60.606,67.235    c-0.116,0.15-0.334,0.176-0.482,0.059c0,0-3.34-1.887-5.002-3.04c-1.971-1.371-4.676-3.746-4.676-3.746    c-0.149-0.119-0.195-0.354-0.059-0.484c0.137-0.13,0.333-0.176,0.484-0.058c3.024,2.578,3.07,2.619,4.915,3.924    c1.609,1.138,4.763,2.861,4.763,2.861C60.699,66.869,60.724,67.085,60.606,67.235z M45.168,49.983    c0.563,0.564,0.151,0.822-0.234,1.208c-0.002,0.002-7.322,7.322-7.324,7.323c-0.386,0.386-0.344,0.498-0.908-0.065    c-0.001-0.002-0.275-0.275-0.276-0.277c-0.564-0.562-0.542-0.604-0.156-0.991c0.002-0.002,7.363-7.362,7.365-7.364    c0.386-0.387,0.693-0.673,1.257-0.109C44.893,49.709,45.166,49.982,45.168,49.983z M43.555,48.371    c-0.034-0.034-0.064-0.055-0.097-0.084c0.437,0.504,0.059,0.758-0.306,1.123c-0.002,0.001-7.322,7.322-7.324,7.323    c-0.364,0.364-0.354,0.478-0.826,0.015c0.03,0.028,0.054,0.055,0.087,0.089c0.001,0.001-0.17-0.171-0.168-0.169    c0.031,0.031,0.054,0.053,0.081,0.08c-0.466-0.476-0.432-0.539-0.069-0.901c0.002-0.003,7.363-7.364,7.365-7.364    c0.362-0.365,0.658-0.63,1.159-0.195c-0.024-0.028-0.041-0.054-0.072-0.085C43.384,48.2,43.556,48.372,43.555,48.371z     M42.106,46.031c0.376,0.376,0.281,1.022-0.075,1.404c-0.415,0.342-11.461,11.41-11.494,11.442    c-0.397,0.396-1.074,0.098-1.478-0.443c-0.403-0.544-1.071-3.299-0.283-4.086c0.428-0.353,0.055-0.16,3.85-3.286    c6.906-5.688,7.036-5.818,7.068-5.85c0.38-0.381,1.095-0.497,1.492-0.101L42.106,46.031z"></path></g></g></svg>