<svg height='100px' width='100px'  fill="#000000" xmlns="http://www.w3.org/2000/svg" xmlns:xlink="http://www.w3.org/1999/xlink" version="1.1" x="0px" y="0px" viewBox="0 0 100 100" style="enable-background:new 0 0 100 100;" xml:space="preserve"><path d="M99.9,36.7l-6.4-4.6h0.1V9.4H80.7V1.4H68.4v8.1l-6.7,0L50.3,1.3L38.8,9.4v0H7v22.3l-7.1,5l6.3,9.2l4-2.8v52h18V99h44.3V95  h18V43.6l3.2,2.3L99.9,36.7z M72.4,13.5V5.4h4.2v8.1h12.9v15.8L67.3,13.5H72.4z M11.1,13.5h22l-22,15.4V13.5z M68.4,94.9H32.2V91  h36.2V94.9z M56.5,87H44.2V67.4h12.3V87z M86.4,91H72.5v-4h-12V63.4H40.1V87h-12v4H14.2V40.2L49.9,15l36.4,25.8V91z M49.9,10  L7.3,40.2l-1.7-2.5L50.3,6.3l44,31.4l-1.7,2.6L49.9,10z"></path><path d="M81,63.5H66v15.3h15V63.5z M77,74.8h-7v-7.3h7V74.8z"></path><path d="M19.6,78.9h15V63.5h-15V78.9z M23.7,67.5h7v7.3h-7V67.5z"></path><path d="M81,41.5H66v15.3h15V41.5z M77,52.8h-7v-7.3h7V52.8z"></path><path d="M43.1,56.8h15V41.5h-15V56.8z M47.1,45.5h7v7.3h-7V45.5z"></path><path d="M19.6,56.8h15V41.5h-15V56.8z M23.7,45.5h7v7.3h-7V45.5z"></path><polygon points="63.2,32.4 50.3,24.1 38.4,32.4 "></polygon></svg>