<svg height='100px' width='100px'  fill="#000000" xmlns="http://www.w3.org/2000/svg" xmlns:xlink="http://www.w3.org/1999/xlink" version="1.1" x="0px" y="0px" viewBox="0 0 64 64" style="enable-background:new 0 0 64 64;" xml:space="preserve"><path d="M24,48.063V47h-2v1.063c-1.142,0.252-2,1.268-2,2.484v0.906C20,52.857,21.143,54,22.547,54h0.905  C23.754,54,24,54.245,24,54.547v0.906C24,55.755,23.754,56,23.453,56h-0.905C22.246,56,22,55.755,22,55.453V55h-2v0.453  c0,1.216,0.858,2.233,2,2.484V59h2v-1.063c1.142-0.252,2-1.268,2-2.484v-0.906C26,53.143,24.857,52,23.453,52h-0.905  C22.246,52,22,51.755,22,51.453v-0.906C22,50.245,22.246,50,22.547,50h0.905C23.754,50,24,50.245,24,50.547V51h2v-0.453  C26,49.331,25.142,48.314,24,48.063z"></path><path d="M23,44c-3.173,0-5.961,1.654-7.564,4.142c-0.638-0.592-1.354-1.069-2.128-1.421C14.337,45.804,15,44.484,15,43  c0-2.757-2.243-5-5-5s-5,2.243-5,5c0,1.485,0.664,2.806,1.695,3.723C3.93,47.984,2,50.768,2,54v5c0,0.553,0.448,1,1,1h14v-0.311  C18.594,61.121,20.694,62,23,62c4.962,0,9-4.037,9-9S27.962,44,23,44z M7,43c0-1.654,1.346-3,3-3s3,1.346,3,3s-1.346,3-3,3  S7,44.654,7,43z M4,54c0-3.309,2.691-6,6-6c1.603,0,3.11,0.624,4.243,1.757c0.099,0.099,0.184,0.193,0.266,0.286  C14.185,50.971,14,51.963,14,53c0,1.849,0.562,3.569,1.522,5H4V54z M23,60c-3.86,0-7-3.141-7-7s3.14-7,7-7s7,3.141,7,7  S26.86,60,23,60z"></path><path d="M60.835,36.014l-6,1c-0.369,0.062-0.673,0.324-0.788,0.681c-0.114,0.357-0.02,0.748,0.245,1.013l1.719,1.719l-3.944,3.228  l-2.36-2.36c-0.345-0.345-0.89-0.391-1.288-0.106l-14,10l1.162,1.627l13.311-9.508l2.401,2.401c0.363,0.363,0.942,0.393,1.34,0.067  l4.8-3.927l1.86,1.86C59.483,43.897,59.739,44,60,44c0.102,0,0.205-0.016,0.305-0.048c0.357-0.114,0.62-0.418,0.681-0.788l1-6  c0.053-0.318-0.051-0.643-0.279-0.871C61.479,36.064,61.156,35.962,60.835,36.014z M59.333,40.919l-2.252-2.252l2.703-0.45  L59.333,40.919z"></path><path d="M50,49h-4c-0.552,0-1,0.447-1,1v11c0,0.553,0.448,1,1,1h4c0.552,0,1-0.447,1-1V50C51,49.447,50.552,49,50,49z M49,60h-2v-9  h2V60z"></path><path d="M42,53h-4c-0.552,0-1,0.447-1,1v7c0,0.553,0.448,1,1,1h4c0.552,0,1-0.447,1-1v-7C43,53.447,42.552,53,42,53z M41,60h-2v-5h2  V60z"></path><path d="M58,47h-4c-0.552,0-1,0.447-1,1v13c0,0.553,0.448,1,1,1h4c0.552,0,1-0.447,1-1V48C59,47.447,58.552,47,58,47z M57,60h-2V49  h2V60z"></path><path d="M59,2H5C3.346,2,2,3.346,2,5v24c0,1.654,1.346,3,3,3h12.613l-1.562,4.684c-0.135,0.405,0.002,0.852,0.342,1.111  C16.572,37.932,16.786,38,17,38c0.193,0,0.386-0.056,0.555-0.168L26.303,32H59c1.654,0,3-1.346,3-3V5C62,3.346,60.654,2,59,2z   M60,29c0,0.552-0.449,1-1,1H26c-0.197,0-0.391,0.059-0.555,0.168l-6.575,4.383l1.079-3.234c0.102-0.305,0.05-0.641-0.138-0.901  S19.321,30,19,30H5c-0.551,0-1-0.448-1-1V5c0-0.552,0.449-1,1-1h54c0.551,0,1,0.448,1,1V29z"></path><path d="M16,11.063V10h-2v1.063c-1.142,0.252-2,1.268-2,2.484v0.906C12,15.857,13.143,17,14.547,17h0.905  C15.754,17,16,17.245,16,17.547v0.906C16,18.755,15.754,19,15.453,19h-0.905C14.246,19,14,18.755,14,18.453V18h-2v0.453  c0,1.216,0.858,2.233,2,2.484V22h2v-1.063c1.142-0.252,2-1.268,2-2.484v-0.906C18,16.143,16.857,15,15.453,15h-0.905  C14.246,15,14,14.755,14,14.453v-0.906C14,13.245,14.246,13,14.547,13h0.905C15.754,13,16,13.245,16,13.547V14h2v-0.453  C18,12.331,17.142,11.314,16,11.063z"></path><path d="M15,7c-4.962,0-9,4.037-9,9s4.038,9,9,9s9-4.037,9-9S19.962,7,15,7z M15,23c-3.86,0-7-3.141-7-7s3.14-7,7-7s7,3.141,7,7  S18.86,23,15,23z"></path><path d="M50,6c-0.819,0-8,0.084-8,3v16c0,2.916,7.181,3,8,3s8-0.084,8-3V9C58,6.084,50.819,6,50,6z M50,8  c3.137,0,5.155,0.584,5.829,1c-0.673,0.416-2.691,1-5.829,1s-5.155-0.584-5.829-1C44.845,8.584,46.863,8,50,8z M56,12.859  C55.618,13.266,53.521,14,50,14s-5.618-0.734-6-1.141v-1.75C46.19,11.958,49.462,12,50,12s3.81-0.042,6-0.892V12.859z M56,16.859  C55.618,17.266,53.521,18,50,18s-5.618-0.734-6-1.141v-1.75C46.19,15.958,49.462,16,50,16s3.81-0.042,6-0.892V16.859z M56,20.859  C55.618,21.266,53.521,22,50,22s-5.618-0.734-6-1.141v-1.75C46.19,19.958,49.462,20,50,20s3.81-0.042,6-0.892V20.859z M50,26  c-3.477,0-5.58-0.718-6-1.128v-1.764C46.19,23.958,49.462,24,50,24s3.81-0.042,6-0.892v1.764C55.58,25.282,53.477,26,50,26z"></path><path d="M34.707,11.293c-0.287-0.287-0.716-0.374-1.09-0.217C33.244,11.23,33,11.596,33,12v2h-6c-0.552,0-1,0.447-1,1v4  c0,0.553,0.448,1,1,1h6v2c0,0.404,0.244,0.77,0.617,0.924C33.741,22.976,33.871,23,34,23c0.26,0,0.516-0.102,0.707-0.293l5-5  c0.391-0.391,0.391-1.023,0-1.414L34.707,11.293z M35,19.586V19c0-0.553-0.448-1-1-1h-6v-2h6c0.552,0,1-0.447,1-1v-0.586L37.586,17  L35,19.586z"></path></svg>