<svg height='100px' width='100px'  fill="#000000" xmlns="http://www.w3.org/2000/svg" xmlns:xlink="http://www.w3.org/1999/xlink" version="1.1" x="0px" y="0px" viewBox="0 0 512 512" style="enable-background:new 0 0 512 512;" xml:space="preserve"><g><path d="M467.7573242,66.7370605c-0.5036621,0-0.9795532,0.1018066-1.4310913,0.2558594v-0.2558594h-65.4939575v29.1011963   v328.822876h-0.3918457l0.3918457,0.7092285v8.2491455h4.5576172l28.1893311,51.022583l28.1893921-51.022583h4.5576172v-8.2491455   l0.3918457-0.7092285h-0.3918457V208.026123c0.4515381,0.1540527,0.9274292,0.2558594,1.4310913,0.2558594   c6.0755615,0,11.0184326-4.9428711,11.0184326-11.0184326V77.7553711   C478.7757568,71.6799316,473.8328857,66.7370605,467.7573242,66.7370605z M409.7460938,75.6508789h47.6663208v11.2735596   h-47.6663208V75.6508789z M433.5792236,466.2093506l-18.0054932-32.5898438h36.0109863L433.5792236,466.2093506z    M409.7460938,424.6611328V95.8382568h47.6663208v328.822876H409.7460938z M469.8619385,197.2635498   c0,1.1409912-0.9637451,2.1046143-2.1046143,2.1046143c-0.5036621,0-0.9795532,0.1020508-1.4310913,0.2559814V95.8382568   V75.3948975c0.4515381,0.1539307,0.9274292,0.2559814,1.4310913,0.2559814c1.1408691,0,2.1046143,0.963623,2.1046143,2.1044922   V197.2635498z"></path><path d="M378.7740479,68.3032227h-40.9239502V36.2717285c0-4.9150391-3.9987183-8.9138184-8.9138184-8.9138184H42.1380615   c-4.9150391,0-8.9138184,3.9987793-8.9138184,8.9138184v393.751709c0,4.9150391,3.9987793,8.9138184,8.9138184,8.9138184   h40.9239502V470.96875c0,4.9150391,3.9987183,8.9138184,8.9138184,8.9138184h286.7982178   c4.9151001,0,8.9138184-3.9987793,8.9138184-8.9138184V77.217041   C387.6878662,72.302002,383.6891479,68.3032227,378.7740479,68.3032227z M42.1380615,36.2717285h286.7982178l0.0008545,393.751709   H42.1380615V36.2717285z M378.7740479,470.96875H91.9758301v-32.0314941h236.9604492   c4.9151001,0,8.9138184-3.9987793,8.9138184-8.9138184V77.217041h40.9239502V470.96875z"></path><path d="M297.7262573,217.536377H73.3481445c-2.4614868,0-4.4569092,1.9953613-4.4569092,4.4567871   s1.9954224,4.4570312,4.4569092,4.4570312h224.3781128c2.4614868,0,4.4569092-1.9956055,4.4569092-4.4570312   S300.1877441,217.536377,297.7262573,217.536377z"></path><path d="M297.7262573,302.5401611H73.3481445c-2.4614868,0-4.4569092,1.9953613-4.4569092,4.4569092   s1.9954224,4.4569092,4.4569092,4.4569092h224.3781128c2.4614868,0,4.4569092-1.9953613,4.4569092-4.4569092   S300.1877441,302.5401611,297.7262573,302.5401611z"></path><path d="M297.7262573,245.8708496H73.3481445c-2.4614868,0-4.4569092,1.9956055-4.4569092,4.4570312   s1.9954224,4.4567871,4.4569092,4.4567871h224.3781128c2.4614868,0,4.4569092-1.9953613,4.4569092-4.4567871   S300.1877441,245.8708496,297.7262573,245.8708496z"></path><path d="M297.7262573,274.2055664H73.3481445c-2.4614868,0-4.4569092,1.9953613-4.4569092,4.4567871   c0,2.4615479,1.9954224,4.4570312,4.4569092,4.4570312h224.3781128c2.4614868,0,4.4569092-1.9954834,4.4569092-4.4570312   C302.1831665,276.2009277,300.1877441,274.2055664,297.7262573,274.2055664z"></path><path d="M187.0441895,330.8748779H73.3481445c-2.4614868,0-4.4569092,1.9953613-4.4569092,4.4569092   c0,2.4614258,1.9954224,4.4569092,4.4569092,4.4569092h113.6960449c2.4614258,0,4.4569092-1.9954834,4.4569092-4.4569092   C191.5010986,332.8702393,189.5056152,330.8748779,187.0441895,330.8748779z"></path><path d="M75.5765991,176.0892334h219.9211426c3.6863403,0,6.6853027-2.9991455,6.6853027-6.6854248v-55.6889648   c0-3.6864014-2.9989624-6.6854248-6.6853027-6.6854248H75.5765991c-3.6863403,0-6.6853638,2.9990234-6.6853638,6.6854248   v55.6889648C68.8912354,173.0900879,71.8902588,176.0892334,75.5765991,176.0892334z M77.8050537,115.9432373h215.4642334   v51.2321777H77.8050537V115.9432373z"></path><path d="M185.5371094,119.3931885c-12.2223511,0-22.1660156,9.9436035-22.1660156,22.1661377   c0,12.2224121,9.9436646,22.1660156,22.1660156,22.1660156c12.2224121,0,22.1660767-9.9436035,22.1660767-22.1660156   C207.703186,129.336792,197.7595215,119.3931885,185.5371094,119.3931885z M185.5371094,154.8115234   c-7.307251,0-13.2521362-5.9449463-13.2521362-13.2521973c0-7.307373,5.9448853-13.2523193,13.2521362-13.2523193   c7.307312,0,13.2522583,5.9449463,13.2522583,13.2523193C198.7893677,148.8665771,192.8444214,154.8115234,185.5371094,154.8115234   z"></path></g></svg>