<svg height='100px' width='100px'  fill="#000000" xmlns="http://www.w3.org/2000/svg" xmlns:xlink="http://www.w3.org/1999/xlink" version="1.1" x="0px" y="0px" viewBox="0 0 24 24" style="enable-background:new 0 0 24 24;" xml:space="preserve"><g><path d="M7.868,2.604H3.34C3.152,2.604,3,2.756,3,2.943v4.528c0,0.188,0.152,0.34,0.34,0.34h4.528c0.188,0,0.34-0.152,0.34-0.34   V2.943C8.208,2.756,8.056,2.604,7.868,2.604z M7.528,7.132H3.679V3.283h3.849V7.132z"></path><path d="M7.868,9.396H3.34C3.152,9.396,3,9.548,3,9.736v4.528c0,0.187,0.152,0.34,0.34,0.34h4.528c0.188,0,0.34-0.152,0.34-0.34   V9.736C8.208,9.548,8.056,9.396,7.868,9.396z M7.528,13.925H3.679v-3.849h3.849V13.925z"></path><path d="M7.868,16.189H3.34c-0.188,0-0.34,0.152-0.34,0.34v4.528c0,0.187,0.152,0.34,0.34,0.34h4.528c0.188,0,0.34-0.152,0.34-0.34   v-4.528C8.208,16.341,8.056,16.189,7.868,16.189z M7.528,20.717H3.679v-3.849h3.849V20.717z"></path><path d="M10.019,4.415H20.66c0.188,0,0.34-0.152,0.34-0.34c0-0.188-0.152-0.34-0.34-0.34H10.019c-0.188,0-0.34,0.152-0.34,0.34   C9.679,4.263,9.831,4.415,10.019,4.415z"></path><path d="M10.019,6.679h6.113c0.188,0,0.34-0.152,0.34-0.34S16.32,6,16.132,6h-6.113c-0.188,0-0.34,0.152-0.34,0.34   S9.831,6.679,10.019,6.679z"></path><path d="M20.66,10.528H10.019c-0.188,0-0.34,0.152-0.34,0.34s0.152,0.34,0.34,0.34H20.66c0.188,0,0.34-0.152,0.34-0.34   S20.848,10.528,20.66,10.528z"></path><path d="M10.019,13.472h6.113c0.188,0,0.34-0.152,0.34-0.34s-0.152-0.34-0.34-0.34h-6.113c-0.188,0-0.34,0.152-0.34,0.34   S9.831,13.472,10.019,13.472z"></path><path d="M20.66,17.321H10.019c-0.188,0-0.34,0.152-0.34,0.34c0,0.187,0.152,0.34,0.34,0.34H20.66c0.188,0,0.34-0.152,0.34-0.34   C21,17.473,20.848,17.321,20.66,17.321z"></path><path d="M16.132,19.585h-6.113c-0.188,0-0.34,0.152-0.34,0.34c0,0.187,0.152,0.34,0.34,0.34h6.113c0.188,0,0.34-0.152,0.34-0.34   C16.472,19.737,16.32,19.585,16.132,19.585z"></path></g></svg>