<svg height='100px' width='100px'  fill="#000000" xmlns="http://www.w3.org/2000/svg" xmlns:xlink="http://www.w3.org/1999/xlink" version="1.1" x="0px" y="0px" viewBox="0 0 512 512" enable-background="new 0 0 512 512" xml:space="preserve"><g><path d="M387.181,244.175h-214.62c-4.971,0-9,4.029-9,9s4.029,9,9,9h214.62c4.971,0,9-4.029,9-9S392.151,244.175,387.181,244.175z"></path><path d="M387.181,288.314h-214.62c-4.971,0-9,4.029-9,9s4.029,9,9,9h214.62c4.971,0,9-4.029,9-9S392.151,288.314,387.181,288.314z"></path><path d="M387.181,332.455h-214.62c-4.971,0-9,4.029-9,9s4.029,9,9,9h214.62c4.971,0,9-4.029,9-9S392.151,332.455,387.181,332.455z"></path><path d="M387.181,376.596h-214.62c-4.971,0-9,4.029-9,9s4.029,9,9,9h214.62c4.971,0,9-4.029,9-9S392.151,376.596,387.181,376.596z"></path><path d="M459.463,103.467l-83.568-83.492c-0.285-0.285-0.593-0.541-0.91-0.782c-0.077-0.059-0.155-0.117-0.234-0.173   c-0.319-0.228-0.648-0.441-0.993-0.625c-0.016-0.008-0.031-0.014-0.047-0.022c-0.333-0.174-0.679-0.321-1.03-0.453   c-0.088-0.033-0.176-0.065-0.265-0.095c-0.735-0.249-1.502-0.402-2.285-0.454c-0.096-0.006-0.191-0.011-0.287-0.014   c-0.104-0.003-0.206-0.015-0.31-0.015h-244.85c-4.971,0-9,4.029-9,9v40.451H58.914c-4.971,0-9,4.029-9,9v410.201   c0,4.971,4.029,9,9,9h328.398c4.971,0,9-4.029,9-9v-40.415h56.789c4.971,0,9-4.029,9-9V111.292v-1.458   C462.102,107.446,461.152,105.155,459.463,103.467z M378.533,48.056l54.285,54.236h-54.285V48.056z M378.313,476.994H67.914V84.793   h47.769v351.786c0,4.971,4.029,9,9,9h253.629V476.994z M387.313,427.579H133.683V75.793V35.342h226.85v75.95c0,4.971,4.029,9,9,9   h74.568v307.287H387.313z"></path><path d="M262.954,234.623c1.055,0.413,2.168,0.62,3.282,0.62c1.038,0,2.076-0.18,3.068-0.539   c35.63-12.921,58.399-23.728,69.353-40.727c10.393-16.131,9.342-35.723,7.752-65.378c-0.761-14.19-1.623-30.274-1.623-50.111   c0-4.971-4.029-9-9-9H201.834c-4.971,0-9,4.029-9,9c0,19.653-0.923,35.668-1.738,49.799c-1.66,28.789-2.756,47.809,6.771,64.17   C207.036,208.204,224.677,219.632,262.954,234.623z M209.066,129.322c0.668-11.58,1.474-25.56,1.704-41.835h116.075   c0.214,16.404,0.967,30.445,1.591,42.075c1.452,27.083,2.328,43.431-4.91,54.666c-6.939,10.771-22.555,19.655-57.164,32.388   c-31.423-12.524-46.374-21.94-52.94-33.216C206.622,171.72,207.542,155.761,209.066,129.322z"></path><path d="M232.79,159.943h15.798v15.763c0,4.971,4.029,9,9,9h22.256c4.971,0,9-4.029,9-9v-15.763h15.799c4.971,0,9-4.029,9-9   v-22.257c0-4.971-4.029-9-9-9h-15.799v-15.763c0-4.971-4.029-9-9-9h-22.256c-4.971,0-9,4.029-9,9v15.763H232.79   c-4.971,0-9,4.029-9,9v22.257C223.79,155.914,227.819,159.943,232.79,159.943z M241.79,137.686h15.798c4.971,0,9-4.029,9-9v-15.763   h4.256v15.763c0,4.971,4.029,9,9,9h15.799v4.257h-15.799c-4.971,0-9,4.029-9,9v15.763h-4.256v-15.763c0-4.971-4.029-9-9-9H241.79   V137.686z"></path></g></svg>