<svg height='100px' width='100px'  fill="#000000" xmlns="http://www.w3.org/2000/svg" xmlns:xlink="http://www.w3.org/1999/xlink" version="1.1" x="0px" y="0px" viewBox="0 0 10 10" enable-background="new 0 0 10 10" xml:space="preserve"><g><path d="M1283.275,1106.166v5.104c1.41,0,2.552-1.143,2.552-2.552S1284.686,1106.166,1283.275,1106.166z"></path><path d="M1283.709,1105.201v-0.546h0.459v-0.716h-1.784v0.716h0.458v0.546c-1.75,0.213-3.109,1.709-3.109,3.517   c0,1.954,1.59,3.544,3.543,3.544c1.955,0,3.545-1.59,3.545-3.544C1286.82,1106.91,1285.462,1105.414,1283.709,1105.201z    M1283.275,1111.686c-1.635,0-2.965-1.332-2.965-2.968s1.33-2.966,2.965-2.966c1.637,0,2.967,1.33,2.967,2.966   S1284.912,1111.686,1283.275,1111.686z"></path><path d="M1281.541,1108.428h-0.723c-0.16,0-0.291,0.131-0.291,0.29c0,0.16,0.131,0.288,0.291,0.288h0.723   c0.158,0,0.289-0.128,0.289-0.288C1281.83,1108.559,1281.699,1108.428,1281.541,1108.428z"></path></g><g><path d="M9.356,5.708l-1.62,0.844V6.279l1.757-0.914c0.072-0.038,0.101-0.127,0.063-0.2C9.519,5.093,9.429,5.064,9.356,5.103   l-1.62,0.844V5.655l1.757-0.915c0.072-0.038,0.101-0.127,0.063-0.2C9.519,4.469,9.429,4.44,9.356,4.478l-1.62,0.843V5.046   l1.727-0.898c0.05-0.026,0.08-0.077,0.079-0.133c0-0.056-0.031-0.106-0.082-0.131l-2.69-1.33c-0.041-0.021-0.09-0.021-0.131,0   L0.846,5.385C0.795,5.41,0.763,5.462,0.763,5.519s0.032,0.108,0.083,0.133l2.897,1.407c0.02,0.01,0.042,0.015,0.064,0.015   c0.023,0,0.047-0.006,0.068-0.017l1.869-0.974v0.275l-1.94,1.01l-2.83-1.374C0.902,5.959,0.813,5.989,0.778,6.063   S0.772,6.225,0.846,6.26l2.897,1.407c0.02,0.01,0.042,0.015,0.064,0.015c0.023,0,0.047-0.006,0.068-0.017l1.869-0.974v0.291   l-1.94,1.01l-2.83-1.374C0.902,6.582,0.813,6.613,0.778,6.688C0.742,6.76,0.772,6.85,0.846,6.885l2.897,1.406   c0.02,0.01,0.042,0.016,0.064,0.016c0.023,0,0.047-0.006,0.068-0.018l1.869-0.973v0.271l-1.94,1.01l-2.83-1.373   C0.902,7.188,0.813,7.219,0.778,7.293C0.742,7.366,0.772,7.455,0.846,7.49l2.897,1.406c0.02,0.011,0.042,0.016,0.064,0.016   c0.023,0,0.047-0.006,0.068-0.018L5.961,7.81l3.532-1.839c0.072-0.037,0.101-0.127,0.063-0.199C9.519,5.699,9.429,5.67,9.356,5.708   z M5.891,5.674L3.419,4.457l1.403-0.686l2.429,1.195L5.891,5.674z M6.703,2.852L9.067,4.02L7.576,4.796L5.159,3.606L6.703,2.852z    M3.805,6.76L1.249,5.518l1.834-0.896l2.481,1.221L3.805,6.76z M6.409,5.737C6.41,5.736,6.412,5.736,6.413,5.735L7.44,5.201v1.504   L6.041,7.434V5.93L6.409,5.737z"></path><path d="M3.41,2.927c1.194,0,2.096-0.426,2.096-0.99s-0.901-0.99-2.096-0.99c-1.195,0-2.097,0.426-2.097,0.99   S2.215,2.927,3.41,2.927z M3.41,1.243c1.061,0,1.8,0.366,1.8,0.694s-0.739,0.694-1.8,0.694c-1.061,0-1.8-0.366-1.8-0.694   S2.349,1.243,3.41,1.243z"></path><path d="M5.47,2.799c0.034-0.075,0-0.163-0.074-0.196c-0.075-0.033-0.162,0-0.196,0.075C5.098,2.904,4.385,3.149,3.41,3.149   S1.722,2.904,1.619,2.677C1.585,2.603,1.498,2.569,1.423,2.603C1.349,2.637,1.315,2.725,1.349,2.799   C1.55,3.243,2.558,3.446,3.41,3.446S5.271,3.243,5.47,2.799z"></path><path d="M3.558,3.857c0-0.082-0.066-0.148-0.147-0.148c-0.975,0-1.688-0.245-1.791-0.473C1.585,3.163,1.498,3.129,1.423,3.163   C1.349,3.197,1.315,3.284,1.349,3.359C1.55,3.803,2.558,4.006,3.41,4.006C3.492,4.006,3.558,3.939,3.558,3.857z"></path><path d="M2.489,4.424c0.072,0,0.135-0.052,0.146-0.126C2.648,4.218,2.592,4.142,2.511,4.13C1.89,4.037,1.652,3.879,1.614,3.81   c-0.04-0.072-0.129-0.098-0.201-0.059S1.315,3.88,1.354,3.952c0.15,0.273,0.688,0.407,1.113,0.471   C2.475,4.424,2.482,4.424,2.489,4.424z"></path><path d="M1.606,4.344C1.559,4.277,1.467,4.26,1.4,4.307S1.316,4.445,1.362,4.513C1.444,4.631,1.633,4.725,1.94,4.799   c0.012,0.003,0.023,0.004,0.035,0.004c0.067,0,0.127-0.045,0.144-0.113C2.138,4.61,2.089,4.53,2.01,4.511   C1.667,4.428,1.608,4.348,1.606,4.344z"></path><ellipse transform="matrix(0.9237 -0.3831 0.3831 0.9237 -1.394 2.4027)" cx="5.335" cy="4.701" rx="0.667" ry="0.256"></ellipse></g></svg>