<svg height='100px' width='100px'  fill="#000000" xmlns="http://www.w3.org/2000/svg" xmlns:xlink="http://www.w3.org/1999/xlink" version="1.1" x="0px" y="0px" viewBox="0 0 55 55" style="enable-background:new 0 0 55 55;" xml:space="preserve"><path d="M51.5,14.0507813h-48V8.3720703C3.5,5.6855469,5.6855469,3.5,8.3720703,3.5H46.628418  C49.3144531,3.5,51.5,5.6855469,51.5,8.3720703V14.0507813z M5.5,12.0507813h44V8.3720703  C49.5,6.7885742,48.2119141,5.5,46.628418,5.5H8.3720703C6.7885742,5.5,5.5,6.7885742,5.5,8.3720703V12.0507813z"></path><path d="M46.628418,51.5H8.3720703C5.6855469,51.5,3.5,49.3144531,3.5,46.628418V12.0507813h48V46.628418  C51.5,49.3144531,49.3144531,51.5,46.628418,51.5z M5.5,14.0507813V46.628418C5.5,48.2119141,6.7885742,49.5,8.3720703,49.5  H46.628418C48.2119141,49.5,49.5,48.2119141,49.5,46.628418V14.0507813H5.5z"></path><rect x="8.887207" y="7.7753906" width="2" height="2"></rect><rect x="13.0449219" y="7.7753906" width="2" height="2"></rect><rect x="17.2026367" y="7.7753906" width="2" height="2"></rect><rect x="22.2026367" y="7.7753906" width="23.9106445" height="2"></rect><path d="M26.078125,34.1171875H7.887207V17.1459961h18.190918V34.1171875z M9.887207,32.1171875h14.190918V19.1459961H9.887207  V32.1171875z"></path><polygon points="14.9033203,33.59375 12.4008789,28.9794922 9.6313477,32.0629883 8.1430664,30.7270508 12.8071289,25.5332031   16.6611328,32.640625 "></polygon><polygon points="14.7666016,31.8188477 13.2480469,30.5180664 19.6879883,23.0004883 25.7426758,28.3881836 24.4135742,29.8823242   19.8813477,25.8491211 "></polygon><circle cx="15.2242098" cy="22.1737194" r="1.2932631"></circle><path d="M47.1132813,34.1171875H28.921875V17.1459961h18.1914063V34.1171875z M30.921875,32.1171875h14.1914063V19.1459961  H30.921875V32.1171875z"></path><polygon points="35.9384766,33.59375 33.4360352,28.9790039 30.6660156,32.0634766 29.1777344,30.7265625 33.8422852,25.5336914   37.6962891,32.640625 "></polygon><polygon points="35.8017578,31.8188477 34.2832031,30.5180664 40.7231445,23.0004883 46.777832,28.3881836 45.4487305,29.8823242   40.9165039,25.8491211 "></polygon><circle cx="36.2591591" cy="22.1737194" r="1.2932631"></circle><rect x="7.887207" y="37.8598633" width="18.190918" height="2"></rect><rect x="7.887207" y="43.6025391" width="18.190918" height="2"></rect><rect x="28.921875" y="37.8598633" width="18.1914063" height="2"></rect><rect x="28.921875" y="43.6025391" width="18.1914063" height="2"></rect></svg>