<svg height='100px' width='100px'  fill="#000000" xmlns="http://www.w3.org/2000/svg" viewBox="0 0 64 64" x="0px" y="0px"><g><path d="M22,25a3,3,0,0,1,2-2.816V23a1,1,0,0,0,2,0v-.816A3,3,0,0,1,28,25a1,1,0,0,0,2,0,5,5,0,0,0-10,0,1,1,0,0,0,2,0Z"></path><path d="M20.29,18.7a1.056,1.056,0,0,0,.71.29,1,1,0,0,0,.38-.081,1,1,0,1,0-1.09-1.629,1.15,1.15,0,0,0-.21.329.942.942,0,0,0,0,.76A1.048,1.048,0,0,0,20.29,18.7Z"></path><path d="M28.29,18.7a1.056,1.056,0,0,0,.71.29,1,1,0,0,0,.38-.081,1,1,0,1,0-1.09-1.629,1.15,1.15,0,0,0-.21.329.942.942,0,0,0,0,.76A1.048,1.048,0,0,0,28.29,18.7Z"></path><path d="M61,33a1,1,0,0,0,0-2H60V25.414A2,2,0,0,0,56.586,24l-2.822,2.82a5.522,5.522,0,0,0-3.529,0L47.414,24A2,2,0,0,0,44,25.414V31H43a1,1,0,0,0,0,2h1v2H43a1,1,0,0,0,0,2h1.106a4.992,4.992,0,0,0,1.176,2.34,11.036,11.036,0,0,0-6.843,5.235,6.953,6.953,0,0,0-3.108-2.9l1.182-4.218a7.008,7.008,0,0,0,.031-3.642,6.47,6.47,0,0,0-4.461-4.511,6.986,6.986,0,0,0,1.683-5.161l-.756-9.07.6-2.537a7.03,7.03,0,0,0-.022-3.3L32.573,5.174A2,2,0,0,0,28.9,4.666L26.922,8.121A7.009,7.009,0,0,0,26,11.593V12H24v-.077a6.961,6.961,0,0,0-1.3-4.069L20.3,4.5a2,2,0,0,0-3.612.914l-.543,4.347A6.973,6.973,0,0,0,16.3,12.33l.688,2.752-.756,9.062a6.986,6.986,0,0,0,1.68,5.158,6.476,6.476,0,0,0-4.458,4.514,7.012,7.012,0,0,0,.031,3.643l1.185,4.228a7.009,7.009,0,0,0-3.966,7.047l.242,2.3-.464-.173a3.059,3.059,0,0,1-1.91-2.273l-1.05-5.82A4.592,4.592,0,0,0,3,39a1,1,0,0,0-1,1v8.53a9.031,9.031,0,0,0,4.284,7.66l1.189.735A3.977,3.977,0,0,0,6,60v1a1,1,0,0,0,1,1H23a2.987,2.987,0,0,0,2-.766A2.987,2.987,0,0,0,27,62H49a6.976,6.976,0,0,0,5.112-2.233A3,3,0,0,0,57,62h2a2.974,2.974,0,0,0,2.121-.881A3.033,3.033,0,0,0,62,58.94a2.934,2.934,0,0,0-2-2.784V37h1a1,1,0,0,0,0-2H60V33ZM37.3,47.5A10.974,10.974,0,0,0,37,50v4.829A3.006,3.006,0,0,1,35,52V44c0-.079-.017-.152-.023-.23A5.016,5.016,0,0,1,37.3,47.5ZM28.659,9.113l1.974-3.454L31.646,9.72a5.026,5.026,0,0,1,.016,2.358l-.369,1.562L28,12.323v-.73A5.007,5.007,0,0,1,28.659,9.113Zm-10.528.9.543-4.347,2.395,3.352A4.974,4.974,0,0,1,22,11.923v.4l-3.308,1.323-.45-1.8A5.007,5.007,0,0,1,18.131,10.012ZM7.332,54.487A7.025,7.025,0,0,1,4,48.53V41.2a2.589,2.589,0,0,1,1.556,1.929l1.051,5.828a5.073,5.073,0,0,0,3.173,3.78l1.4.524L11.469,56H10c-.065,0-.125.016-.19.019ZM10,58h2.58a1,1,0,0,0,.994-1.1L12.7,48.524a5.009,5.009,0,0,1,2.526-4.877l3.507,12.517A5.011,5.011,0,0,0,15.111,60H8A2,2,0,0,1,10,58Zm17,2a1,1,0,0,1-1-1V46a1,1,0,0,0-2,0V59a1,1,0,0,1-1,1H17.171A3.006,3.006,0,0,1,20,58a1,1,0,0,0,.963-1.27L15.414,36.922a5,5,0,0,1-.023-2.6A4.7,4.7,0,0,1,20,31a1,1,0,0,0,.707-1.707l-1.032-1.032a4.989,4.989,0,0,1-1.447-3.951l.717-8.611L23.193,14h3.614l4.248,1.7.717,8.611a4.989,4.989,0,0,1-1.447,3.951l-1.032,1.032a1,1,0,0,0-.2,1.09,1.021,1.021,0,0,0,.938.617,4.693,4.693,0,0,1,4.582,3.32,5.006,5.006,0,0,1-.022,2.6l-1.238,4.415A2.962,2.962,0,0,0,32,41a3,3,0,0,0-3,3v8a9.982,9.982,0,0,0,3.725,7.776c.034.074.072.147.1.224Zm25-1.024a3,3,0,0,0-2-2.8V50a1,1,0,0,1,1-1h2a1,1,0,0,1,1,1v5A4.98,4.98,0,0,1,52,58.976ZM58,35H57a1,1,0,0,0,0,2h1V57a1.026,1.026,0,0,0,.321.708,1.067,1.067,0,0,0,.734.292h.005a.935.935,0,0,1,.664.275A.965.965,0,0,1,60,58.99a1.007,1.007,0,0,1-.294.718A.987.987,0,0,1,59,60H57a1,1,0,0,1-1-1V50a3,3,0,0,0-3-3H51a3,3,0,0,0-3,3v7a1,1,0,0,0,1,1,1,1,0,0,1,0,2H47a1,1,0,0,1-1-1V53a1,1,0,0,0-2,0v6a2.966,2.966,0,0,0,.184,1H39a8.009,8.009,0,0,1-8-8V44a1,1,0,0,1,2,0v8a5.006,5.006,0,0,0,5,5,1,1,0,0,0,1-1V50a9.011,9.011,0,0,1,9-9h1a1,1,0,0,0,0-2,3,3,0,0,1-2.816-2H47a1,1,0,0,0,0-2H46V33h1a1,1,0,0,0,0-2H46V25.414l3.294,3.293a1,1,0,0,0,1.154.187,3.482,3.482,0,0,1,3.1,0,1,1,0,0,0,1.154-.188L58,25.414V31H57a1,1,0,0,0,0,2h1Z"></path><circle cx="50" cy="32" r="1"></circle><circle cx="52" cy="35" r="1"></circle><circle cx="54" cy="32" r="1"></circle><path d="M31.383,39.924a1,1,0,0,0,.6-.728l1-5a1,1,0,1,0-1.96-.392l-.707,3.536-1.758-1.172a1,1,0,0,0-1.412.317L25,40.056l-2.143-3.571a1,1,0,0,0-1.564-.192l-.928.928-1.436-3.593a1,1,0,1,0-1.858.744l2,5a1,1,0,0,0,1.636.335L21.8,38.613l2.342,3.9a1,1,0,0,0,1.714,0l2.461-4.1,2.127,1.418A1,1,0,0,0,31.383,39.924Z"></path></g></svg>