<svg height='100px' width='100px'  fill="#000000" xmlns="http://www.w3.org/2000/svg" viewBox="0 0 64 64" x="0px" y="0px"><g><path d="M59,6H58V5a1,1,0,0,0-.8-.98C56.784,3.937,47.029,2,41,2c-4.8,0-7.055.92-9,2.63C30.055,2.92,27.8,2,23,2,16.971,2,7.216,3.937,6.8,4.02A1,1,0,0,0,6,5V6H5A3,3,0,0,0,2,9V57a3,3,0,0,0,3,3H29.171a3,3,0,0,0,5.658,0H59a3,3,0,0,0,3-3V9A3,3,0,0,0,59,6ZM33,6.422C34.7,4.815,36.534,4,41,4c4.856,0,12.518,1.36,15,1.826V53.774c-3.408-.644-13.3-2.126-23-.023Zm-25-.6C10.482,5.36,18.144,4,23,4c4.465,0,6.3.817,8,2.424V53.751c-9.7-2.1-19.592-.621-23,.023ZM60,57a1,1,0,0,1-1,1H34a1,1,0,0,0-1,1,1,1,0,0,1-2,0,1,1,0,0,0-1-1H5a1,1,0,0,1-1-1V9A1,1,0,0,1,5,8H6V55a1,1,0,0,0,1.225.975c.128-.03,12.9-2.912,24.533-.005a.968.968,0,0,0,.484,0c11.616-2.9,24.406-.025,24.533.005A1,1,0,0,0,58,55V8h1a1,1,0,0,1,1,1Z"></path><path d="M54,9H50V7H48V9H41V7H39V9H35V23H54ZM52,21H37V11h2v2h2V11h7v2h2V11h2Z"></path><path d="M43,25H35V39h8ZM41,37H37V27h4Z"></path><path d="M45,31h9V25H45Zm2-4h5v2H47Z"></path><path d="M45,39h9V33H45Zm2-4h5v2H47Z"></path><path d="M54,41H35V51H54Zm-2,8H37V43H52Z"></path><path d="M29,10H25V8H23v2H16V8H14v2H10V32H29ZM27,30H12V28H27ZM13,26l4-5.333L21,26Zm14,0H23.5l-3.106-4.142L23.083,18.5,27,22.414Zm0-6.414-3.293-3.293a1,1,0,0,0-1.488.082l-3.065,3.831L17.8,18.4a1.036,1.036,0,0,0-1.6,0L12,24V12h2v2h2V12h7v2h2V12h2Z"></path><path d="M23,50h2V48h4V34H10V48h4v2h2V48h7Zm-7-4V44H14v2H12V36H27V46H25V44H23v2Z"></path><path d="M14,39a3,3,0,1,0,3-3A3,3,0,0,0,14,39Zm3-1a1,1,0,1,1-1,1A1,1,0,0,1,17,38Z"></path><rect x="44" y="14" width="2" height="2"></rect><rect x="41" y="17" width="2" height="2"></rect></g></svg>