<svg height='100px' width='100px'  fill="#000000" xmlns="http://www.w3.org/2000/svg" viewBox="0 0 512 512" x="0px" y="0px"><path d="M256,329.343c-.265-.279-.528-.559-.779-.853A21.554,21.554,0,0,1,238.848,336h-.009a21.57,21.57,0,0,1-16.389-7.509A21.572,21.572,0,0,1,206.062,336h-.01a21.549,21.549,0,0,1-17.927-9.552l-4.2-6.264-6.3-4.188a21.451,21.451,0,0,1-2.118-34.2A21.436,21.436,0,0,1,170.22,256H80v12.072A136.48,136.48,0,0,1,157.879,368H256Z"></path><path d="M127.7,384q.3,3.96.305,8V407l.733-1.106a8,8,0,0,1,13.334,0L144,408.814V392c0-2.688-.1-5.353-.273-8Z"></path><path d="M376,302.766V320h32V302.766a104.6,104.6,0,0,1-32,0Z"></path><path d="M72,384a8,8,0,0,1-8-8V313.629a87.325,87.325,0,0,0-21.053-7.569,7.99,7.99,0,0,1-.891,12.585l-7.59,5.089a5.622,5.622,0,0,0,0,9.305l7.585,5.086a8,8,0,0,1,0,13.288l-7.59,5.091a5.632,5.632,0,0,0,0,9.315l7.585,5.086a8,8,0,0,1,0,13.289l-7.59,5.09a5.623,5.623,0,0,0,0,9.306l7.585,5.086a8.017,8.017,0,0,1,2.207,2.217l5.07,7.629A5.426,5.426,0,0,0,53.9,416h0a5.437,5.437,0,0,0,4.575-2.469l5.058-7.628A8,8,0,0,1,70.2,402.32h0a8,8,0,0,1,6.663,3.574l5.07,7.629A5.425,5.425,0,0,0,86.5,416h0a5.434,5.434,0,0,0,4.574-2.47l5.058-7.626a8,8,0,0,1,13.334,0l2.533,3.82V392c0-2.7-.129-5.362-.367-8Z"></path><path d="M80,285.9v18.5A104.353,104.353,0,0,1,125.2,368h16.387A120.425,120.425,0,0,0,80,285.9Z"></path><path d="M261.541,167.136a14.788,14.788,0,0,1,20.917,0L288,172.686l5.214-5.215A104.535,104.535,0,0,1,344,107.759V96H232V272h85.029a104.507,104.507,0,0,1-17.421-24.294l-1.151,1.151a14.805,14.805,0,0,1-20.914,0L272,243.305l-10.341,10.349a8,8,0,1,1-11.318-11.308l11.2-11.21a14.788,14.788,0,0,1,20.917,0L288,236.686l4.956-4.957a103.041,103.041,0,0,1-2.823-10.718,14.758,14.758,0,0,1-12.591-4.154L272,211.305l-10.341,10.349a8,8,0,1,1-11.318-11.308l11.2-11.21a14.788,14.788,0,0,1,20.917,0L288,204.686l.106-.106c-.067-1.52-.107-3.047-.107-4.583a104.688,104.688,0,0,1,.564-10.842,14.737,14.737,0,0,1-11.021-4.3L272,179.305l-10.341,10.349a8,8,0,1,1-11.318-11.308Z"></path><path d="M293.944,370.905l7.59-5.09a5.631,5.631,0,0,0,0-9.314l-7.585-5.088a8,8,0,0,1,0-13.288l4.488-3.01A21.568,21.568,0,0,1,288,328.489a21.379,21.379,0,0,1-12.2,7.105,21.638,21.638,0,0,1-3.8.378V376a8,8,0,0,1-8,8H159.758c.155,2.647.242,5.312.242,8v15.912l1.333-2.01a8,8,0,0,1,13.334,0l5.06,7.63a5.473,5.473,0,0,0,9.148,0l5.058-7.627a8,8,0,0,1,13.334,0l5.06,7.63a5.473,5.473,0,0,0,9.148,0l5.058-7.628a8,8,0,0,1,13.334,0l5.06,7.63A5.432,5.432,0,0,0,249.5,416h0a5.42,5.42,0,0,0,4.561-2.464l5.075-7.637a8,8,0,0,1,6.663-3.574h0a8,8,0,0,1,6.664,3.578l5.06,7.63A5.433,5.433,0,0,0,282.1,416h0a5.419,5.419,0,0,0,4.559-2.464l5.076-7.638a8.017,8.017,0,0,1,2.207-2.217l7.59-5.09a5.623,5.623,0,0,0,0-9.3l-7.591-5.09a8,8,0,0,1,0-13.289Z"></path><path d="M376,456a8.009,8.009,0,0,0,8,8h16a8.009,8.009,0,0,0,8-8V336H376Z"></path><path d="M42.056,285.864l-4.5,3.018A103.159,103.159,0,0,1,64,296.005V278.864a118.959,118.959,0,0,0-20.783-5.32,7.978,7.978,0,0,1-1.161,12.32Z"></path><path d="M80,324.169V368h28.673A88.229,88.229,0,0,0,80,324.169Z"></path><path d="M34.471,234.72l7.585,5.086a8,8,0,0,1,0,13.289l-5.237,3.511A135.079,135.079,0,0,1,64,262.006V248a8,8,0,0,1,8-8h97.208a21.437,21.437,0,0,1,2.595-19.293,8,8,0,0,1-10.47-2.616l-5.06-7.63a5.473,5.473,0,0,0-9.148,0l-5.058,7.627a8,8,0,0,1-13.334,0l-5.06-7.63a5.473,5.473,0,0,0-9.148,0l-5.058,7.628a8,8,0,0,1-13.334,0l-5.06-7.63A5.432,5.432,0,0,0,86.5,208h0a5.42,5.42,0,0,0-4.561,2.464L76.863,218.1A8,8,0,0,1,70.2,221.67h0a8,8,0,0,1-6.664-3.578l-5.06-7.63A5.433,5.433,0,0,0,53.9,208h0a5.419,5.419,0,0,0-4.559,2.464L44.263,218.1a8,8,0,0,1-2.207,2.216l-7.59,5.09a5.633,5.633,0,0,0,0,9.316Z"></path><path d="M224,288a8,8,0,0,1-8-8V88a8,8,0,0,1,8-8H352a8,8,0,0,1,8,8v13.041a103.394,103.394,0,0,1,26.806-4.914l-4.912-3.264a8,8,0,0,1,0-13.33l7.63-5.06a5.454,5.454,0,0,0,.007-9.131l-7.642-5.079a8.017,8.017,0,0,1-2.217-2.207l-5.09-7.59A5.534,5.534,0,0,0,369.941,48h0a5.554,5.554,0,0,0-4.659,2.468l-5.086,7.585a8,8,0,0,1-13.289,0l-5.09-7.59A5.55,5.55,0,0,0,337.161,48h0a5.535,5.535,0,0,0-4.644,2.462l-5.106,7.6A8,8,0,0,1,320.77,61.6h0a8,8,0,0,1-6.641-3.544l-5.09-7.59A5.534,5.534,0,0,0,304.391,48h0a5.554,5.554,0,0,0-4.659,2.468l-5.1,7.6A8,8,0,0,1,288,61.6h-.01a8,8,0,0,1-6.635-3.544l-5.089-7.59A5.551,5.551,0,0,0,271.611,48h0a5.535,5.535,0,0,0-4.644,2.462l-5.1,7.6A8,8,0,0,1,255.23,61.6h0a8,8,0,0,1-6.636-3.538l-5.1-7.59A5.54,5.54,0,0,0,238.841,48h0a5.552,5.552,0,0,0-4.658,2.468L229.1,58.056a8,8,0,0,1-13.289,0l-5.09-7.59A5.551,5.551,0,0,0,206.061,48h0a5.535,5.535,0,0,0-4.645,2.462l-5.09,7.591a8.017,8.017,0,0,1-2.217,2.207l-7.629,5.07a5.454,5.454,0,0,0-.007,9.139l7.631,5.061a8,8,0,0,1,0,13.33l-7.629,5.07a5.455,5.455,0,0,0-.006,9.14l7.63,5.06a8,8,0,0,1,0,13.334l-7.63,5.06a5.463,5.463,0,0,0,0,9.145l7.631,5.061a8,8,0,0,1,0,13.334l-7.63,5.06a5.465,5.465,0,0,0,0,9.146l7.63,5.06a8,8,0,0,1,0,13.334l-7.63,5.06a5.43,5.43,0,0,0-2.387,5.551l.018.1a5.419,5.419,0,0,0,2.385,3.507l7.614,5.049a8,8,0,0,1,0,13.334l-7.63,5.06a5.463,5.463,0,0,0,0,9.145l7.631,5.061a8,8,0,0,1,0,13.334l-7.63,5.06a5.456,5.456,0,0,0-.006,9.133l7.641,5.077a8,8,0,0,1,0,13.33l-7.63,5.06a5.454,5.454,0,0,0-.007,9.131l7.642,5.079a8.017,8.017,0,0,1,2.217,2.207l5.09,7.59A5.534,5.534,0,0,0,206.059,320h0a5.554,5.554,0,0,0,4.659-2.468l5.086-7.585a8,8,0,0,1,13.289,0l5.09,7.59A5.55,5.55,0,0,0,238.839,320h0a5.535,5.535,0,0,0,4.644-2.462l5.106-7.6a8,8,0,0,1,6.639-3.538h0a8,8,0,0,1,6.641,3.544l5.09,7.59a5.261,5.261,0,0,0,1.473,1.5,5.727,5.727,0,0,0,4.293.856,5.45,5.45,0,0,0,3.539-2.362l5.085-7.585a8,8,0,0,1,13.29,0l5.089,7.59a5.638,5.638,0,0,0,7.688,1.584,5.367,5.367,0,0,0,1.615-1.586l5.088-7.588a8,8,0,0,1,6.641-3.544h0a8,8,0,0,1,6.639,3.538l5.1,7.59A5.54,5.54,0,0,0,337.159,320h0a5.552,5.552,0,0,0,4.658-2.468l5.086-7.585a7.985,7.985,0,0,1,13.1-.254V298.953A103.54,103.54,0,0,1,336.642,288Z"></path><circle cx="392" cy="199.997" r="56"></circle><path d="M392,112a88.1,88.1,0,0,0-88,88q0,3.484.27,6.9l0,.057A88,88,0,1,0,392,112Zm0,160a72,72,0,1,1,72-72A72.081,72.081,0,0,1,392,272Z"></path></svg>