<svg height='100px' width='100px'  fill="#000000" xmlns="http://www.w3.org/2000/svg" viewBox="0 0 64 64" x="0px" y="0px"><g><path d="M61,14H57a1,1,0,0,0-1,1v3H54V13a1,1,0,0,0-.071-.371l-.8-2,0,0-1.2-3a1,1,0,0,0-1.856,0l-1.2,3,0,0-.8,2A1,1,0,0,0,48,13v5H46V3a1,1,0,0,0-1-1H37a1,1,0,0,0-1,1V18H31V10.162l.949-2.846a1,1,0,0,0,.021-.558l-1-4A1,1,0,0,0,30,2H26a1,1,0,0,0-.97.758l-1,4a1,1,0,0,0,.021.558L25,10.162V18H20.021a6.987,6.987,0,0,1,.779-2.965c.216-.4.443-.771.662-1.131A7.981,7.981,0,0,0,23,9.5a7.447,7.447,0,0,0-2.234-5.341A7.578,7.578,0,0,0,15.4,2a7.347,7.347,0,0,0-2.662.553A1,1,0,0,0,12.4,4.188l3.18,3.175L13.466,9.482l-3.22-3.21a1,1,0,0,0-1.624.312,7.367,7.367,0,0,0-.611,3.305A9.013,9.013,0,0,0,9.668,14.1l.1.17A7.664,7.664,0,0,1,10.98,18H8V15a1,1,0,0,0-1-1H3a1,1,0,0,0-1,1V61a1,1,0,0,0,1,1H61a1,1,0,0,0,1-1V15A1,1,0,0,0,61,14ZM46,34V24h2V34Zm4-20.808L50.477,12h1.046L52,13.192V34H50ZM54,24h2V34H54Zm2-4v2H54V20Zm-8,0v2H46V20ZM44,4V34H38V32h3V30H38V28h3V26H38V24h3V22H38V20h3V18H38V16h3V14H38V12h3V10H38V8h3V6H38V4ZM33.618,34l-1-2H33a1,1,0,0,0,1-1V27a1,1,0,0,0-1-1H31V24h5V34ZM20,24h5v2H23a1,1,0,0,0-1,1v4a1,1,0,0,0,1,1h.382l-1,2H20Zm5.851,6.475A1,1,0,0,0,25,30H24V28h8v2H31a1,1,0,0,0-.895,1.447L31.382,34H24.618L25.9,31.447A1,1,0,0,0,25.851,30.475ZM36,20v2H31V20ZM26.781,4h2.438l.74,2.96-.908,2.724A1,1,0,0,0,29,10V26H27V10a1,1,0,0,0-.051-.316L26.041,6.96ZM25,22H20V20h5ZM10.042,8.893l2.011,2a2,2,0,0,0,2.824,0L17,8.777a2,2,0,0,0,0-2.824L15.062,4.019c.121-.011.242-.018.362-.019A5.5,5.5,0,0,1,21,9.5a6.125,6.125,0,0,1-1.246,3.363c-.236.388-.48.788-.716,1.225A9.084,9.084,0,0,0,18,18.36V34H16.44V17h-2V34H13V18.26a9.472,9.472,0,0,0-1.517-5.021l-.108-.178a7.289,7.289,0,0,1-1.366-3.27A5.175,5.175,0,0,1,10.042,8.893ZM8,24h3V34H8Zm3-4v2H8V20ZM4,16H6V60H4ZM8,36H56V60H8ZM60,60H58V16h2Z"></path></g></svg>