<svg height='100px' width='100px'  fill="#000000" xmlns="http://www.w3.org/2000/svg" data-name="Layer 1" viewBox="0 0 100 100" x="0px" y="0px"><title>06</title><g data-name="Group"><path data-name="Compound Path" d="M81,27.5a9.8,9.8,0,0,0-6.9-2.8H51.9a14.8,14.8,0,0,0-10.4,4.1L29.6,40.2H13.9a10,10,0,0,0-10,10V60.6a6,6,0,0,0,6,6h3.3a11.4,11.4,0,0,0,22.2,0H63.8a11.4,11.4,0,0,0,22.2,0h4.1a6,6,0,0,0,6-6V43.2a2.7,2.7,0,0,0-.9-2.1Zm-4.1,4.3,8.8,8.4H73.4V30.7h.7A4.3,4.3,0,0,1,76.9,31.8ZM57.4,30.7h10v9.5h-10ZM45.6,33.2a9,9,0,0,1,5.8-2.5v9.5H38.2ZM24.3,69.3a5.4,5.4,0,1,1,5.4-5.4A5.4,5.4,0,0,1,24.3,69.3Zm50.6,0a5.4,5.4,0,1,1,5.4-5.4A5.4,5.4,0,0,1,74.9,69.3Zm10.9-8.7a11.4,11.4,0,0,0-21.8,0H35.2a11.4,11.4,0,0,0-21.8,0H9.9V50.2a4,4,0,0,1,4-4H90.1V60.6Z"></path></g></svg>